<?xml version="1.0" encoding="utf-8" standalone="no"?>
<!DOCTYPE svg PUBLIC "-//W3C//DTD SVG 1.1//EN"
  "http://www.w3.org/Graphics/SVG/1.1/DTD/svg11.dtd">
<!-- Created with matplotlib (https://matplotlib.org/) -->
<svg height="360pt" version="1.1" viewBox="0 0 720 360" width="720pt" xmlns="http://www.w3.org/2000/svg" xmlns:xlink="http://www.w3.org/1999/xlink">
 <defs>
  <style type="text/css">
*{stroke-linecap:butt;stroke-linejoin:round;}
  </style>
 </defs>
 <g id="figure_1">
  <g id="patch_1">
   <path d="M 0 360 
L 720 360 
L 720 0 
L 0 0 
z
"/>
  </g>
  <g id="axes_1">
   <g id="patch_2">
    <path d="M 90 315 
L 648 315 
L 648 43.2 
L 90 43.2 
z
"/>
   </g>
   <g id="PathCollection_1">
    <defs>
     <path d="M 0 3 
C 0.795609 3 1.55874 2.683901 2.12132 2.12132 
C 2.683901 1.55874 3 0.795609 3 0 
C 3 -0.795609 2.683901 -1.55874 2.12132 -2.12132 
C 1.55874 -2.683901 0.795609 -3 0 -3 
C -0.795609 -3 -1.55874 -2.683901 -2.12132 -2.12132 
C -2.683901 -1.55874 -3 -0.795609 -3 0 
C -3 0.795609 -2.683901 1.55874 -2.12132 2.12132 
C -1.55874 2.683901 -0.795609 3 0 3 
z
" id="m57f4086d0d" style="stroke:#8dd3c7;"/>
    </defs>
    <g clip-path="url(#p80c1012692)">
     <use style="fill:#8dd3c7;stroke:#8dd3c7;" x="115.363636" xlink:href="#m57f4086d0d" y="55.578438"/>
     <use style="fill:#8dd3c7;stroke:#8dd3c7;" x="125.716141" xlink:href="#m57f4086d0d" y="55.554545"/>
     <use style="fill:#8dd3c7;stroke:#8dd3c7;" x="136.068646" xlink:href="#m57f4086d0d" y="84.704893"/>
     <use style="fill:#8dd3c7;stroke:#8dd3c7;" x="146.42115" xlink:href="#m57f4086d0d" y="97.947735"/>
     <use style="fill:#8dd3c7;stroke:#8dd3c7;" x="156.773655" xlink:href="#m57f4086d0d" y="133.452739"/>
     <use style="fill:#8dd3c7;stroke:#8dd3c7;" x="167.12616" xlink:href="#m57f4086d0d" y="131.184646"/>
     <use style="fill:#8dd3c7;stroke:#8dd3c7;" x="177.478664" xlink:href="#m57f4086d0d" y="150.335011"/>
     <use style="fill:#8dd3c7;stroke:#8dd3c7;" x="187.831169" xlink:href="#m57f4086d0d" y="136.796049"/>
     <use style="fill:#8dd3c7;stroke:#8dd3c7;" x="198.183673" xlink:href="#m57f4086d0d" y="160.038121"/>
     <use style="fill:#8dd3c7;stroke:#8dd3c7;" x="208.536178" xlink:href="#m57f4086d0d" y="179.434898"/>
     <use style="fill:#8dd3c7;stroke:#8dd3c7;" x="218.888683" xlink:href="#m57f4086d0d" y="176.219783"/>
     <use style="fill:#8dd3c7;stroke:#8dd3c7;" x="229.241187" xlink:href="#m57f4086d0d" y="195.909142"/>
     <use style="fill:#8dd3c7;stroke:#8dd3c7;" x="239.593692" xlink:href="#m57f4086d0d" y="180.399146"/>
     <use style="fill:#8dd3c7;stroke:#8dd3c7;" x="249.946197" xlink:href="#m57f4086d0d" y="201.038358"/>
     <use style="fill:#8dd3c7;stroke:#8dd3c7;" x="260.298701" xlink:href="#m57f4086d0d" y="201.596655"/>
     <use style="fill:#8dd3c7;stroke:#8dd3c7;" x="270.651206" xlink:href="#m57f4086d0d" y="216.291803"/>
     <use style="fill:#8dd3c7;stroke:#8dd3c7;" x="281.003711" xlink:href="#m57f4086d0d" y="210.94736"/>
     <use style="fill:#8dd3c7;stroke:#8dd3c7;" x="291.356215" xlink:href="#m57f4086d0d" y="229.168473"/>
     <use style="fill:#8dd3c7;stroke:#8dd3c7;" x="301.70872" xlink:href="#m57f4086d0d" y="224.921707"/>
     <use style="fill:#8dd3c7;stroke:#8dd3c7;" x="312.061224" xlink:href="#m57f4086d0d" y="226.761142"/>
     <use style="fill:#8dd3c7;stroke:#8dd3c7;" x="322.413729" xlink:href="#m57f4086d0d" y="231.863783"/>
     <use style="fill:#8dd3c7;stroke:#8dd3c7;" x="332.766234" xlink:href="#m57f4086d0d" y="243.671193"/>
     <use style="fill:#8dd3c7;stroke:#8dd3c7;" x="343.118738" xlink:href="#m57f4086d0d" y="234.690334"/>
     <use style="fill:#8dd3c7;stroke:#8dd3c7;" x="353.471243" xlink:href="#m57f4086d0d" y="232.201394"/>
     <use style="fill:#8dd3c7;stroke:#8dd3c7;" x="363.823748" xlink:href="#m57f4086d0d" y="244.212269"/>
     <use style="fill:#8dd3c7;stroke:#8dd3c7;" x="374.176252" xlink:href="#m57f4086d0d" y="253.343936"/>
     <use style="fill:#8dd3c7;stroke:#8dd3c7;" x="384.528757" xlink:href="#m57f4086d0d" y="242.72188"/>
     <use style="fill:#8dd3c7;stroke:#8dd3c7;" x="394.881262" xlink:href="#m57f4086d0d" y="256.021782"/>
     <use style="fill:#8dd3c7;stroke:#8dd3c7;" x="405.233766" xlink:href="#m57f4086d0d" y="241.748337"/>
     <use style="fill:#8dd3c7;stroke:#8dd3c7;" x="415.586271" xlink:href="#m57f4086d0d" y="281.489293"/>
     <use style="fill:#8dd3c7;stroke:#8dd3c7;" x="425.938776" xlink:href="#m57f4086d0d" y="265.045441"/>
     <use style="fill:#8dd3c7;stroke:#8dd3c7;" x="436.29128" xlink:href="#m57f4086d0d" y="244.286686"/>
     <use style="fill:#8dd3c7;stroke:#8dd3c7;" x="446.643785" xlink:href="#m57f4086d0d" y="265.013541"/>
     <use style="fill:#8dd3c7;stroke:#8dd3c7;" x="456.996289" xlink:href="#m57f4086d0d" y="251.968322"/>
     <use style="fill:#8dd3c7;stroke:#8dd3c7;" x="467.348794" xlink:href="#m57f4086d0d" y="262.939162"/>
     <use style="fill:#8dd3c7;stroke:#8dd3c7;" x="477.701299" xlink:href="#m57f4086d0d" y="282.539414"/>
     <use style="fill:#8dd3c7;stroke:#8dd3c7;" x="488.053803" xlink:href="#m57f4086d0d" y="268.426382"/>
     <use style="fill:#8dd3c7;stroke:#8dd3c7;" x="498.406308" xlink:href="#m57f4086d0d" y="270.242154"/>
     <use style="fill:#8dd3c7;stroke:#8dd3c7;" x="508.758813" xlink:href="#m57f4086d0d" y="267.036629"/>
     <use style="fill:#8dd3c7;stroke:#8dd3c7;" x="519.111317" xlink:href="#m57f4086d0d" y="266.494371"/>
     <use style="fill:#8dd3c7;stroke:#8dd3c7;" x="529.463822" xlink:href="#m57f4086d0d" y="267.867427"/>
     <use style="fill:#8dd3c7;stroke:#8dd3c7;" x="539.816327" xlink:href="#m57f4086d0d" y="281.280254"/>
     <use style="fill:#8dd3c7;stroke:#8dd3c7;" x="550.168831" xlink:href="#m57f4086d0d" y="272.392814"/>
     <use style="fill:#8dd3c7;stroke:#8dd3c7;" x="560.521336" xlink:href="#m57f4086d0d" y="272.845611"/>
     <use style="fill:#8dd3c7;stroke:#8dd3c7;" x="570.87384" xlink:href="#m57f4086d0d" y="276.196619"/>
     <use style="fill:#8dd3c7;stroke:#8dd3c7;" x="581.226345" xlink:href="#m57f4086d0d" y="283.142394"/>
     <use style="fill:#8dd3c7;stroke:#8dd3c7;" x="591.57885" xlink:href="#m57f4086d0d" y="287.738639"/>
     <use style="fill:#8dd3c7;stroke:#8dd3c7;" x="601.931354" xlink:href="#m57f4086d0d" y="280.007727"/>
     <use style="fill:#8dd3c7;stroke:#8dd3c7;" x="612.283859" xlink:href="#m57f4086d0d" y="270.945111"/>
     <use style="fill:#8dd3c7;stroke:#8dd3c7;" x="622.636364" xlink:href="#m57f4086d0d" y="302.645455"/>
    </g>
   </g>
   <g id="matplotlib.axis_1">
    <g id="xtick_1">
     <g id="line2d_1">
      <defs>
       <path d="M 0 0 
L 0 3.5 
" id="mc641fe56c1" style="stroke:#ffffff;stroke-width:0.8;"/>
      </defs>
      <g>
       <use style="fill:#ffffff;stroke:#ffffff;stroke-width:0.8;" x="155.411483" xlink:href="#mc641fe56c1" y="315"/>
      </g>
     </g>
     <g id="text_1">
      <!-- $\mathdefault{0.0025}$ -->
      <defs>
       <path d="M 42 31.640625 
C 42 37.75 41.90625 48.125 37.703125 56.109375 
C 34 63.109375 28.09375 65.59375 22.90625 65.59375 
C 18.09375 65.59375 12 63.40625 8.203125 56.203125 
C 4.203125 48.71875 3.796875 39.4375 3.796875 31.640625 
C 3.796875 25.953125 3.90625 17.28125 7 9.671875 
C 11.296875 -0.609375 19 -2 22.90625 -2 
C 27.5 -2 34.5 -0.109375 38.59375 9.375 
C 41.59375 16.28125 42 24.359375 42 31.640625 
z
M 22.90625 -0.40625 
C 16.5 -0.40625 12.703125 5.078125 11.296875 12.6875 
C 10.203125 18.5625 10.203125 27.15625 10.203125 32.75 
C 10.203125 40.4375 10.203125 46.828125 11.5 52.921875 
C 13.40625 61.390625 19 64 22.90625 64 
C 27 64 32.296875 61.296875 34.203125 53.125 
C 35.5 47.4375 35.59375 40.734375 35.59375 32.75 
C 35.59375 26.25 35.59375 18.265625 34.40625 12.375 
C 32.296875 1.484375 26.40625 -0.40625 22.90625 -0.40625 
z
" id="CMR17-48"/>
       <path d="M 18.40625 4.796875 
C 18.40625 7.6875 16 9.671875 13.59375 9.671875 
C 10.703125 9.671875 8.703125 7.28125 8.703125 4.890625 
C 8.703125 2 11.09375 0 13.5 0 
C 16.40625 0 18.40625 2.390625 18.40625 4.796875 
z
" id="CMMI12-58"/>
       <path d="M 41.703125 15.453125 
L 39.90625 15.453125 
C 38.90625 8.375 38.09375 7.171875 37.703125 6.5625 
C 37.203125 5.765625 30 5.765625 28.59375 5.765625 
L 9.40625 5.765625 
C 13 9.671875 20 16.75 28.5 24.953125 
C 34.59375 30.734375 41.703125 37.53125 41.703125 47.421875 
C 41.703125 59.21875 32.296875 66 21.796875 66 
C 10.796875 66 4.09375 56.3125 4.09375 47.34375 
C 4.09375 43.4375 7 42.9375 8.203125 42.9375 
C 9.203125 42.9375 12.203125 43.546875 12.203125 47.03125 
C 12.203125 50.109375 9.59375 51 8.203125 51 
C 7.59375 51 7 50.90625 6.59375 50.703125 
C 8.5 59.21875 14.296875 63.40625 20.40625 63.40625 
C 29.09375 63.40625 34.796875 56.515625 34.796875 47.421875 
C 34.796875 38.734375 29.703125 31.25 24 24.75 
L 4.09375 2.28125 
L 4.09375 0 
L 39.296875 0 
z
" id="CMR17-50"/>
       <path d="M 11.40625 57.6875 
C 12.40625 57.28125 16.5 56 20.703125 56 
C 30 56 35.09375 61.109375 38 64.0625 
C 38 64.953125 38 65.5 37.40625 65.5 
C 37.296875 65.5 37.09375 65.5 36.296875 65.046875 
C 32.796875 63.40625 28.703125 62.078125 23.703125 62.078125 
C 20.703125 62.078125 16.203125 62.484375 11.296875 64.671875 
C 10.203125 65.171875 10 65.171875 9.90625 65.171875 
C 9.40625 65.171875 9.296875 65.0625 9.296875 63.078125 
L 9.296875 34.421875 
C 9.296875 32.640625 9.296875 32.140625 10.296875 32.140625 
C 10.796875 32.140625 11 32.34375 11.5 33.03125 
C 14.703125 37.515625 19.09375 39.40625 24.09375 39.40625 
C 27.59375 39.40625 35.09375 37.21875 35.09375 20.140625 
C 35.09375 16.953125 35.09375 11.171875 32.09375 6.578125 
C 29.59375 2.484375 25.703125 0.390625 21.40625 0.390625 
C 14.796875 0.390625 8.09375 5 6.296875 12.71875 
C 6.703125 12.609375 7.5 12.421875 7.90625 12.421875 
C 9.203125 12.421875 11.703125 13.125 11.703125 16.21875 
C 11.703125 18.90625 9.796875 20 7.90625 20 
C 5.59375 20 4.09375 18.59375 4.09375 15.796875 
C 4.09375 7.09375 11 -2 21.59375 -2 
C 31.90625 -2 41.703125 6.875 41.703125 19.75 
C 41.703125 31.71875 33.90625 41 24.203125 41 
C 19.09375 41 14.796875 39.109375 11.40625 35.53125 
z
" id="CMR17-53"/>
      </defs>
      <g style="fill:#ffffff;" transform="translate(131.134275 335.145148)scale(0.19 -0.19)">
       <use transform="scale(0.996264)" xlink:href="#CMR17-48"/>
       <use transform="translate(45.690477 0)scale(0.996264)" xlink:href="#CMMI12-58"/>
       <use transform="translate(72.787654 0)scale(0.996264)" xlink:href="#CMR17-48"/>
       <use transform="translate(118.478131 0)scale(0.996264)" xlink:href="#CMR17-48"/>
       <use transform="translate(164.168608 0)scale(0.996264)" xlink:href="#CMR17-50"/>
       <use transform="translate(209.859086 0)scale(0.996264)" xlink:href="#CMR17-53"/>
      </g>
     </g>
    </g>
    <g id="xtick_2">
     <g id="line2d_2">
      <g>
       <use style="fill:#ffffff;stroke:#ffffff;stroke-width:0.8;" x="222.157895" xlink:href="#mc641fe56c1" y="315"/>
      </g>
     </g>
     <g id="text_2">
      <!-- $\mathdefault{0.0050}$ -->
      <g style="fill:#ffffff;" transform="translate(197.880686 335.145148)scale(0.19 -0.19)">
       <use transform="scale(0.996264)" xlink:href="#CMR17-48"/>
       <use transform="translate(45.690477 0)scale(0.996264)" xlink:href="#CMMI12-58"/>
       <use transform="translate(72.787654 0)scale(0.996264)" xlink:href="#CMR17-48"/>
       <use transform="translate(118.478131 0)scale(0.996264)" xlink:href="#CMR17-48"/>
       <use transform="translate(164.168608 0)scale(0.996264)" xlink:href="#CMR17-53"/>
       <use transform="translate(209.859086 0)scale(0.996264)" xlink:href="#CMR17-48"/>
      </g>
     </g>
    </g>
    <g id="xtick_3">
     <g id="line2d_3">
      <g>
       <use style="fill:#ffffff;stroke:#ffffff;stroke-width:0.8;" x="288.904306" xlink:href="#mc641fe56c1" y="315"/>
      </g>
     </g>
     <g id="text_3">
      <!-- $\mathdefault{0.0075}$ -->
      <defs>
       <path d="M 45.09375 61.578125 
L 45.09375 63.765625 
L 21.59375 63.765625 
C 9.90625 63.765625 9.703125 65.078125 9.296875 67 
L 7.5 67 
L 4.59375 48.34375 
L 6.40625 48.34375 
C 6.703125 50.234375 7.40625 55.3125 8.59375 57.203125 
C 9.203125 58 16.59375 58 18.296875 58 
L 40.296875 58 
L 29.203125 41.578125 
C 21.796875 30.53125 16.703125 15.609375 16.703125 2.578125 
C 16.703125 1.390625 16.703125 -2 20.296875 -2 
C 23.90625 -2 23.90625 1.390625 23.90625 2.671875 
L 23.90625 7.265625 
C 23.90625 23.5625 26.703125 34.3125 31.296875 41.1875 
z
" id="CMR17-55"/>
      </defs>
      <g style="fill:#ffffff;" transform="translate(264.627098 335.145148)scale(0.19 -0.19)">
       <use transform="scale(0.996264)" xlink:href="#CMR17-48"/>
       <use transform="translate(45.690477 0)scale(0.996264)" xlink:href="#CMMI12-58"/>
       <use transform="translate(72.787654 0)scale(0.996264)" xlink:href="#CMR17-48"/>
       <use transform="translate(118.478131 0)scale(0.996264)" xlink:href="#CMR17-48"/>
       <use transform="translate(164.168608 0)scale(0.996264)" xlink:href="#CMR17-55"/>
       <use transform="translate(209.859086 0)scale(0.996264)" xlink:href="#CMR17-53"/>
      </g>
     </g>
    </g>
    <g id="xtick_4">
     <g id="line2d_4">
      <g>
       <use style="fill:#ffffff;stroke:#ffffff;stroke-width:0.8;" x="355.650718" xlink:href="#mc641fe56c1" y="315"/>
      </g>
     </g>
     <g id="text_4">
      <!-- $\mathdefault{0.0100}$ -->
      <defs>
       <path d="M 26.59375 63.40625 
C 26.59375 65.5 26.5 65.5 25.09375 65.5 
C 21.203125 61.1875 15.296875 59.796875 9.703125 59.796875 
C 9.40625 59.796875 8.90625 59.796875 8.796875 59.5 
C 8.703125 59.296875 8.703125 59.09375 8.703125 57 
C 11.796875 57 17 57.59375 21 59.984375 
L 21 7.203125 
C 21 3.6875 20.796875 2.5 12.203125 2.5 
L 9.203125 2.5 
L 9.203125 0 
C 14 0 19 0 23.796875 0 
C 28.59375 0 33.59375 0 38.40625 0 
L 38.40625 2.5 
L 35.40625 2.5 
C 26.796875 2.5 26.59375 3.59375 26.59375 7.15625 
z
" id="CMR17-49"/>
      </defs>
      <g style="fill:#ffffff;" transform="translate(331.373509 335.145148)scale(0.19 -0.19)">
       <use transform="scale(0.996264)" xlink:href="#CMR17-48"/>
       <use transform="translate(45.690477 0)scale(0.996264)" xlink:href="#CMMI12-58"/>
       <use transform="translate(72.787654 0)scale(0.996264)" xlink:href="#CMR17-48"/>
       <use transform="translate(118.478131 0)scale(0.996264)" xlink:href="#CMR17-49"/>
       <use transform="translate(164.168608 0)scale(0.996264)" xlink:href="#CMR17-48"/>
       <use transform="translate(209.859086 0)scale(0.996264)" xlink:href="#CMR17-48"/>
      </g>
     </g>
    </g>
    <g id="xtick_5">
     <g id="line2d_5">
      <g>
       <use style="fill:#ffffff;stroke:#ffffff;stroke-width:0.8;" x="422.397129" xlink:href="#mc641fe56c1" y="315"/>
      </g>
     </g>
     <g id="text_5">
      <!-- $\mathdefault{0.0125}$ -->
      <g style="fill:#ffffff;" transform="translate(398.119921 335.145148)scale(0.19 -0.19)">
       <use transform="scale(0.996264)" xlink:href="#CMR17-48"/>
       <use transform="translate(45.690477 0)scale(0.996264)" xlink:href="#CMMI12-58"/>
       <use transform="translate(72.787654 0)scale(0.996264)" xlink:href="#CMR17-48"/>
       <use transform="translate(118.478131 0)scale(0.996264)" xlink:href="#CMR17-49"/>
       <use transform="translate(164.168608 0)scale(0.996264)" xlink:href="#CMR17-50"/>
       <use transform="translate(209.859086 0)scale(0.996264)" xlink:href="#CMR17-53"/>
      </g>
     </g>
    </g>
    <g id="xtick_6">
     <g id="line2d_6">
      <g>
       <use style="fill:#ffffff;stroke:#ffffff;stroke-width:0.8;" x="489.143541" xlink:href="#mc641fe56c1" y="315"/>
      </g>
     </g>
     <g id="text_6">
      <!-- $\mathdefault{0.0150}$ -->
      <g style="fill:#ffffff;" transform="translate(464.866332 335.145148)scale(0.19 -0.19)">
       <use transform="scale(0.996264)" xlink:href="#CMR17-48"/>
       <use transform="translate(45.690477 0)scale(0.996264)" xlink:href="#CMMI12-58"/>
       <use transform="translate(72.787654 0)scale(0.996264)" xlink:href="#CMR17-48"/>
       <use transform="translate(118.478131 0)scale(0.996264)" xlink:href="#CMR17-49"/>
       <use transform="translate(164.168608 0)scale(0.996264)" xlink:href="#CMR17-53"/>
       <use transform="translate(209.859086 0)scale(0.996264)" xlink:href="#CMR17-48"/>
      </g>
     </g>
    </g>
    <g id="xtick_7">
     <g id="line2d_7">
      <g>
       <use style="fill:#ffffff;stroke:#ffffff;stroke-width:0.8;" x="555.889952" xlink:href="#mc641fe56c1" y="315"/>
      </g>
     </g>
     <g id="text_7">
      <!-- $\mathdefault{0.0175}$ -->
      <g style="fill:#ffffff;" transform="translate(531.612744 335.145148)scale(0.19 -0.19)">
       <use transform="scale(0.996264)" xlink:href="#CMR17-48"/>
       <use transform="translate(45.690477 0)scale(0.996264)" xlink:href="#CMMI12-58"/>
       <use transform="translate(72.787654 0)scale(0.996264)" xlink:href="#CMR17-48"/>
       <use transform="translate(118.478131 0)scale(0.996264)" xlink:href="#CMR17-49"/>
       <use transform="translate(164.168608 0)scale(0.996264)" xlink:href="#CMR17-55"/>
       <use transform="translate(209.859086 0)scale(0.996264)" xlink:href="#CMR17-53"/>
      </g>
     </g>
    </g>
    <g id="xtick_8">
     <g id="line2d_8">
      <g>
       <use style="fill:#ffffff;stroke:#ffffff;stroke-width:0.8;" x="622.636364" xlink:href="#mc641fe56c1" y="315"/>
      </g>
     </g>
     <g id="text_8">
      <!-- $\mathdefault{0.0200}$ -->
      <g style="fill:#ffffff;" transform="translate(598.359155 335.145148)scale(0.19 -0.19)">
       <use transform="scale(0.996264)" xlink:href="#CMR17-48"/>
       <use transform="translate(45.690477 0)scale(0.996264)" xlink:href="#CMMI12-58"/>
       <use transform="translate(72.787654 0)scale(0.996264)" xlink:href="#CMR17-48"/>
       <use transform="translate(118.478131 0)scale(0.996264)" xlink:href="#CMR17-50"/>
       <use transform="translate(164.168608 0)scale(0.996264)" xlink:href="#CMR17-48"/>
       <use transform="translate(209.859086 0)scale(0.996264)" xlink:href="#CMR17-48"/>
      </g>
     </g>
    </g>
    <g id="text_9">
     <!-- $\displaystyle\tau_{\text{ref}}$ (ms) -->
     <defs>
      <path d="M 28.703125 37.625 
L 45.296875 37.625 
C 46.59375 37.625 49.90625 37.625 49.90625 40.8125 
C 49.90625 43 48 43 46.203125 43 
L 18.703125 43 
C 16.40625 43 13 43 8.40625 38.125 
C 5.796875 35.234375 2.59375 29.953125 2.59375 29.359375 
C 2.59375 28.765625 3.09375 28.5625 3.703125 28.5625 
C 4.40625 28.5625 4.5 28.859375 5 29.453125 
C 10.203125 37.625 15.40625 37.625 17.90625 37.625 
L 26.203125 37.625 
L 15.796875 3.484375 
C 15.296875 1.984375 15.296875 1.78125 15.296875 1.484375 
C 15.296875 0.390625 16 -1 18 -1 
C 21.09375 -1 21.59375 1.6875 21.90625 3.171875 
z
" id="CMMI12-28"/>
      <path d="M 14.90625 21.296875 
C 14.90625 30.703125 21.796875 37 30.59375 37 
L 30.59375 43.578125 
C 24.203125 43.578125 18.203125 40.390625 14.59375 35.203125 
L 14.59375 43.09375 
L 7.5 43.09375 
L 7.5 0 
L 14.90625 0 
z
" id="CMSS17-114"/>
      <path d="M 39.09375 21.515625 
C 39.09375 24.84375 38.90625 31.296875 35.703125 36.640625 
C 32.203125 42.390625 26.5 44 22.203125 44 
C 11.796875 44 3 34.1875 3 21.484375 
C 3 9.09375 12.09375 -1 23.59375 -1 
C 28.09375 -1 33.59375 0.296875 38.59375 3.875 
C 38.59375 4.28125 38.40625 6.46875 38.296875 6.5625 
C 38.296875 6.765625 38 9.84375 38 10.25 
C 33.203125 6.359375 27.703125 5.078125 23.703125 5.078125 
C 17.296875 5.078125 10.40625 10.421875 10.09375 21.515625 
z
M 10.90625 27 
C 12.203125 32.5625 16.59375 37.828125 22.203125 37.828125 
C 23.703125 37.828125 30.703125 37.828125 32.5 27 
z
" id="CMSS17-101"/>
      <path d="M 16.796875 37 
L 26.90625 37 
L 26.90625 42.765625 
L 16.59375 42.765625 
L 16.59375 55.609375 
C 16.59375 62.71875 22 63.9375 25.09375 63.9375 
C 26.09375 63.9375 28.90625 63.9375 32.5 62.640625 
L 32.5 69.203125 
C 30.203125 69.703125 27.40625 70 25.203125 70 
C 15.90625 70 9.40625 62.390625 9.40625 52.484375 
L 9.40625 42.765625 
L 2.5 42.765625 
L 2.5 37 
L 9.40625 37 
L 9.40625 0 
L 16.796875 0 
z
" id="CMSS17-102"/>
      <path d="M 25.203125 74.5 
C 19.796875 69.015625 7.40625 56.265625 7.40625 24.8125 
C 7.40625 -6.765625 19.796875 -19.421875 25.203125 -25 
L 31.296875 -25 
C 19 -12.25 15 5.578125 15 24.703125 
C 15 43.71875 18.796875 61.65625 31.296875 74.5 
z
" id="CMSS17-40"/>
      <path d="M 67 29.328125 
C 67 36.0625 65.296875 44 54.09375 44 
C 46.59375 44 42.09375 39.3125 40.09375 36.421875 
C 38.296875 41.71875 34.09375 44 28.09375 44 
C 21.296875 44 17 40.125 14.703125 37.328125 
L 14.703125 43.09375 
L 7.40625 43.09375 
L 7.40625 0 
L 15 0 
L 15 24.359375 
C 15 30.296875 17.203125 37.9375 24.296875 37.9375 
C 33.40625 37.9375 33.40625 31.5 33.40625 28.578125 
L 33.40625 0 
L 41 0 
L 41 24.359375 
C 41 30.296875 43.203125 37.9375 50.296875 37.9375 
C 59.40625 37.9375 59.40625 31.5 59.40625 28.578125 
L 59.40625 0 
L 67 0 
z
" id="CMSS17-109"/>
      <path d="M 32.203125 41.046875 
C 26.296875 43.859375 21.703125 43.859375 18.703125 43.859375 
C 11.59375 43.859375 3.09375 41.375 3.09375 31.296875 
C 3.09375 21.234375 14.09375 19.03125 17.09375 18.421875 
C 21.703125 17.53125 26.796875 16.53125 26.796875 11.5625 
C 26.796875 5.265625 19.59375 5.265625 18.296875 5.265625 
C 14.296875 5.265625 8.796875 6.359375 3.796875 9.96875 
L 2.59375 3.28125 
C 8.296875 0 13.796875 -1 18.40625 -1 
C 30.703125 -1 33.796875 6.5 33.796875 12.203125 
C 33.796875 17.09375 31 20.390625 29.09375 21.890625 
C 25.796875 24.5 24.59375 24.796875 16.40625 26.5 
C 15 26.703125 10.09375 27.796875 10.09375 32.28125 
C 10.09375 38 16.40625 38 17.796875 38 
C 24.296875 38 28.296875 35.984375 31 34.5 
z
" id="CMSS17-115"/>
      <path d="M 11.296875 -25 
C 16.703125 -19.515625 29.09375 -6.765625 29.09375 24.703125 
C 29.09375 56.265625 16.703125 68.921875 11.296875 74.5 
L 5.203125 74.5 
C 17.5 61.75 21.5 43.921875 21.5 24.8125 
C 21.5 5.78125 17.703125 -12.15625 5.203125 -25 
z
" id="CMSS17-41"/>
     </defs>
     <g style="fill:#ffffff;" transform="translate(337.303828 357.006711)scale(0.19 -0.19)">
      <use transform="scale(0.996264)" xlink:href="#CMMI12-28"/>
      <use transform="translate(42.363841 -14.943915)scale(0.697382)" xlink:href="#CMSS17-114"/>
      <use transform="translate(64.70058 -14.943915)scale(0.697382)" xlink:href="#CMSS17-101"/>
      <use transform="translate(93.847626 -14.943915)scale(0.697382)" xlink:href="#CMSS17-102"/>
      <use transform="translate(145.61345 0)scale(0.996264)" xlink:href="#CMSS17-40"/>
      <use transform="translate(182.047364 0)scale(0.996264)" xlink:href="#CMSS17-109"/>
      <use transform="translate(256.276618 0)scale(0.996264)" xlink:href="#CMSS17-115"/>
      <use transform="translate(292.19016 0)scale(0.996264)" xlink:href="#CMSS17-41"/>
     </g>
    </g>
   </g>
   <g id="matplotlib.axis_2">
    <g id="ytick_1">
     <g id="line2d_9">
      <defs>
       <path d="M 0 0 
L -3.5 0 
" id="m773501a410" style="stroke:#ffffff;stroke-width:0.8;"/>
      </defs>
      <g>
       <use style="fill:#ffffff;stroke:#ffffff;stroke-width:0.8;" x="90" xlink:href="#m773501a410" y="308.692537"/>
      </g>
     </g>
     <g id="text_10">
      <!-- $\mathdefault{0.60}$ -->
      <defs>
       <path d="M 10.59375 34 
C 10.59375 57.65625 21.796875 63 28.296875 63 
C 30.40625 63 35.5 62.640625 37.5 59 
C 35.90625 59 32.90625 59 32.90625 55.515625 
C 32.90625 52.828125 35.09375 51.921875 36.5 51.921875 
C 37.40625 51.921875 40.09375 52.3125 40.09375 55.625 
C 40.09375 61.78125 35.09375 65.296875 28.203125 65.296875 
C 16.296875 65.296875 3.796875 52.96875 3.796875 31 
C 3.796875 3.953125 15.09375 -2 23.09375 -2 
C 32.796875 -2 42 6.671875 42 20.046875 
C 42 32.515625 33.90625 41.59375 23.703125 41.59375 
C 17.59375 41.59375 13.09375 37.609375 10.59375 30.625 
z
M 23.09375 0.390625 
C 10.796875 0.390625 10.796875 18.75 10.796875 22.4375 
C 10.796875 29.625 14.203125 40 23.5 40 
C 25.203125 40 30.09375 40 33.40625 33.125 
C 35.203125 29.21875 35.203125 25.140625 35.203125 20.140625 
C 35.203125 14.75 35.203125 10.78125 33.09375 6.78125 
C 30.90625 2.671875 27.703125 0.390625 23.09375 0.390625 
z
" id="CMR17-54"/>
      </defs>
      <g style="fill:#ffffff;" transform="translate(51.807964 315.265111)scale(0.19 -0.19)">
       <use transform="scale(0.996264)" xlink:href="#CMR17-48"/>
       <use transform="translate(45.690477 0)scale(0.996264)" xlink:href="#CMMI12-58"/>
       <use transform="translate(72.787654 0)scale(0.996264)" xlink:href="#CMR17-54"/>
       <use transform="translate(118.478131 0)scale(0.996264)" xlink:href="#CMR17-48"/>
      </g>
     </g>
    </g>
    <g id="ytick_2">
     <g id="line2d_10">
      <g>
       <use style="fill:#ffffff;stroke:#ffffff;stroke-width:0.8;" x="90" xlink:href="#m773501a410" y="268.579459"/>
      </g>
     </g>
     <g id="text_11">
      <!-- $\mathdefault{0.65}$ -->
      <g style="fill:#ffffff;" transform="translate(51.807964 275.152034)scale(0.19 -0.19)">
       <use transform="scale(0.996264)" xlink:href="#CMR17-48"/>
       <use transform="translate(45.690477 0)scale(0.996264)" xlink:href="#CMMI12-58"/>
       <use transform="translate(72.787654 0)scale(0.996264)" xlink:href="#CMR17-54"/>
       <use transform="translate(118.478131 0)scale(0.996264)" xlink:href="#CMR17-53"/>
      </g>
     </g>
    </g>
    <g id="ytick_3">
     <g id="line2d_11">
      <g>
       <use style="fill:#ffffff;stroke:#ffffff;stroke-width:0.8;" x="90" xlink:href="#m773501a410" y="228.466382"/>
      </g>
     </g>
     <g id="text_12">
      <!-- $\mathdefault{0.70}$ -->
      <g style="fill:#ffffff;" transform="translate(51.807964 235.038956)scale(0.19 -0.19)">
       <use transform="scale(0.996264)" xlink:href="#CMR17-48"/>
       <use transform="translate(45.690477 0)scale(0.996264)" xlink:href="#CMMI12-58"/>
       <use transform="translate(72.787654 0)scale(0.996264)" xlink:href="#CMR17-55"/>
       <use transform="translate(118.478131 0)scale(0.996264)" xlink:href="#CMR17-48"/>
      </g>
     </g>
    </g>
    <g id="ytick_4">
     <g id="line2d_12">
      <g>
       <use style="fill:#ffffff;stroke:#ffffff;stroke-width:0.8;" x="90" xlink:href="#m773501a410" y="188.353305"/>
      </g>
     </g>
     <g id="text_13">
      <!-- $\mathdefault{0.75}$ -->
      <g style="fill:#ffffff;" transform="translate(51.807964 194.925879)scale(0.19 -0.19)">
       <use transform="scale(0.996264)" xlink:href="#CMR17-48"/>
       <use transform="translate(45.690477 0)scale(0.996264)" xlink:href="#CMMI12-58"/>
       <use transform="translate(72.787654 0)scale(0.996264)" xlink:href="#CMR17-55"/>
       <use transform="translate(118.478131 0)scale(0.996264)" xlink:href="#CMR17-53"/>
      </g>
     </g>
    </g>
    <g id="ytick_5">
     <g id="line2d_13">
      <g>
       <use style="fill:#ffffff;stroke:#ffffff;stroke-width:0.8;" x="90" xlink:href="#m773501a410" y="148.240227"/>
      </g>
     </g>
     <g id="text_14">
      <!-- $\mathdefault{0.80}$ -->
      <defs>
       <path d="M 27.203125 35.375 
C 33.5 38.546875 39.90625 43.328125 39.90625 50.984375 
C 39.90625 60.015625 31.09375 65.296875 23 65.296875 
C 13.90625 65.296875 5.90625 58.734375 5.90625 49.6875 
C 5.90625 47.203125 6.5 42.921875 10.40625 39.140625 
C 11.40625 38.15625 15.59375 35.171875 18.296875 33.28125 
C 13.796875 30.984375 3.296875 25.53125 3.296875 14.59375 
C 3.296875 4.359375 13.09375 -2 22.796875 -2 
C 33.5 -2 42.5 5.65625 42.5 15.78125 
C 42.5 24.84375 36.40625 29.015625 32.40625 31.703125 
z
M 14.09375 44.09375 
C 13.296875 44.59375 9.296875 47.671875 9.296875 52.359375 
C 9.296875 58.421875 15.59375 63 22.796875 63 
C 30.703125 63 36.5 57.4375 36.5 50.96875 
C 36.5 41.703125 26.09375 36.421875 25.59375 36.421875 
C 25.5 36.421875 25.40625 36.421875 24.59375 37.03125 
z
M 32.5 23.734375 
C 34 22.640625 38.796875 19.375 38.796875 13.296875 
C 38.796875 5.953125 31.40625 0.390625 23 0.390625 
C 13.90625 0.390625 7 6.84375 7 14.6875 
C 7 22.546875 13.09375 29.09375 20 32.1875 
z
" id="CMR17-56"/>
      </defs>
      <g style="fill:#ffffff;" transform="translate(51.807964 154.812802)scale(0.19 -0.19)">
       <use transform="scale(0.996264)" xlink:href="#CMR17-48"/>
       <use transform="translate(45.690477 0)scale(0.996264)" xlink:href="#CMMI12-58"/>
       <use transform="translate(72.787654 0)scale(0.996264)" xlink:href="#CMR17-56"/>
       <use transform="translate(118.478131 0)scale(0.996264)" xlink:href="#CMR17-48"/>
      </g>
     </g>
    </g>
    <g id="ytick_6">
     <g id="line2d_14">
      <g>
       <use style="fill:#ffffff;stroke:#ffffff;stroke-width:0.8;" x="90" xlink:href="#m773501a410" y="108.12715"/>
      </g>
     </g>
     <g id="text_15">
      <!-- $\mathdefault{0.85}$ -->
      <g style="fill:#ffffff;" transform="translate(51.807964 114.699724)scale(0.19 -0.19)">
       <use transform="scale(0.996264)" xlink:href="#CMR17-48"/>
       <use transform="translate(45.690477 0)scale(0.996264)" xlink:href="#CMMI12-58"/>
       <use transform="translate(72.787654 0)scale(0.996264)" xlink:href="#CMR17-56"/>
       <use transform="translate(118.478131 0)scale(0.996264)" xlink:href="#CMR17-53"/>
      </g>
     </g>
    </g>
    <g id="ytick_7">
     <g id="line2d_15">
      <g>
       <use style="fill:#ffffff;stroke:#ffffff;stroke-width:0.8;" x="90" xlink:href="#m773501a410" y="68.014073"/>
      </g>
     </g>
     <g id="text_16">
      <!-- $\mathdefault{0.90}$ -->
      <defs>
       <path d="M 35.203125 29.125 
C 35.203125 7.25 26.09375 0.484375 18.59375 0.484375 
C 16.296875 0.484375 10.703125 0.484375 8.40625 4.59375 
C 11 4.1875 12.90625 5.578125 12.90625 8.09375 
C 12.90625 10.8125 10.703125 11.703125 9.296875 11.703125 
C 8.40625 11.703125 5.703125 11.296875 5.703125 7.90625 
C 5.703125 1.109375 11.59375 -2 18.796875 -2 
C 30.296875 -2 42 10.53125 42 32.390625 
C 42 59.640625 30.796875 65.296875 23.203125 65.296875 
C 13.296875 65.296875 3.796875 56.6875 3.796875 43.40625 
C 3.796875 31.109375 11.90625 22 22.09375 22 
C 30.5 22 34.203125 29.734375 35.203125 33 
z
M 22.296875 23.59375 
C 19.59375 23.59375 15.796875 24.09375 12.703125 30.03125 
C 10.59375 33.890625 10.59375 38.453125 10.59375 43.296875 
C 10.59375 49.15625 10.59375 53.203125 13.40625 57.5625 
C 14.796875 59.640625 17.40625 63 23.203125 63 
C 35 63 35 45.078125 35 41.125 
C 35 34.09375 31.796875 23.59375 22.296875 23.59375 
z
" id="CMR17-57"/>
      </defs>
      <g style="fill:#ffffff;" transform="translate(51.807964 74.586647)scale(0.19 -0.19)">
       <use transform="scale(0.996264)" xlink:href="#CMR17-48"/>
       <use transform="translate(45.690477 0)scale(0.996264)" xlink:href="#CMMI12-58"/>
       <use transform="translate(72.787654 0)scale(0.996264)" xlink:href="#CMR17-57"/>
       <use transform="translate(118.478131 0)scale(0.996264)" xlink:href="#CMR17-48"/>
      </g>
     </g>
    </g>
    <g id="text_17">
     <!-- Coefficient of variation -->
     <defs>
      <path d="M 54.703125 11.15625 
C 48 6.671875 44.90625 5.375 36.796875 5.375 
C 22.796875 5.375 14.59375 20.359375 14.59375 34.046875 
C 14.59375 48.625 23 63 37.203125 63 
C 43.59375 63 47.796875 61.21875 52.90625 58.046875 
L 54.296875 65.890625 
C 49.5 68.28125 43.40625 69.375 37.296875 69.375 
C 18.09375 69.375 6.203125 51.8125 6.203125 34.046875 
C 6.203125 14.484375 20.296875 -1 36.296875 -1 
C 44.90625 -1 47.90625 -0.296875 55.296875 4.375 
z
" id="CMSS17-67"/>
      <path d="M 44.203125 21.1875 
C 44.203125 34 34.703125 44 23.5 44 
C 12 44 2.703125 33.703125 2.703125 21.1875 
C 2.703125 8.5 12.296875 -1 23.40625 -1 
C 34.796875 -1 44.203125 8.796875 44.203125 21.1875 
z
M 23.5 5.265625 
C 16.40625 5.265625 10.296875 11.078125 10.296875 22 
C 10.296875 33.609375 17.40625 37.921875 23.40625 37.921875 
C 29.90625 37.921875 36.59375 33.21875 36.59375 22 
C 36.59375 10.671875 30.09375 5.265625 23.5 5.265625 
z
" id="CMSS17-111"/>
      <path d="M 69.09375 69 
L 61.09375 69 
L 61.09375 61.03125 
L 69.09375 61.03125 
z
M 68.796875 42.765625 
L 61.40625 42.765625 
L 61.40625 0 
L 68.796875 0 
z
M 42.796875 37 
L 53.703125 37 
L 53.703125 42.765625 
L 42.59375 42.765625 
L 42.59375 55.90625 
C 42.59375 61.234375 45 63.9375 48.203125 63.9375 
C 50.40625 63.9375 52.5 63.15625 53.703125 62.375 
L 53.703125 69 
C 51.90625 69.703125 51.09375 70 48.203125 70 
C 40.703125 70 35.40625 62.421875 35.40625 52.75 
L 35.40625 0 
L 42.796875 0 
z
M 16.796875 37 
L 27.703125 37 
L 27.703125 42.765625 
L 16.59375 42.765625 
L 16.59375 55.703125 
C 16.59375 62.421875 20.703125 63.9375 23.59375 63.9375 
C 25.296875 63.9375 27.703125 63.59375 30 62.484375 
L 30 68.90625 
C 27.40625 70 27 70 23.59375 70 
C 15.40625 70 9.40625 62.484375 9.40625 52.59375 
L 9.40625 42.765625 
L 2.5 42.765625 
L 2.5 37 
L 9.40625 37 
L 9.40625 0 
L 16.796875 0 
z
" id="CMSS17-14"/>
      <path d="M 38.5 39.703125 
C 38.5 40.390625 33.90625 42.40625 32.703125 42.796875 
C 29.40625 44 25.203125 44 24.09375 44 
C 11.09375 44 3.296875 32.703125 3.296875 21.296875 
C 3.296875 9.296875 12 -1 23.703125 -1 
C 30.40625 -1 35.203125 1.1875 39.09375 3.78125 
L 38.5 10.375 
C 34.203125 7.078125 29.203125 5.265625 23.796875 5.265625 
C 16 5.265625 10.90625 12.09375 10.90625 21.390625 
C 10.90625 28.609375 14.203125 37.71875 24.203125 37.71875 
C 29.703125 37.71875 32.796875 36.609375 37.40625 33.515625 
z
" id="CMSS17-99"/>
      <path d="M 15.296875 65.359375 
L 6.90625 65.359375 
L 6.90625 57 
L 15.296875 57 
z
M 14.796875 42.796875 
L 7.40625 42.796875 
L 7.40625 0 
L 14.796875 0 
z
" id="CMSS17-105"/>
      <path d="M 40.90625 29.328125 
C 40.90625 35.671875 39.40625 44 28.09375 44 
C 21.703125 44 17.5 40.71875 14.703125 37.328125 
L 14.703125 43.09375 
L 7.40625 43.09375 
L 7.40625 0 
L 15 0 
L 15 24.359375 
C 15 30.6875 17.40625 37.9375 24.203125 37.9375 
C 33 37.9375 33.296875 32 33.296875 28.578125 
L 33.296875 0 
L 40.90625 0 
z
" id="CMSS17-110"/>
      <path d="M 16.703125 37 
L 29.703125 37 
L 29.703125 42.765625 
L 16.703125 42.765625 
L 16.703125 55 
L 9.59375 55 
L 9.59375 42.765625 
L 1.703125 42.765625 
L 1.703125 37 
L 9.40625 37 
L 9.40625 11.703125 
C 9.40625 6 10.703125 -1 17.296875 -1 
C 22.296875 -1 26.90625 0.390625 31.296875 2.6875 
L 29.703125 8.5625 
C 27.296875 6.46875 24.40625 5.265625 21.296875 5.265625 
C 16.90625 5.265625 16.703125 10.875 16.703125 13.375 
z
" id="CMSS17-116"/>
      <path d="M 41.796875 43 
L 34 43 
L 27.296875 24.3125 
C 25.203125 18.203125 22.203125 9.796875 21.703125 5.5 
L 21.59375 5.5 
C 21.40625 7.3125 20.59375 9.90625 20.09375 11.703125 
C 19.5 13.90625 18.703125 16.5 18.09375 18.3125 
L 9.296875 43 
L 1.296875 43 
L 17.09375 0 
L 26 0 
z
" id="CMSS17-118"/>
      <path d="M 37.59375 27.984375 
C 37.59375 37.375 30.90625 43.875 21.90625 43.875 
C 17.5 43.875 12.703125 43.078125 7.203125 39.890625 
L 7.796875 33.359375 
C 10.296875 35.125 14.59375 38 21.796875 38 
C 26.90625 38 30 34.0625 30 27.84375 
L 30 24 
C 14 24 4 19.34375 4 11.34375 
C 4 7.203125 6.5 -1 14.796875 -1 
C 16.296875 -1 24.40625 -1 30.203125 3.390625 
L 30.203125 -0.296875 
L 37.59375 -0.296875 
z
M 30 12.75 
C 30 10.953125 30 8.5625 27 6.78125 
C 24.40625 5.078125 21.09375 5.078125 19.703125 5.078125 
C 14.703125 5.078125 11.296875 7.984375 11.296875 11.625 
C 11.296875 18.921875 26.90625 18.921875 30 18.921875 
z
" id="CMSS17-97"/>
     </defs>
     <g style="fill:#ffffff;" transform="translate(44.126123 263.451186)rotate(-90)scale(0.19 -0.19)">
      <use transform="scale(0.996264)" xlink:href="#CMSS17-67"/>
      <use transform="translate(59.855772 0)scale(0.996264)" xlink:href="#CMSS17-111"/>
      <use transform="translate(109.301834 0)scale(0.996264)" xlink:href="#CMSS17-101"/>
      <use transform="translate(150.940656 0)scale(0.996264)" xlink:href="#CMSS17-14"/>
      <use transform="translate(227.091598 0)scale(0.996264)" xlink:href="#CMSS17-99"/>
      <use transform="translate(268.73042 0)scale(0.996264)" xlink:href="#CMSS17-105"/>
      <use transform="translate(290.911143 0)scale(0.996264)" xlink:href="#CMSS17-101"/>
      <use transform="translate(332.549965 0)scale(0.996264)" xlink:href="#CMSS17-110"/>
      <use transform="translate(380.754908 0)scale(0.996264)" xlink:href="#CMSS17-116"/>
      <use transform="translate(445.815588 0)scale(0.996264)" xlink:href="#CMSS17-111"/>
      <use transform="translate(492.659211 0)scale(0.996264)" xlink:href="#CMSS17-102"/>
      <use transform="translate(552.514983 0)scale(0.996264)" xlink:href="#CMSS17-118"/>
      <use transform="translate(595.515125 0)scale(0.996264)" xlink:href="#CMSS17-97"/>
      <use transform="translate(637.834591 0)scale(0.996264)" xlink:href="#CMSS17-114"/>
      <use transform="translate(669.744364 0)scale(0.996264)" xlink:href="#CMSS17-105"/>
      <use transform="translate(691.925087 0)scale(0.996264)" xlink:href="#CMSS17-97"/>
      <use transform="translate(736.847007 0)scale(0.996264)" xlink:href="#CMSS17-116"/>
      <use transform="translate(770.678574 0)scale(0.996264)" xlink:href="#CMSS17-105"/>
      <use transform="translate(792.859297 0)scale(0.996264)" xlink:href="#CMSS17-111"/>
      <use transform="translate(839.702921 0)scale(0.996264)" xlink:href="#CMSS17-110"/>
     </g>
    </g>
   </g>
   <g id="patch_3">
    <path d="M 90 315 
L 90 43.2 
" style="fill:none;stroke:#ffffff;stroke-linecap:square;stroke-linejoin:miter;stroke-width:0.8;"/>
   </g>
   <g id="patch_4">
    <path d="M 648 315 
L 648 43.2 
" style="fill:none;stroke:#ffffff;stroke-linecap:square;stroke-linejoin:miter;stroke-width:0.8;"/>
   </g>
   <g id="patch_5">
    <path d="M 90 315 
L 648 315 
" style="fill:none;stroke:#ffffff;stroke-linecap:square;stroke-linejoin:miter;stroke-width:0.8;"/>
   </g>
   <g id="patch_6">
    <path d="M 90 43.2 
L 648 43.2 
" style="fill:none;stroke:#ffffff;stroke-linecap:square;stroke-linejoin:miter;stroke-width:0.8;"/>
   </g>
   <g id="text_18">
    <!-- $\displaystyle C_V$ for different $\displaystyle\tau_{\text{ref}}$ -->
    <defs>
     <path d="M 74.703125 69.109375 
C 74.703125 70 74 70 73.796875 70 
C 73.59375 70 73.203125 70 72.40625 69 
L 65.5 60.65625 
C 62 66.625 56.5 70 49 70 
C 27.40625 70 5 48.25 5 24.921875 
C 5 8.328125 16.703125 -2 31.296875 -2 
C 39.296875 -2 46.296875 1.375 52.09375 6.25 
C 60.796875 13.484375 63.40625 23.140625 63.40625 23.921875 
C 63.40625 24.8125 62.59375 24.8125 62.296875 24.8125 
C 61.40625 24.8125 61.296875 24.21875 61.09375 23.8125 
C 56.5 8.34375 43 0.890625 33 0.890625 
C 22.40625 0.890625 13.203125 7.640625 13.203125 21.734375 
C 13.203125 24.921875 14.203125 42.1875 25.5 55.1875 
C 31 61.546875 40.40625 67.109375 49.90625 67.109375 
C 60.90625 67.109375 65.796875 58.078125 65.796875 47.9375 
C 65.796875 45.359375 65.5 43.1875 65.5 42.78125 
C 65.5 41.890625 66.5 41.890625 66.796875 41.890625 
C 67.90625 41.890625 68 41.984375 68.40625 43.765625 
z
" id="CMMI12-67"/>
     <path d="M 61.90625 56.875 
C 65.296875 62.25 68.40625 64.625 73.5 65.03125 
C 74.5 65.125 75.296875 65.125 75.296875 66.90625 
C 75.296875 67.3125 75.09375 67.90625 74.203125 67.90625 
C 72.40625 67.90625 68.09375 67.90625 66.296875 67.90625 
C 63.40625 67.90625 60.40625 67.90625 57.59375 67.90625 
C 56.796875 67.90625 55.796875 67.90625 55.796875 66.03125 
C 55.796875 65.125 56.703125 65.03125 57.09375 65.03125 
C 60.796875 64.734375 61.203125 62.953125 61.203125 61.75 
C 61.203125 60.265625 59.796875 57.96875 59.703125 57.875 
L 28.296875 8.4375 
L 21.296875 62.015625 
C 21.296875 65 26.5 65 27.59375 65 
C 29.09375 65 30 65 30 66.90625 
C 30 67.90625 28.90625 67.90625 28.59375 67.90625 
C 26.90625 67.90625 24.90625 67.90625 23.203125 67.90625 
L 17.59375 67.90625 
C 10.296875 67.90625 7.296875 67.90625 7.203125 67.90625 
C 6.59375 67.90625 5.40625 67.90625 5.40625 66.09375 
C 5.40625 65 6.09375 65 7.703125 65 
C 12.796875 65 13.09375 64.09375 13.40625 61.625 
L 21.40625 0.375 
C 21.703125 -1.703125 21.703125 -2 23.09375 -2 
C 24.296875 -2 24.796875 -1.703125 25.796875 -0.125 
z
" id="CMMI12-86"/>
     <path d="M 40.796875 69 
L 33.40625 69 
L 33.40625 38.09375 
C 30.296875 40.671875 25.203125 43.0625 19.59375 43.0625 
C 10.5 43.0625 3.296875 33.296875 3.296875 21.046875 
C 3.296875 8.78125 10.40625 -1 19.296875 -1 
C 26.203125 -1 30.796875 2.6875 33.203125 4.78125 
L 33.203125 -0.203125 
L 40.796875 -0.203125 
z
M 33.203125 13.0625 
C 33.203125 11.671875 33.203125 10.203125 30.09375 7.53125 
C 28.09375 5.859375 25.703125 5.078125 23.40625 5.078125 
C 18 5.078125 10.90625 9 10.90625 20.9375 
C 10.90625 33.34375 18.90625 37 24.40625 37 
C 28.09375 37 31.09375 35.21875 33.203125 32.265625 
z
" id="CMSS17-100"/>
     <path d="M 16.796875 37 
L 27.09375 37 
L 27.09375 42.765625 
L 16.59375 42.765625 
L 16.59375 55.609375 
C 16.59375 62.515625 21.796875 63.9375 25.203125 63.9375 
C 28.703125 63.9375 31.59375 63.03125 32.703125 62.640625 
L 32.703125 69.203125 
C 31.59375 69.40625 28.59375 70 25.296875 70 
C 16.09375 70 9.40625 62.484375 9.40625 52.484375 
L 9.40625 42.765625 
L 2.5 42.765625 
L 2.5 37 
L 9.40625 37 
L 9.40625 0 
L 16.796875 0 
z
M 42.796875 37 
L 53.09375 37 
L 53.09375 42.765625 
L 42.59375 42.765625 
L 42.59375 55.609375 
C 42.59375 62.515625 47.796875 63.9375 51.203125 63.9375 
C 54.703125 63.9375 57.59375 63.03125 58.703125 62.640625 
L 58.703125 69.203125 
C 57.59375 69.40625 54.59375 70 51.296875 70 
C 42.09375 70 35.40625 62.515625 35.40625 52.546875 
L 35.40625 0 
L 42.796875 0 
z
" id="CMSS17-11"/>
    </defs>
    <g style="fill:#ffffff;" transform="translate(281.850713 37.2)scale(0.228 -0.228)">
     <use transform="scale(0.996264)" xlink:href="#CMMI12-67"/>
     <use transform="translate(69.792037 -14.943915)scale(0.697382)" xlink:href="#CMMI12-86"/>
     <use transform="translate(156.502152 0)scale(0.996264)" xlink:href="#CMSS17-102"/>
     <use transform="translate(185.128811 0)scale(0.996264)" xlink:href="#CMSS17-111"/>
     <use transform="translate(229.36998 0)scale(0.996264)" xlink:href="#CMSS17-114"/>
     <use transform="translate(292.508866 0)scale(0.996264)" xlink:href="#CMSS17-100"/>
     <use transform="translate(340.713809 0)scale(0.996264)" xlink:href="#CMSS17-105"/>
     <use transform="translate(362.894532 0)scale(0.996264)" xlink:href="#CMSS17-11"/>
     <use transform="translate(417.545502 0)scale(0.996264)" xlink:href="#CMSS17-101"/>
     <use transform="translate(459.184324 0)scale(0.996264)" xlink:href="#CMSS17-114"/>
     <use transform="translate(491.094097 0)scale(0.996264)" xlink:href="#CMSS17-101"/>
     <use transform="translate(532.732919 0)scale(0.996264)" xlink:href="#CMSS17-110"/>
     <use transform="translate(580.937862 0)scale(0.996264)" xlink:href="#CMSS17-116"/>
     <use transform="translate(645.998541 0)scale(0.996264)" xlink:href="#CMMI12-28"/>
     <use transform="translate(688.362382 -14.943915)scale(0.697382)" xlink:href="#CMSS17-114"/>
     <use transform="translate(710.699121 -14.943915)scale(0.697382)" xlink:href="#CMSS17-101"/>
     <use transform="translate(739.846167 -14.943915)scale(0.697382)" xlink:href="#CMSS17-102"/>
    </g>
   </g>
  </g>
 </g>
 <defs>
  <clipPath id="p80c1012692">
   <rect height="271.8" width="558" x="90" y="43.2"/>
  </clipPath>
 </defs>
</svg>
