<?xml version="1.0" encoding="utf-8" standalone="no"?>
<!DOCTYPE svg PUBLIC "-//W3C//DTD SVG 1.1//EN"
  "http://www.w3.org/Graphics/SVG/1.1/DTD/svg11.dtd">
<!-- Created with matplotlib (https://matplotlib.org/) -->
<svg height="360pt" version="1.1" viewBox="0 0 720 360" width="720pt" xmlns="http://www.w3.org/2000/svg" xmlns:xlink="http://www.w3.org/1999/xlink">
 <defs>
  <style type="text/css">
*{stroke-linecap:butt;stroke-linejoin:round;}
  </style>
 </defs>
 <g id="figure_1">
  <g id="patch_1">
   <path d="M 0 360 
L 720 360 
L 720 0 
L 0 0 
z
"/>
  </g>
  <g id="axes_1">
   <g id="patch_2">
    <path d="M 90 315 
L 648 315 
L 648 43.2 
L 90 43.2 
z
"/>
   </g>
   <g id="PathCollection_1">
    <defs>
     <path d="M 0 3 
C 0.795609 3 1.55874 2.683901 2.12132 2.12132 
C 2.683901 1.55874 3 0.795609 3 0 
C 3 -0.795609 2.683901 -1.55874 2.12132 -2.12132 
C 1.55874 -2.683901 0.795609 -3 0 -3 
C -0.795609 -3 -1.55874 -2.683901 -2.12132 -2.12132 
C -2.683901 -1.55874 -3 -0.795609 -3 0 
C -3 0.795609 -2.683901 1.55874 -2.12132 2.12132 
C -1.55874 2.683901 -0.795609 3 0 3 
z
" id="m8464b87209" style="stroke:#8dd3c7;"/>
    </defs>
    <g clip-path="url(#pf13a493384)">
     <use style="fill:#8dd3c7;stroke:#8dd3c7;" x="115.363636" xlink:href="#m8464b87209" y="163.947328"/>
     <use style="fill:#8dd3c7;stroke:#8dd3c7;" x="120.487603" xlink:href="#m8464b87209" y="160.97935"/>
     <use style="fill:#8dd3c7;stroke:#8dd3c7;" x="125.61157" xlink:href="#m8464b87209" y="160.640149"/>
     <use style="fill:#8dd3c7;stroke:#8dd3c7;" x="130.735537" xlink:href="#m8464b87209" y="169.305552"/>
     <use style="fill:#8dd3c7;stroke:#8dd3c7;" x="135.859504" xlink:href="#m8464b87209" y="167.787928"/>
     <use style="fill:#8dd3c7;stroke:#8dd3c7;" x="140.983471" xlink:href="#m8464b87209" y="146.826484"/>
     <use style="fill:#8dd3c7;stroke:#8dd3c7;" x="146.107438" xlink:href="#m8464b87209" y="165.714976"/>
     <use style="fill:#8dd3c7;stroke:#8dd3c7;" x="151.231405" xlink:href="#m8464b87209" y="175.687229"/>
     <use style="fill:#8dd3c7;stroke:#8dd3c7;" x="156.355372" xlink:href="#m8464b87209" y="181.171388"/>
     <use style="fill:#8dd3c7;stroke:#8dd3c7;" x="161.479339" xlink:href="#m8464b87209" y="187.868593"/>
     <use style="fill:#8dd3c7;stroke:#8dd3c7;" x="166.603306" xlink:href="#m8464b87209" y="200.736264"/>
     <use style="fill:#8dd3c7;stroke:#8dd3c7;" x="171.727273" xlink:href="#m8464b87209" y="173.991065"/>
     <use style="fill:#8dd3c7;stroke:#8dd3c7;" x="176.85124" xlink:href="#m8464b87209" y="152.777226"/>
     <use style="fill:#8dd3c7;stroke:#8dd3c7;" x="181.975207" xlink:href="#m8464b87209" y="158.672019"/>
     <use style="fill:#8dd3c7;stroke:#8dd3c7;" x="187.099174" xlink:href="#m8464b87209" y="212.26969"/>
     <use style="fill:#8dd3c7;stroke:#8dd3c7;" x="192.22314" xlink:href="#m8464b87209" y="201.970165"/>
     <use style="fill:#8dd3c7;stroke:#8dd3c7;" x="197.347107" xlink:href="#m8464b87209" y="165.274901"/>
     <use style="fill:#8dd3c7;stroke:#8dd3c7;" x="202.471074" xlink:href="#m8464b87209" y="199.595173"/>
     <use style="fill:#8dd3c7;stroke:#8dd3c7;" x="207.595041" xlink:href="#m8464b87209" y="188.880988"/>
     <use style="fill:#8dd3c7;stroke:#8dd3c7;" x="212.719008" xlink:href="#m8464b87209" y="160.567581"/>
     <use style="fill:#8dd3c7;stroke:#8dd3c7;" x="217.842975" xlink:href="#m8464b87209" y="173.322157"/>
     <use style="fill:#8dd3c7;stroke:#8dd3c7;" x="222.966942" xlink:href="#m8464b87209" y="232.566421"/>
     <use style="fill:#8dd3c7;stroke:#8dd3c7;" x="228.090909" xlink:href="#m8464b87209" y="194.546371"/>
     <use style="fill:#8dd3c7;stroke:#8dd3c7;" x="233.214876" xlink:href="#m8464b87209" y="126.192567"/>
     <use style="fill:#8dd3c7;stroke:#8dd3c7;" x="238.338843" xlink:href="#m8464b87209" y="193.834396"/>
     <use style="fill:#8dd3c7;stroke:#8dd3c7;" x="243.46281" xlink:href="#m8464b87209" y="186.755799"/>
     <use style="fill:#8dd3c7;stroke:#8dd3c7;" x="248.586777" xlink:href="#m8464b87209" y="215.427006"/>
     <use style="fill:#8dd3c7;stroke:#8dd3c7;" x="253.710744" xlink:href="#m8464b87209" y="148.319336"/>
     <use style="fill:#8dd3c7;stroke:#8dd3c7;" x="258.834711" xlink:href="#m8464b87209" y="194.055975"/>
     <use style="fill:#8dd3c7;stroke:#8dd3c7;" x="263.958678" xlink:href="#m8464b87209" y="234.132636"/>
     <use style="fill:#8dd3c7;stroke:#8dd3c7;" x="269.082645" xlink:href="#m8464b87209" y="186.291681"/>
     <use style="fill:#8dd3c7;stroke:#8dd3c7;" x="274.206612" xlink:href="#m8464b87209" y="195.561647"/>
     <use style="fill:#8dd3c7;stroke:#8dd3c7;" x="279.330579" xlink:href="#m8464b87209" y="177.449813"/>
     <use style="fill:#8dd3c7;stroke:#8dd3c7;" x="284.454545" xlink:href="#m8464b87209" y="204.796813"/>
     <use style="fill:#8dd3c7;stroke:#8dd3c7;" x="289.578512" xlink:href="#m8464b87209" y="222.795228"/>
     <use style="fill:#8dd3c7;stroke:#8dd3c7;" x="294.702479" xlink:href="#m8464b87209" y="209.573578"/>
     <use style="fill:#8dd3c7;stroke:#8dd3c7;" x="299.826446" xlink:href="#m8464b87209" y="180.885713"/>
     <use style="fill:#8dd3c7;stroke:#8dd3c7;" x="304.950413" xlink:href="#m8464b87209" y="187.10895"/>
     <use style="fill:#8dd3c7;stroke:#8dd3c7;" x="310.07438" xlink:href="#m8464b87209" y="204.084074"/>
     <use style="fill:#8dd3c7;stroke:#8dd3c7;" x="315.198347" xlink:href="#m8464b87209" y="175.655949"/>
     <use style="fill:#8dd3c7;stroke:#8dd3c7;" x="320.322314" xlink:href="#m8464b87209" y="231.414907"/>
     <use style="fill:#8dd3c7;stroke:#8dd3c7;" x="325.446281" xlink:href="#m8464b87209" y="181.443967"/>
     <use style="fill:#8dd3c7;stroke:#8dd3c7;" x="330.570248" xlink:href="#m8464b87209" y="186.833182"/>
     <use style="fill:#8dd3c7;stroke:#8dd3c7;" x="335.694215" xlink:href="#m8464b87209" y="192.9141"/>
     <use style="fill:#8dd3c7;stroke:#8dd3c7;" x="340.818182" xlink:href="#m8464b87209" y="207.579179"/>
     <use style="fill:#8dd3c7;stroke:#8dd3c7;" x="345.942149" xlink:href="#m8464b87209" y="229.795732"/>
     <use style="fill:#8dd3c7;stroke:#8dd3c7;" x="351.066116" xlink:href="#m8464b87209" y="231.308903"/>
     <use style="fill:#8dd3c7;stroke:#8dd3c7;" x="356.190083" xlink:href="#m8464b87209" y="232.799262"/>
     <use style="fill:#8dd3c7;stroke:#8dd3c7;" x="361.31405" xlink:href="#m8464b87209" y="264.094079"/>
     <use style="fill:#8dd3c7;stroke:#8dd3c7;" x="366.438017" xlink:href="#m8464b87209" y="255.295473"/>
     <use style="fill:#8dd3c7;stroke:#8dd3c7;" x="371.561983" xlink:href="#m8464b87209" y="244.413674"/>
     <use style="fill:#8dd3c7;stroke:#8dd3c7;" x="376.68595" xlink:href="#m8464b87209" y="192.543596"/>
     <use style="fill:#8dd3c7;stroke:#8dd3c7;" x="381.809917" xlink:href="#m8464b87209" y="199.079468"/>
     <use style="fill:#8dd3c7;stroke:#8dd3c7;" x="386.933884" xlink:href="#m8464b87209" y="221.341009"/>
     <use style="fill:#8dd3c7;stroke:#8dd3c7;" x="392.057851" xlink:href="#m8464b87209" y="238.648202"/>
     <use style="fill:#8dd3c7;stroke:#8dd3c7;" x="397.181818" xlink:href="#m8464b87209" y="265.776965"/>
     <use style="fill:#8dd3c7;stroke:#8dd3c7;" x="402.305785" xlink:href="#m8464b87209" y="234.233788"/>
     <use style="fill:#8dd3c7;stroke:#8dd3c7;" x="407.429752" xlink:href="#m8464b87209" y="203.637126"/>
     <use style="fill:#8dd3c7;stroke:#8dd3c7;" x="412.553719" xlink:href="#m8464b87209" y="173.031835"/>
     <use style="fill:#8dd3c7;stroke:#8dd3c7;" x="417.677686" xlink:href="#m8464b87209" y="233.352712"/>
     <use style="fill:#8dd3c7;stroke:#8dd3c7;" x="422.801653" xlink:href="#m8464b87209" y="264.888646"/>
     <use style="fill:#8dd3c7;stroke:#8dd3c7;" x="427.92562" xlink:href="#m8464b87209" y="191.032668"/>
     <use style="fill:#8dd3c7;stroke:#8dd3c7;" x="433.049587" xlink:href="#m8464b87209" y="302.645455"/>
     <use style="fill:#8dd3c7;stroke:#8dd3c7;" x="438.173554" xlink:href="#m8464b87209" y="170.254163"/>
     <use style="fill:#8dd3c7;stroke:#8dd3c7;" x="443.297521" xlink:href="#m8464b87209" y="257.562271"/>
     <use style="fill:#8dd3c7;stroke:#8dd3c7;" x="448.421488" xlink:href="#m8464b87209" y="229.34507"/>
     <use style="fill:#8dd3c7;stroke:#8dd3c7;" x="453.545455" xlink:href="#m8464b87209" y="156.027581"/>
     <use style="fill:#8dd3c7;stroke:#8dd3c7;" x="458.669421" xlink:href="#m8464b87209" y="239.612133"/>
     <use style="fill:#8dd3c7;stroke:#8dd3c7;" x="463.793388" xlink:href="#m8464b87209" y="248.902058"/>
     <use style="fill:#8dd3c7;stroke:#8dd3c7;" x="468.917355" xlink:href="#m8464b87209" y="237.668244"/>
     <use style="fill:#8dd3c7;stroke:#8dd3c7;" x="474.041322" xlink:href="#m8464b87209" y="217.412222"/>
     <use style="fill:#8dd3c7;stroke:#8dd3c7;" x="479.165289" xlink:href="#m8464b87209" y="198.409765"/>
     <use style="fill:#8dd3c7;stroke:#8dd3c7;" x="484.289256" xlink:href="#m8464b87209" y="186.307474"/>
     <use style="fill:#8dd3c7;stroke:#8dd3c7;" x="489.413223" xlink:href="#m8464b87209" y="209.909728"/>
     <use style="fill:#8dd3c7;stroke:#8dd3c7;" x="494.53719" xlink:href="#m8464b87209" y="231.206513"/>
     <use style="fill:#8dd3c7;stroke:#8dd3c7;" x="499.661157" xlink:href="#m8464b87209" y="218.864903"/>
     <use style="fill:#8dd3c7;stroke:#8dd3c7;" x="504.785124" xlink:href="#m8464b87209" y="221.037757"/>
     <use style="fill:#8dd3c7;stroke:#8dd3c7;" x="509.909091" xlink:href="#m8464b87209" y="248.822938"/>
     <use style="fill:#8dd3c7;stroke:#8dd3c7;" x="515.033058" xlink:href="#m8464b87209" y="276.759768"/>
     <use style="fill:#8dd3c7;stroke:#8dd3c7;" x="520.157025" xlink:href="#m8464b87209" y="258.038884"/>
     <use style="fill:#8dd3c7;stroke:#8dd3c7;" x="525.280992" xlink:href="#m8464b87209" y="179.834765"/>
     <use style="fill:#8dd3c7;stroke:#8dd3c7;" x="530.404959" xlink:href="#m8464b87209" y="240.838363"/>
     <use style="fill:#8dd3c7;stroke:#8dd3c7;" x="535.528926" xlink:href="#m8464b87209" y="237.246902"/>
     <use style="fill:#8dd3c7;stroke:#8dd3c7;" x="540.652893" xlink:href="#m8464b87209" y="222.056017"/>
     <use style="fill:#8dd3c7;stroke:#8dd3c7;" x="545.77686" xlink:href="#m8464b87209" y="218.462153"/>
     <use style="fill:#8dd3c7;stroke:#8dd3c7;" x="550.900826" xlink:href="#m8464b87209" y="255.218634"/>
     <use style="fill:#8dd3c7;stroke:#8dd3c7;" x="556.024793" xlink:href="#m8464b87209" y="180.17389"/>
     <use style="fill:#8dd3c7;stroke:#8dd3c7;" x="561.14876" xlink:href="#m8464b87209" y="255.167849"/>
     <use style="fill:#8dd3c7;stroke:#8dd3c7;" x="566.272727" xlink:href="#m8464b87209" y="269.727302"/>
     <use style="fill:#8dd3c7;stroke:#8dd3c7;" x="571.396694" xlink:href="#m8464b87209" y="274.255936"/>
     <use style="fill:#8dd3c7;stroke:#8dd3c7;" x="576.520661" xlink:href="#m8464b87209" y="55.554545"/>
     <use style="fill:#8dd3c7;stroke:#8dd3c7;" x="581.644628" xlink:href="#m8464b87209" y="261.064428"/>
     <use style="fill:#8dd3c7;stroke:#8dd3c7;" x="586.768595" xlink:href="#m8464b87209" y="236.633064"/>
     <use style="fill:#8dd3c7;stroke:#8dd3c7;" x="591.892562" xlink:href="#m8464b87209" y="243.841754"/>
     <use style="fill:#8dd3c7;stroke:#8dd3c7;" x="597.016529" xlink:href="#m8464b87209" y="165.054838"/>
     <use style="fill:#8dd3c7;stroke:#8dd3c7;" x="602.140496" xlink:href="#m8464b87209" y="284.513258"/>
     <use style="fill:#8dd3c7;stroke:#8dd3c7;" x="607.264463" xlink:href="#m8464b87209" y="213.910124"/>
     <use style="fill:#8dd3c7;stroke:#8dd3c7;" x="612.38843" xlink:href="#m8464b87209" y="209.836863"/>
     <use style="fill:#8dd3c7;stroke:#8dd3c7;" x="617.512397" xlink:href="#m8464b87209" y="212.271494"/>
     <use style="fill:#8dd3c7;stroke:#8dd3c7;" x="622.636364" xlink:href="#m8464b87209" y="236.722656"/>
    </g>
   </g>
   <g id="matplotlib.axis_1">
    <g id="xtick_1">
     <g id="line2d_1">
      <defs>
       <path d="M 0 0 
L 0 3.5 
" id="m4f9f7f9bfe" style="stroke:#ffffff;stroke-width:0.8;"/>
      </defs>
      <g>
       <use style="fill:#ffffff;stroke:#ffffff;stroke-width:0.8;" x="110.239669" xlink:href="#m4f9f7f9bfe" y="315"/>
      </g>
     </g>
     <g id="text_1">
      <!-- $\mathdefault{0}$ -->
      <defs>
       <path d="M 42 31.640625 
C 42 37.75 41.90625 48.125 37.703125 56.109375 
C 34 63.109375 28.09375 65.59375 22.90625 65.59375 
C 18.09375 65.59375 12 63.40625 8.203125 56.203125 
C 4.203125 48.71875 3.796875 39.4375 3.796875 31.640625 
C 3.796875 25.953125 3.90625 17.28125 7 9.671875 
C 11.296875 -0.609375 19 -2 22.90625 -2 
C 27.5 -2 34.5 -0.109375 38.59375 9.375 
C 41.59375 16.28125 42 24.359375 42 31.640625 
z
M 22.90625 -0.40625 
C 16.5 -0.40625 12.703125 5.078125 11.296875 12.6875 
C 10.203125 18.5625 10.203125 27.15625 10.203125 32.75 
C 10.203125 40.4375 10.203125 46.828125 11.5 52.921875 
C 13.40625 61.390625 19 64 22.90625 64 
C 27 64 32.296875 61.296875 34.203125 53.125 
C 35.5 47.4375 35.59375 40.734375 35.59375 32.75 
C 35.59375 26.25 35.59375 18.265625 34.40625 12.375 
C 32.296875 1.484375 26.40625 -0.40625 22.90625 -0.40625 
z
" id="CMR17-48"/>
      </defs>
      <g style="fill:#ffffff;" transform="translate(105.899074 335.145148)scale(0.19 -0.19)">
       <use transform="scale(0.996264)" xlink:href="#CMR17-48"/>
      </g>
     </g>
    </g>
    <g id="xtick_2">
     <g id="line2d_2">
      <g>
       <use style="fill:#ffffff;stroke:#ffffff;stroke-width:0.8;" x="212.719008" xlink:href="#m4f9f7f9bfe" y="315"/>
      </g>
     </g>
     <g id="text_2">
      <!-- $\mathdefault{20}$ -->
      <defs>
       <path d="M 41.703125 15.453125 
L 39.90625 15.453125 
C 38.90625 8.375 38.09375 7.171875 37.703125 6.5625 
C 37.203125 5.765625 30 5.765625 28.59375 5.765625 
L 9.40625 5.765625 
C 13 9.671875 20 16.75 28.5 24.953125 
C 34.59375 30.734375 41.703125 37.53125 41.703125 47.421875 
C 41.703125 59.21875 32.296875 66 21.796875 66 
C 10.796875 66 4.09375 56.3125 4.09375 47.34375 
C 4.09375 43.4375 7 42.9375 8.203125 42.9375 
C 9.203125 42.9375 12.203125 43.546875 12.203125 47.03125 
C 12.203125 50.109375 9.59375 51 8.203125 51 
C 7.59375 51 7 50.90625 6.59375 50.703125 
C 8.5 59.21875 14.296875 63.40625 20.40625 63.40625 
C 29.09375 63.40625 34.796875 56.515625 34.796875 47.421875 
C 34.796875 38.734375 29.703125 31.25 24 24.75 
L 4.09375 2.28125 
L 4.09375 0 
L 39.296875 0 
z
" id="CMR17-50"/>
      </defs>
      <g style="fill:#ffffff;" transform="translate(204.037818 335.145148)scale(0.19 -0.19)">
       <use transform="scale(0.996264)" xlink:href="#CMR17-50"/>
       <use transform="translate(45.690477 0)scale(0.996264)" xlink:href="#CMR17-48"/>
      </g>
     </g>
    </g>
    <g id="xtick_3">
     <g id="line2d_3">
      <g>
       <use style="fill:#ffffff;stroke:#ffffff;stroke-width:0.8;" x="315.198347" xlink:href="#m4f9f7f9bfe" y="315"/>
      </g>
     </g>
     <g id="text_3">
      <!-- $\mathdefault{40}$ -->
      <defs>
       <path d="M 33.59375 64.40625 
C 33.59375 66.5 33.5 66.5 31.703125 66.5 
L 2 19.59375 
L 2 17 
L 27.796875 17 
L 27.796875 7.140625 
C 27.796875 3.5 27.59375 2.5 20.59375 2.5 
L 18.703125 2.5 
L 18.703125 0 
C 21.90625 0 27.296875 0 30.703125 0 
C 34.09375 0 39.5 0 42.703125 0 
L 42.703125 2.5 
L 40.796875 2.5 
C 33.796875 2.5 33.59375 3.5 33.59375 7.140625 
L 33.59375 17 
L 43.796875 17 
L 43.796875 19.59375 
L 33.59375 19.59375 
z
M 28.09375 57.859375 
L 28.09375 19.59375 
L 4 19.59375 
z
" id="CMR17-52"/>
      </defs>
      <g style="fill:#ffffff;" transform="translate(306.517156 335.145148)scale(0.19 -0.19)">
       <use transform="scale(0.996264)" xlink:href="#CMR17-52"/>
       <use transform="translate(45.690477 0)scale(0.996264)" xlink:href="#CMR17-48"/>
      </g>
     </g>
    </g>
    <g id="xtick_4">
     <g id="line2d_4">
      <g>
       <use style="fill:#ffffff;stroke:#ffffff;stroke-width:0.8;" x="417.677686" xlink:href="#m4f9f7f9bfe" y="315"/>
      </g>
     </g>
     <g id="text_4">
      <!-- $\mathdefault{60}$ -->
      <defs>
       <path d="M 10.59375 34 
C 10.59375 57.65625 21.796875 63 28.296875 63 
C 30.40625 63 35.5 62.640625 37.5 59 
C 35.90625 59 32.90625 59 32.90625 55.515625 
C 32.90625 52.828125 35.09375 51.921875 36.5 51.921875 
C 37.40625 51.921875 40.09375 52.3125 40.09375 55.625 
C 40.09375 61.78125 35.09375 65.296875 28.203125 65.296875 
C 16.296875 65.296875 3.796875 52.96875 3.796875 31 
C 3.796875 3.953125 15.09375 -2 23.09375 -2 
C 32.796875 -2 42 6.671875 42 20.046875 
C 42 32.515625 33.90625 41.59375 23.703125 41.59375 
C 17.59375 41.59375 13.09375 37.609375 10.59375 30.625 
z
M 23.09375 0.390625 
C 10.796875 0.390625 10.796875 18.75 10.796875 22.4375 
C 10.796875 29.625 14.203125 40 23.5 40 
C 25.203125 40 30.09375 40 33.40625 33.125 
C 35.203125 29.21875 35.203125 25.140625 35.203125 20.140625 
C 35.203125 14.75 35.203125 10.78125 33.09375 6.78125 
C 30.90625 2.671875 27.703125 0.390625 23.09375 0.390625 
z
" id="CMR17-54"/>
      </defs>
      <g style="fill:#ffffff;" transform="translate(408.996495 335.145148)scale(0.19 -0.19)">
       <use transform="scale(0.996264)" xlink:href="#CMR17-54"/>
       <use transform="translate(45.690477 0)scale(0.996264)" xlink:href="#CMR17-48"/>
      </g>
     </g>
    </g>
    <g id="xtick_5">
     <g id="line2d_5">
      <g>
       <use style="fill:#ffffff;stroke:#ffffff;stroke-width:0.8;" x="520.157025" xlink:href="#m4f9f7f9bfe" y="315"/>
      </g>
     </g>
     <g id="text_5">
      <!-- $\mathdefault{80}$ -->
      <defs>
       <path d="M 27.203125 35.375 
C 33.5 38.546875 39.90625 43.328125 39.90625 50.984375 
C 39.90625 60.015625 31.09375 65.296875 23 65.296875 
C 13.90625 65.296875 5.90625 58.734375 5.90625 49.6875 
C 5.90625 47.203125 6.5 42.921875 10.40625 39.140625 
C 11.40625 38.15625 15.59375 35.171875 18.296875 33.28125 
C 13.796875 30.984375 3.296875 25.53125 3.296875 14.59375 
C 3.296875 4.359375 13.09375 -2 22.796875 -2 
C 33.5 -2 42.5 5.65625 42.5 15.78125 
C 42.5 24.84375 36.40625 29.015625 32.40625 31.703125 
z
M 14.09375 44.09375 
C 13.296875 44.59375 9.296875 47.671875 9.296875 52.359375 
C 9.296875 58.421875 15.59375 63 22.796875 63 
C 30.703125 63 36.5 57.4375 36.5 50.96875 
C 36.5 41.703125 26.09375 36.421875 25.59375 36.421875 
C 25.5 36.421875 25.40625 36.421875 24.59375 37.03125 
z
M 32.5 23.734375 
C 34 22.640625 38.796875 19.375 38.796875 13.296875 
C 38.796875 5.953125 31.40625 0.390625 23 0.390625 
C 13.90625 0.390625 7 6.84375 7 14.6875 
C 7 22.546875 13.09375 29.09375 20 32.1875 
z
" id="CMR17-56"/>
      </defs>
      <g style="fill:#ffffff;" transform="translate(511.475834 335.145148)scale(0.19 -0.19)">
       <use transform="scale(0.996264)" xlink:href="#CMR17-56"/>
       <use transform="translate(45.690477 0)scale(0.996264)" xlink:href="#CMR17-48"/>
      </g>
     </g>
    </g>
    <g id="xtick_6">
     <g id="line2d_6">
      <g>
       <use style="fill:#ffffff;stroke:#ffffff;stroke-width:0.8;" x="622.636364" xlink:href="#m4f9f7f9bfe" y="315"/>
      </g>
     </g>
     <g id="text_6">
      <!-- $\mathdefault{100}$ -->
      <defs>
       <path d="M 26.59375 63.40625 
C 26.59375 65.5 26.5 65.5 25.09375 65.5 
C 21.203125 61.1875 15.296875 59.796875 9.703125 59.796875 
C 9.40625 59.796875 8.90625 59.796875 8.796875 59.5 
C 8.703125 59.296875 8.703125 59.09375 8.703125 57 
C 11.796875 57 17 57.59375 21 59.984375 
L 21 7.203125 
C 21 3.6875 20.796875 2.5 12.203125 2.5 
L 9.203125 2.5 
L 9.203125 0 
C 14 0 19 0 23.796875 0 
C 28.59375 0 33.59375 0 38.40625 0 
L 38.40625 2.5 
L 35.40625 2.5 
C 26.796875 2.5 26.59375 3.59375 26.59375 7.15625 
z
" id="CMR17-49"/>
      </defs>
      <g style="fill:#ffffff;" transform="translate(609.614578 335.145148)scale(0.19 -0.19)">
       <use transform="scale(0.996264)" xlink:href="#CMR17-49"/>
       <use transform="translate(45.690477 0)scale(0.996264)" xlink:href="#CMR17-48"/>
       <use transform="translate(91.380954 0)scale(0.996264)" xlink:href="#CMR17-48"/>
      </g>
     </g>
    </g>
    <g id="text_7">
     <!-- Window size (ms) -->
     <defs>
      <path d="M 87.203125 69 
L 79.59375 69 
L 71.203125 38.078125 
C 69.90625 33.09375 68.703125 28.140625 67.5 23.15625 
C 65.703125 15.796875 64.40625 10.640625 64.203125 8.046875 
L 64.09375 8.046875 
C 63.90625 10.734375 62.59375 16.390625 61 22.765625 
C 59.796875 28.046875 58.5 33.296875 57.09375 38.46875 
L 48.796875 69 
L 40.40625 69 
L 32.5 40.03125 
L 28.5 24.203125 
C 25.5 11.671875 25.40625 9.875 25.203125 7.890625 
L 25.09375 7.890625 
C 25.09375 8.484375 24.703125 11.765625 21.90625 23.40625 
C 20.5 29.1875 19.09375 35.0625 17.59375 40.640625 
L 9.90625 69 
L 1.296875 69 
L 20.296875 0 
L 28.59375 0 
L 36.5 28.734375 
L 40.5 44.546875 
C 43.203125 55.6875 43.796875 58.46875 44 60.953125 
L 44.09375 60.953125 
C 44.09375 60.5625 45 54.28125 48.90625 39.765625 
L 59.5 0 
L 68.203125 0 
z
" id="CMSS17-87"/>
      <path d="M 15.296875 65.359375 
L 6.90625 65.359375 
L 6.90625 57 
L 15.296875 57 
z
M 14.796875 42.796875 
L 7.40625 42.796875 
L 7.40625 0 
L 14.796875 0 
z
" id="CMSS17-105"/>
      <path d="M 40.90625 29.328125 
C 40.90625 35.671875 39.40625 44 28.09375 44 
C 21.703125 44 17.5 40.71875 14.703125 37.328125 
L 14.703125 43.09375 
L 7.40625 43.09375 
L 7.40625 0 
L 15 0 
L 15 24.359375 
C 15 30.6875 17.40625 37.9375 24.203125 37.9375 
C 33 37.9375 33.296875 32 33.296875 28.578125 
L 33.296875 0 
L 40.90625 0 
z
" id="CMSS17-110"/>
      <path d="M 40.796875 69 
L 33.40625 69 
L 33.40625 38.09375 
C 30.296875 40.671875 25.203125 43.0625 19.59375 43.0625 
C 10.5 43.0625 3.296875 33.296875 3.296875 21.046875 
C 3.296875 8.78125 10.40625 -1 19.296875 -1 
C 26.203125 -1 30.796875 2.6875 33.203125 4.78125 
L 33.203125 -0.203125 
L 40.796875 -0.203125 
z
M 33.203125 13.0625 
C 33.203125 11.671875 33.203125 10.203125 30.09375 7.53125 
C 28.09375 5.859375 25.703125 5.078125 23.40625 5.078125 
C 18 5.078125 10.90625 9 10.90625 20.9375 
C 10.90625 33.34375 18.90625 37 24.40625 37 
C 28.09375 37 31.09375 35.21875 33.203125 32.265625 
z
" id="CMSS17-100"/>
      <path d="M 44.203125 21.1875 
C 44.203125 34 34.703125 44 23.5 44 
C 12 44 2.703125 33.703125 2.703125 21.1875 
C 2.703125 8.5 12.296875 -1 23.40625 -1 
C 34.796875 -1 44.203125 8.796875 44.203125 21.1875 
z
M 23.5 5.265625 
C 16.40625 5.265625 10.296875 11.078125 10.296875 22 
C 10.296875 33.609375 17.40625 37.921875 23.40625 37.921875 
C 29.90625 37.921875 36.59375 33.21875 36.59375 22 
C 36.59375 10.671875 30.09375 5.265625 23.5 5.265625 
z
" id="CMSS17-111"/>
      <path d="M 62.703125 43 
L 55.09375 43 
L 49.796875 25.015625 
C 48.703125 21.21875 45.59375 10.703125 45.203125 5.796875 
L 45.09375 5.796875 
C 44.90625 8.8125 43.203125 16 40.40625 25.515625 
L 35.296875 43 
L 28.40625 43 
L 23.40625 25.90625 
C 20.90625 17.203125 19 9.796875 18.796875 5.796875 
L 18.703125 5.796875 
C 18.296875 11.703125 14.203125 25.515625 13.59375 27.703125 
L 9.09375 43 
L 1.296875 43 
L 14.296875 0 
L 21.90625 0 
C 27.09375 17.125 31.09375 30.359375 31.40625 37.03125 
C 31.59375 33.75 33.296875 26.671875 34.296875 23.1875 
L 40.90625 0 
L 49.703125 0 
z
" id="CMSS17-119"/>
      <path d="M 32.203125 41.046875 
C 26.296875 43.859375 21.703125 43.859375 18.703125 43.859375 
C 11.59375 43.859375 3.09375 41.375 3.09375 31.296875 
C 3.09375 21.234375 14.09375 19.03125 17.09375 18.421875 
C 21.703125 17.53125 26.796875 16.53125 26.796875 11.5625 
C 26.796875 5.265625 19.59375 5.265625 18.296875 5.265625 
C 14.296875 5.265625 8.796875 6.359375 3.796875 9.96875 
L 2.59375 3.28125 
C 8.296875 0 13.796875 -1 18.40625 -1 
C 30.703125 -1 33.796875 6.5 33.796875 12.203125 
C 33.796875 17.09375 31 20.390625 29.09375 21.890625 
C 25.796875 24.5 24.59375 24.796875 16.40625 26.5 
C 15 26.703125 10.09375 27.796875 10.09375 32.28125 
C 10.09375 38 16.40625 38 17.796875 38 
C 24.296875 38 28.296875 35.984375 31 34.5 
z
" id="CMSS17-115"/>
      <path d="M 37.5 39.09375 
L 37.5 42.96875 
L 3.90625 42.96875 
L 3.90625 37 
L 16.703125 37 
C 17.90625 37 19.09375 37 20.296875 37 
L 27.296875 37 
L 2.59375 4.078125 
L 2.59375 0 
L 37.796875 0 
L 37.796875 6.171875 
L 24.203125 6.171875 
C 23 6.171875 21.796875 6.171875 20.59375 6.171875 
L 12.90625 6.171875 
z
" id="CMSS17-122"/>
      <path d="M 39.09375 21.515625 
C 39.09375 24.84375 38.90625 31.296875 35.703125 36.640625 
C 32.203125 42.390625 26.5 44 22.203125 44 
C 11.796875 44 3 34.1875 3 21.484375 
C 3 9.09375 12.09375 -1 23.59375 -1 
C 28.09375 -1 33.59375 0.296875 38.59375 3.875 
C 38.59375 4.28125 38.40625 6.46875 38.296875 6.5625 
C 38.296875 6.765625 38 9.84375 38 10.25 
C 33.203125 6.359375 27.703125 5.078125 23.703125 5.078125 
C 17.296875 5.078125 10.40625 10.421875 10.09375 21.515625 
z
M 10.90625 27 
C 12.203125 32.5625 16.59375 37.828125 22.203125 37.828125 
C 23.703125 37.828125 30.703125 37.828125 32.5 27 
z
" id="CMSS17-101"/>
      <path d="M 25.203125 74.5 
C 19.796875 69.015625 7.40625 56.265625 7.40625 24.8125 
C 7.40625 -6.765625 19.796875 -19.421875 25.203125 -25 
L 31.296875 -25 
C 19 -12.25 15 5.578125 15 24.703125 
C 15 43.71875 18.796875 61.65625 31.296875 74.5 
z
" id="CMSS17-40"/>
      <path d="M 67 29.328125 
C 67 36.0625 65.296875 44 54.09375 44 
C 46.59375 44 42.09375 39.3125 40.09375 36.421875 
C 38.296875 41.71875 34.09375 44 28.09375 44 
C 21.296875 44 17 40.125 14.703125 37.328125 
L 14.703125 43.09375 
L 7.40625 43.09375 
L 7.40625 0 
L 15 0 
L 15 24.359375 
C 15 30.296875 17.203125 37.9375 24.296875 37.9375 
C 33.40625 37.9375 33.40625 31.5 33.40625 28.578125 
L 33.40625 0 
L 41 0 
L 41 24.359375 
C 41 30.296875 43.203125 37.9375 50.296875 37.9375 
C 59.40625 37.9375 59.40625 31.5 59.40625 28.578125 
L 59.40625 0 
L 67 0 
z
" id="CMSS17-109"/>
      <path d="M 11.296875 -25 
C 16.703125 -19.515625 29.09375 -6.765625 29.09375 24.703125 
C 29.09375 56.265625 16.703125 68.921875 11.296875 74.5 
L 5.203125 74.5 
C 17.5 61.75 21.5 43.921875 21.5 24.8125 
C 21.5 5.78125 17.703125 -12.15625 5.203125 -25 
z
" id="CMSS17-41"/>
     </defs>
     <g style="fill:#ffffff;" transform="translate(302.426599 357.006711)scale(0.19 -0.19)">
      <use transform="scale(0.996264)" xlink:href="#CMSS17-87"/>
      <use transform="translate(88.242166 0)scale(0.996264)" xlink:href="#CMSS17-105"/>
      <use transform="translate(110.422889 0)scale(0.996264)" xlink:href="#CMSS17-110"/>
      <use transform="translate(158.627832 0)scale(0.996264)" xlink:href="#CMSS17-100"/>
      <use transform="translate(206.832776 0)scale(0.996264)" xlink:href="#CMSS17-111"/>
      <use transform="translate(251.073945 0)scale(0.996264)" xlink:href="#CMSS17-119"/>
      <use transform="translate(346.122603 0)scale(0.996264)" xlink:href="#CMSS17-115"/>
      <use transform="translate(382.036145 0)scale(0.996264)" xlink:href="#CMSS17-105"/>
      <use transform="translate(404.216868 0)scale(0.996264)" xlink:href="#CMSS17-122"/>
      <use transform="translate(444.89474 0)scale(0.996264)" xlink:href="#CMSS17-101"/>
      <use transform="translate(517.762675 0)scale(0.996264)" xlink:href="#CMSS17-40"/>
      <use transform="translate(554.196589 0)scale(0.996264)" xlink:href="#CMSS17-109"/>
      <use transform="translate(628.425843 0)scale(0.996264)" xlink:href="#CMSS17-115"/>
      <use transform="translate(664.339385 0)scale(0.996264)" xlink:href="#CMSS17-41"/>
     </g>
    </g>
   </g>
   <g id="matplotlib.axis_2">
    <g id="ytick_1">
     <g id="line2d_7">
      <defs>
       <path d="M 0 0 
L -3.5 0 
" id="mf1335acb00" style="stroke:#ffffff;stroke-width:0.8;"/>
      </defs>
      <g>
       <use style="fill:#ffffff;stroke:#ffffff;stroke-width:0.8;" x="90" xlink:href="#mf1335acb00" y="290.184938"/>
      </g>
     </g>
     <g id="text_8">
      <!-- $\mathdefault{0.97}$ -->
      <defs>
       <path d="M 18.40625 4.796875 
C 18.40625 7.6875 16 9.671875 13.59375 9.671875 
C 10.703125 9.671875 8.703125 7.28125 8.703125 4.890625 
C 8.703125 2 11.09375 0 13.5 0 
C 16.40625 0 18.40625 2.390625 18.40625 4.796875 
z
" id="CMMI12-58"/>
       <path d="M 35.203125 29.125 
C 35.203125 7.25 26.09375 0.484375 18.59375 0.484375 
C 16.296875 0.484375 10.703125 0.484375 8.40625 4.59375 
C 11 4.1875 12.90625 5.578125 12.90625 8.09375 
C 12.90625 10.8125 10.703125 11.703125 9.296875 11.703125 
C 8.40625 11.703125 5.703125 11.296875 5.703125 7.90625 
C 5.703125 1.109375 11.59375 -2 18.796875 -2 
C 30.296875 -2 42 10.53125 42 32.390625 
C 42 59.640625 30.796875 65.296875 23.203125 65.296875 
C 13.296875 65.296875 3.796875 56.6875 3.796875 43.40625 
C 3.796875 31.109375 11.90625 22 22.09375 22 
C 30.5 22 34.203125 29.734375 35.203125 33 
z
M 22.296875 23.59375 
C 19.59375 23.59375 15.796875 24.09375 12.703125 30.03125 
C 10.59375 33.890625 10.59375 38.453125 10.59375 43.296875 
C 10.59375 49.15625 10.59375 53.203125 13.40625 57.5625 
C 14.796875 59.640625 17.40625 63 23.203125 63 
C 35 63 35 45.078125 35 41.125 
C 35 34.09375 31.796875 23.59375 22.296875 23.59375 
z
" id="CMR17-57"/>
       <path d="M 45.09375 61.578125 
L 45.09375 63.765625 
L 21.59375 63.765625 
C 9.90625 63.765625 9.703125 65.078125 9.296875 67 
L 7.5 67 
L 4.59375 48.34375 
L 6.40625 48.34375 
C 6.703125 50.234375 7.40625 55.3125 8.59375 57.203125 
C 9.203125 58 16.59375 58 18.296875 58 
L 40.296875 58 
L 29.203125 41.578125 
C 21.796875 30.53125 16.703125 15.609375 16.703125 2.578125 
C 16.703125 1.390625 16.703125 -2 20.296875 -2 
C 23.90625 -2 23.90625 1.390625 23.90625 2.671875 
L 23.90625 7.265625 
C 23.90625 23.5625 26.703125 34.3125 31.296875 41.1875 
z
" id="CMR17-55"/>
      </defs>
      <g style="fill:#ffffff;" transform="translate(51.807964 296.757512)scale(0.19 -0.19)">
       <use transform="scale(0.996264)" xlink:href="#CMR17-48"/>
       <use transform="translate(45.690477 0)scale(0.996264)" xlink:href="#CMMI12-58"/>
       <use transform="translate(72.787654 0)scale(0.996264)" xlink:href="#CMR17-57"/>
       <use transform="translate(118.478131 0)scale(0.996264)" xlink:href="#CMR17-55"/>
      </g>
     </g>
    </g>
    <g id="ytick_2">
     <g id="line2d_8">
      <g>
       <use style="fill:#ffffff;stroke:#ffffff;stroke-width:0.8;" x="90" xlink:href="#mf1335acb00" y="251.299558"/>
      </g>
     </g>
     <g id="text_9">
      <!-- $\mathdefault{0.98}$ -->
      <g style="fill:#ffffff;" transform="translate(51.807964 257.872132)scale(0.19 -0.19)">
       <use transform="scale(0.996264)" xlink:href="#CMR17-48"/>
       <use transform="translate(45.690477 0)scale(0.996264)" xlink:href="#CMMI12-58"/>
       <use transform="translate(72.787654 0)scale(0.996264)" xlink:href="#CMR17-57"/>
       <use transform="translate(118.478131 0)scale(0.996264)" xlink:href="#CMR17-56"/>
      </g>
     </g>
    </g>
    <g id="ytick_3">
     <g id="line2d_9">
      <g>
       <use style="fill:#ffffff;stroke:#ffffff;stroke-width:0.8;" x="90" xlink:href="#mf1335acb00" y="212.414177"/>
      </g>
     </g>
     <g id="text_10">
      <!-- $\mathdefault{0.99}$ -->
      <g style="fill:#ffffff;" transform="translate(51.807964 218.986751)scale(0.19 -0.19)">
       <use transform="scale(0.996264)" xlink:href="#CMR17-48"/>
       <use transform="translate(45.690477 0)scale(0.996264)" xlink:href="#CMMI12-58"/>
       <use transform="translate(72.787654 0)scale(0.996264)" xlink:href="#CMR17-57"/>
       <use transform="translate(118.478131 0)scale(0.996264)" xlink:href="#CMR17-57"/>
      </g>
     </g>
    </g>
    <g id="ytick_4">
     <g id="line2d_10">
      <g>
       <use style="fill:#ffffff;stroke:#ffffff;stroke-width:0.8;" x="90" xlink:href="#mf1335acb00" y="173.528796"/>
      </g>
     </g>
     <g id="text_11">
      <!-- $\mathdefault{1.00}$ -->
      <g style="fill:#ffffff;" transform="translate(51.807964 180.101371)scale(0.19 -0.19)">
       <use transform="scale(0.996264)" xlink:href="#CMR17-49"/>
       <use transform="translate(45.690477 0)scale(0.996264)" xlink:href="#CMMI12-58"/>
       <use transform="translate(72.787654 0)scale(0.996264)" xlink:href="#CMR17-48"/>
       <use transform="translate(118.478131 0)scale(0.996264)" xlink:href="#CMR17-48"/>
      </g>
     </g>
    </g>
    <g id="ytick_5">
     <g id="line2d_11">
      <g>
       <use style="fill:#ffffff;stroke:#ffffff;stroke-width:0.8;" x="90" xlink:href="#mf1335acb00" y="134.643416"/>
      </g>
     </g>
     <g id="text_12">
      <!-- $\mathdefault{1.01}$ -->
      <g style="fill:#ffffff;" transform="translate(51.807964 141.21599)scale(0.19 -0.19)">
       <use transform="scale(0.996264)" xlink:href="#CMR17-49"/>
       <use transform="translate(45.690477 0)scale(0.996264)" xlink:href="#CMMI12-58"/>
       <use transform="translate(72.787654 0)scale(0.996264)" xlink:href="#CMR17-48"/>
       <use transform="translate(118.478131 0)scale(0.996264)" xlink:href="#CMR17-49"/>
      </g>
     </g>
    </g>
    <g id="ytick_6">
     <g id="line2d_12">
      <g>
       <use style="fill:#ffffff;stroke:#ffffff;stroke-width:0.8;" x="90" xlink:href="#mf1335acb00" y="95.758035"/>
      </g>
     </g>
     <g id="text_13">
      <!-- $\mathdefault{1.02}$ -->
      <g style="fill:#ffffff;" transform="translate(51.807964 102.330609)scale(0.19 -0.19)">
       <use transform="scale(0.996264)" xlink:href="#CMR17-49"/>
       <use transform="translate(45.690477 0)scale(0.996264)" xlink:href="#CMMI12-58"/>
       <use transform="translate(72.787654 0)scale(0.996264)" xlink:href="#CMR17-48"/>
       <use transform="translate(118.478131 0)scale(0.996264)" xlink:href="#CMR17-50"/>
      </g>
     </g>
    </g>
    <g id="ytick_7">
     <g id="line2d_13">
      <g>
       <use style="fill:#ffffff;stroke:#ffffff;stroke-width:0.8;" x="90" xlink:href="#mf1335acb00" y="56.872654"/>
      </g>
     </g>
     <g id="text_14">
      <!-- $\mathdefault{1.03}$ -->
      <defs>
       <path d="M 22.09375 33.703125 
C 31 33.703125 34.90625 25.96875 34.90625 17.03125 
C 34.90625 5 28.5 0.390625 22.703125 0.390625 
C 17.40625 0.390625 8.796875 3.03125 6.09375 10.828125 
C 6.59375 10.625 7.09375 10.625 7.59375 10.625 
C 10 10.625 11.796875 12.21875 11.796875 14.8125 
C 11.796875 17.703125 9.59375 19 7.59375 19 
C 5.90625 19 3.296875 18.203125 3.296875 14.46875 
C 3.296875 5.234375 12.296875 -2 22.90625 -2 
C 34 -2 42.5 6.71875 42.5 16.953125 
C 42.5 26.671875 34.5 33.703125 25 34.796875 
C 32.59375 36.375 39.90625 43.0625 39.90625 52.015625 
C 39.90625 59.6875 32 65.296875 23 65.296875 
C 13.90625 65.296875 5.90625 59.828125 5.90625 52.015625 
C 5.90625 48.59375 8.5 48 9.796875 48 
C 11.90625 48 13.703125 49.296875 13.703125 51.890625 
C 13.703125 54.46875 11.90625 55.765625 9.796875 55.765625 
C 9.40625 55.765625 8.90625 55.765625 8.5 55.578125 
C 11.40625 61.859375 19.296875 63 22.796875 63 
C 26.296875 63 32.90625 61.328125 32.90625 51.875 
C 32.90625 49.109375 32.5 44.1875 29.09375 39.84375 
C 26.09375 36 22.703125 36 19.40625 35.6875 
C 18.90625 35.6875 16.59375 35.453125 16.203125 35.453125 
C 15.5 35.359375 15.09375 35.265625 15.09375 34.5 
C 15.09375 33.796875 15.203125 33.703125 17.203125 33.703125 
z
" id="CMR17-51"/>
      </defs>
      <g style="fill:#ffffff;" transform="translate(51.807964 63.445229)scale(0.19 -0.19)">
       <use transform="scale(0.996264)" xlink:href="#CMR17-49"/>
       <use transform="translate(45.690477 0)scale(0.996264)" xlink:href="#CMMI12-58"/>
       <use transform="translate(72.787654 0)scale(0.996264)" xlink:href="#CMR17-48"/>
       <use transform="translate(118.478131 0)scale(0.996264)" xlink:href="#CMR17-51"/>
      </g>
     </g>
    </g>
    <g id="text_15">
     <!-- Fano factor -->
     <defs>
      <path d="M 45.59375 31 
L 45.59375 37.078125 
L 17.203125 37.078125 
L 17.203125 62 
L 29.40625 62 
C 30.59375 62 31.796875 62 33 62 
L 49.5 62 
L 49.5 68.359375 
L 8.796875 68.359375 
L 8.796875 -0.5 
L 17.203125 -0.5 
L 17.203125 31 
z
" id="CMSS17-70"/>
      <path d="M 37.59375 27.984375 
C 37.59375 37.375 30.90625 43.875 21.90625 43.875 
C 17.5 43.875 12.703125 43.078125 7.203125 39.890625 
L 7.796875 33.359375 
C 10.296875 35.125 14.59375 38 21.796875 38 
C 26.90625 38 30 34.0625 30 27.84375 
L 30 24 
C 14 24 4 19.34375 4 11.34375 
C 4 7.203125 6.5 -1 14.796875 -1 
C 16.296875 -1 24.40625 -1 30.203125 3.390625 
L 30.203125 -0.296875 
L 37.59375 -0.296875 
z
M 30 12.75 
C 30 10.953125 30 8.5625 27 6.78125 
C 24.40625 5.078125 21.09375 5.078125 19.703125 5.078125 
C 14.703125 5.078125 11.296875 7.984375 11.296875 11.625 
C 11.296875 18.921875 26.90625 18.921875 30 18.921875 
z
" id="CMSS17-97"/>
      <path d="M 16.796875 37 
L 26.90625 37 
L 26.90625 42.765625 
L 16.59375 42.765625 
L 16.59375 55.609375 
C 16.59375 62.71875 22 63.9375 25.09375 63.9375 
C 26.09375 63.9375 28.90625 63.9375 32.5 62.640625 
L 32.5 69.203125 
C 30.203125 69.703125 27.40625 70 25.203125 70 
C 15.90625 70 9.40625 62.390625 9.40625 52.484375 
L 9.40625 42.765625 
L 2.5 42.765625 
L 2.5 37 
L 9.40625 37 
L 9.40625 0 
L 16.796875 0 
z
" id="CMSS17-102"/>
      <path d="M 38.5 39.703125 
C 38.5 40.390625 33.90625 42.40625 32.703125 42.796875 
C 29.40625 44 25.203125 44 24.09375 44 
C 11.09375 44 3.296875 32.703125 3.296875 21.296875 
C 3.296875 9.296875 12 -1 23.703125 -1 
C 30.40625 -1 35.203125 1.1875 39.09375 3.78125 
L 38.5 10.375 
C 34.203125 7.078125 29.203125 5.265625 23.796875 5.265625 
C 16 5.265625 10.90625 12.09375 10.90625 21.390625 
C 10.90625 28.609375 14.203125 37.71875 24.203125 37.71875 
C 29.703125 37.71875 32.796875 36.609375 37.40625 33.515625 
z
" id="CMSS17-99"/>
      <path d="M 16.703125 37 
L 29.703125 37 
L 29.703125 42.765625 
L 16.703125 42.765625 
L 16.703125 55 
L 9.59375 55 
L 9.59375 42.765625 
L 1.703125 42.765625 
L 1.703125 37 
L 9.40625 37 
L 9.40625 11.703125 
C 9.40625 6 10.703125 -1 17.296875 -1 
C 22.296875 -1 26.90625 0.390625 31.296875 2.6875 
L 29.703125 8.5625 
C 27.296875 6.46875 24.40625 5.265625 21.296875 5.265625 
C 16.90625 5.265625 16.703125 10.875 16.703125 13.375 
z
" id="CMSS17-116"/>
      <path d="M 14.90625 21.296875 
C 14.90625 30.703125 21.796875 37 30.59375 37 
L 30.59375 43.578125 
C 24.203125 43.578125 18.203125 40.390625 14.59375 35.203125 
L 14.59375 43.09375 
L 7.5 43.09375 
L 7.5 0 
L 14.90625 0 
z
" id="CMSS17-114"/>
     </defs>
     <g style="fill:#ffffff;" transform="translate(44.126123 221.570352)rotate(-90)scale(0.19 -0.19)">
      <use transform="scale(0.996264)" xlink:href="#CMSS17-70"/>
      <use transform="translate(50.687105 0)scale(0.996264)" xlink:href="#CMSS17-97"/>
      <use transform="translate(95.609026 0)scale(0.996264)" xlink:href="#CMSS17-110"/>
      <use transform="translate(143.813969 0)scale(0.996264)" xlink:href="#CMSS17-111"/>
      <use transform="translate(221.886705 0)scale(0.996264)" xlink:href="#CMSS17-102"/>
      <use transform="translate(250.513364 0)scale(0.996264)" xlink:href="#CMSS17-97"/>
      <use transform="translate(295.435285 0)scale(0.996264)" xlink:href="#CMSS17-99"/>
      <use transform="translate(337.074107 0)scale(0.996264)" xlink:href="#CMSS17-116"/>
      <use transform="translate(370.905674 0)scale(0.996264)" xlink:href="#CMSS17-111"/>
      <use transform="translate(415.146843 0)scale(0.996264)" xlink:href="#CMSS17-114"/>
     </g>
    </g>
   </g>
   <g id="patch_3">
    <path d="M 90 315 
L 90 43.2 
" style="fill:none;stroke:#ffffff;stroke-linecap:square;stroke-linejoin:miter;stroke-width:0.8;"/>
   </g>
   <g id="patch_4">
    <path d="M 648 315 
L 648 43.2 
" style="fill:none;stroke:#ffffff;stroke-linecap:square;stroke-linejoin:miter;stroke-width:0.8;"/>
   </g>
   <g id="patch_5">
    <path d="M 90 315 
L 648 315 
" style="fill:none;stroke:#ffffff;stroke-linecap:square;stroke-linejoin:miter;stroke-width:0.8;"/>
   </g>
   <g id="patch_6">
    <path d="M 90 43.2 
L 648 43.2 
" style="fill:none;stroke:#ffffff;stroke-linecap:square;stroke-linejoin:miter;stroke-width:0.8;"/>
   </g>
   <g id="text_16">
    <!-- Fano factor for different window sizes -->
    <defs>
     <path d="M 16.796875 37 
L 27.09375 37 
L 27.09375 42.765625 
L 16.59375 42.765625 
L 16.59375 55.609375 
C 16.59375 62.515625 21.796875 63.9375 25.203125 63.9375 
C 28.703125 63.9375 31.59375 63.03125 32.703125 62.640625 
L 32.703125 69.203125 
C 31.59375 69.40625 28.59375 70 25.296875 70 
C 16.09375 70 9.40625 62.484375 9.40625 52.484375 
L 9.40625 42.765625 
L 2.5 42.765625 
L 2.5 37 
L 9.40625 37 
L 9.40625 0 
L 16.796875 0 
z
M 42.796875 37 
L 53.09375 37 
L 53.09375 42.765625 
L 42.59375 42.765625 
L 42.59375 55.609375 
C 42.59375 62.515625 47.796875 63.9375 51.203125 63.9375 
C 54.703125 63.9375 57.59375 63.03125 58.703125 62.640625 
L 58.703125 69.203125 
C 57.59375 69.40625 54.59375 70 51.296875 70 
C 42.09375 70 35.40625 62.515625 35.40625 52.546875 
L 35.40625 0 
L 42.796875 0 
z
" id="CMSS17-11"/>
    </defs>
    <g style="fill:#ffffff;" transform="translate(201.898162 37.2)scale(0.228 -0.228)">
     <use transform="scale(0.996264)" xlink:href="#CMSS17-70"/>
     <use transform="translate(50.687105 0)scale(0.996264)" xlink:href="#CMSS17-97"/>
     <use transform="translate(95.609026 0)scale(0.996264)" xlink:href="#CMSS17-110"/>
     <use transform="translate(143.813969 0)scale(0.996264)" xlink:href="#CMSS17-111"/>
     <use transform="translate(221.886705 0)scale(0.996264)" xlink:href="#CMSS17-102"/>
     <use transform="translate(250.513364 0)scale(0.996264)" xlink:href="#CMSS17-97"/>
     <use transform="translate(295.435285 0)scale(0.996264)" xlink:href="#CMSS17-99"/>
     <use transform="translate(337.074107 0)scale(0.996264)" xlink:href="#CMSS17-116"/>
     <use transform="translate(370.905674 0)scale(0.996264)" xlink:href="#CMSS17-111"/>
     <use transform="translate(415.146843 0)scale(0.996264)" xlink:href="#CMSS17-114"/>
     <use transform="translate(478.285728 0)scale(0.996264)" xlink:href="#CMSS17-102"/>
     <use transform="translate(506.912387 0)scale(0.996264)" xlink:href="#CMSS17-111"/>
     <use transform="translate(551.153557 0)scale(0.996264)" xlink:href="#CMSS17-114"/>
     <use transform="translate(614.292442 0)scale(0.996264)" xlink:href="#CMSS17-100"/>
     <use transform="translate(662.497385 0)scale(0.996264)" xlink:href="#CMSS17-105"/>
     <use transform="translate(684.678108 0)scale(0.996264)" xlink:href="#CMSS17-11"/>
     <use transform="translate(739.329078 0)scale(0.996264)" xlink:href="#CMSS17-101"/>
     <use transform="translate(780.967901 0)scale(0.996264)" xlink:href="#CMSS17-114"/>
     <use transform="translate(812.877673 0)scale(0.996264)" xlink:href="#CMSS17-101"/>
     <use transform="translate(854.516495 0)scale(0.996264)" xlink:href="#CMSS17-110"/>
     <use transform="translate(902.721438 0)scale(0.996264)" xlink:href="#CMSS17-116"/>
     <use transform="translate(967.782118 0)scale(0.996264)" xlink:href="#CMSS17-119"/>
     <use transform="translate(1031.601663 0)scale(0.996264)" xlink:href="#CMSS17-105"/>
     <use transform="translate(1053.782386 0)scale(0.996264)" xlink:href="#CMSS17-110"/>
     <use transform="translate(1101.987329 0)scale(0.996264)" xlink:href="#CMSS17-100"/>
     <use transform="translate(1150.192272 0)scale(0.996264)" xlink:href="#CMSS17-111"/>
     <use transform="translate(1194.433442 0)scale(0.996264)" xlink:href="#CMSS17-119"/>
     <use transform="translate(1289.4821 0)scale(0.996264)" xlink:href="#CMSS17-115"/>
     <use transform="translate(1325.395642 0)scale(0.996264)" xlink:href="#CMSS17-105"/>
     <use transform="translate(1347.576365 0)scale(0.996264)" xlink:href="#CMSS17-122"/>
     <use transform="translate(1388.254236 0)scale(0.996264)" xlink:href="#CMSS17-101"/>
     <use transform="translate(1429.893059 0)scale(0.996264)" xlink:href="#CMSS17-115"/>
    </g>
   </g>
  </g>
 </g>
 <defs>
  <clipPath id="pf13a493384">
   <rect height="271.8" width="558" x="90" y="43.2"/>
  </clipPath>
 </defs>
</svg>
