<?xml version="1.0" encoding="utf-8" standalone="no"?>
<!DOCTYPE svg PUBLIC "-//W3C//DTD SVG 1.1//EN"
  "http://www.w3.org/Graphics/SVG/1.1/DTD/svg11.dtd">
<!-- Created with matplotlib (https://matplotlib.org/) -->
<svg height="360pt" version="1.1" viewBox="0 0 720 360" width="720pt" xmlns="http://www.w3.org/2000/svg" xmlns:xlink="http://www.w3.org/1999/xlink">
 <defs>
  <style type="text/css">
*{stroke-linecap:butt;stroke-linejoin:round;}
  </style>
 </defs>
 <g id="figure_1">
  <g id="patch_1">
   <path d="M 0 360 
L 720 360 
L 720 0 
L 0 0 
z
"/>
  </g>
  <g id="axes_1">
   <g id="patch_2">
    <path d="M 90 315 
L 648 315 
L 648 43.2 
L 90 43.2 
z
"/>
   </g>
   <g id="patch_3">
    <path clip-path="url(#p1bcc56ac17)" d="M 115.363636 315 
L 122.42294 315 
L 122.42294 99.807123 
L 115.363636 99.807123 
z
" style="fill:#8dd3c7;opacity:0.33;stroke:#8dd3c7;stroke-linejoin:miter;"/>
   </g>
   <g id="patch_4">
    <path clip-path="url(#p1bcc56ac17)" d="M 122.42294 315 
L 129.482244 315 
L 129.482244 56.142857 
L 122.42294 56.142857 
z
" style="fill:#8dd3c7;opacity:0.33;stroke:#8dd3c7;stroke-linejoin:miter;"/>
   </g>
   <g id="patch_5">
    <path clip-path="url(#p1bcc56ac17)" d="M 129.482244 315 
L 136.541548 315 
L 136.541548 109.117995 
L 129.482244 109.117995 
z
" style="fill:#8dd3c7;opacity:0.33;stroke:#8dd3c7;stroke-linejoin:miter;"/>
   </g>
   <g id="patch_6">
    <path clip-path="url(#p1bcc56ac17)" d="M 136.541548 315 
L 143.600851 315 
L 143.600851 158.264503 
L 136.541548 158.264503 
z
" style="fill:#8dd3c7;opacity:0.33;stroke:#8dd3c7;stroke-linejoin:miter;"/>
   </g>
   <g id="patch_7">
    <path clip-path="url(#p1bcc56ac17)" d="M 143.600851 315 
L 150.660155 315 
L 150.660155 190.904696 
L 143.600851 190.904696 
z
" style="fill:#8dd3c7;opacity:0.33;stroke:#8dd3c7;stroke-linejoin:miter;"/>
   </g>
   <g id="patch_8">
    <path clip-path="url(#p1bcc56ac17)" d="M 150.660155 315 
L 157.719459 315 
L 157.719459 220.014207 
L 150.660155 220.014207 
z
" style="fill:#8dd3c7;opacity:0.33;stroke:#8dd3c7;stroke-linejoin:miter;"/>
   </g>
   <g id="patch_9">
    <path clip-path="url(#p1bcc56ac17)" d="M 157.719459 315 
L 164.778763 315 
L 164.778763 241.794199 
L 157.719459 241.794199 
z
" style="fill:#8dd3c7;opacity:0.33;stroke:#8dd3c7;stroke-linejoin:miter;"/>
   </g>
   <g id="patch_10">
    <path clip-path="url(#p1bcc56ac17)" d="M 164.778763 315 
L 171.838067 315 
L 171.838067 259.790253 
L 164.778763 259.790253 
z
" style="fill:#8dd3c7;opacity:0.33;stroke:#8dd3c7;stroke-linejoin:miter;"/>
   </g>
   <g id="patch_11">
    <path clip-path="url(#p1bcc56ac17)" d="M 171.838067 315 
L 178.89737 315 
L 178.89737 272.661602 
L 171.838067 272.661602 
z
" style="fill:#8dd3c7;opacity:0.33;stroke:#8dd3c7;stroke-linejoin:miter;"/>
   </g>
   <g id="patch_12">
    <path clip-path="url(#p1bcc56ac17)" d="M 178.89737 315 
L 185.956674 315 
L 185.956674 281.749013 
L 178.89737 281.749013 
z
" style="fill:#8dd3c7;opacity:0.33;stroke:#8dd3c7;stroke-linejoin:miter;"/>
   </g>
   <g id="patch_13">
    <path clip-path="url(#p1bcc56ac17)" d="M 185.956674 315 
L 193.015978 315 
L 193.015978 289.287096 
L 185.956674 289.287096 
z
" style="fill:#8dd3c7;opacity:0.33;stroke:#8dd3c7;stroke-linejoin:miter;"/>
   </g>
   <g id="patch_14">
    <path clip-path="url(#p1bcc56ac17)" d="M 193.015978 315 
L 200.075282 315 
L 200.075282 295.231156 
L 193.015978 295.231156 
z
" style="fill:#8dd3c7;opacity:0.33;stroke:#8dd3c7;stroke-linejoin:miter;"/>
   </g>
   <g id="patch_15">
    <path clip-path="url(#p1bcc56ac17)" d="M 200.075282 315 
L 207.134585 315 
L 207.134585 299.745067 
L 200.075282 299.745067 
z
" style="fill:#8dd3c7;opacity:0.33;stroke:#8dd3c7;stroke-linejoin:miter;"/>
   </g>
   <g id="patch_16">
    <path clip-path="url(#p1bcc56ac17)" d="M 207.134585 315 
L 214.193889 315 
L 214.193889 303.394929 
L 207.134585 303.394929 
z
" style="fill:#8dd3c7;opacity:0.33;stroke:#8dd3c7;stroke-linejoin:miter;"/>
   </g>
   <g id="patch_17">
    <path clip-path="url(#p1bcc56ac17)" d="M 214.193889 315 
L 221.253193 315 
L 221.253193 306.091358 
L 214.193889 306.091358 
z
" style="fill:#8dd3c7;opacity:0.33;stroke:#8dd3c7;stroke-linejoin:miter;"/>
   </g>
   <g id="patch_18">
    <path clip-path="url(#p1bcc56ac17)" d="M 221.253193 315 
L 228.312497 315 
L 228.312497 308.102506 
L 221.253193 308.102506 
z
" style="fill:#8dd3c7;opacity:0.33;stroke:#8dd3c7;stroke-linejoin:miter;"/>
   </g>
   <g id="patch_19">
    <path clip-path="url(#p1bcc56ac17)" d="M 228.312497 315 
L 235.3718 315 
L 235.3718 309.741219 
L 228.312497 309.741219 
z
" style="fill:#8dd3c7;opacity:0.33;stroke:#8dd3c7;stroke-linejoin:miter;"/>
   </g>
   <g id="patch_20">
    <path clip-path="url(#p1bcc56ac17)" d="M 235.3718 315 
L 242.431104 315 
L 242.431104 310.500987 
L 235.3718 310.500987 
z
" style="fill:#8dd3c7;opacity:0.33;stroke:#8dd3c7;stroke-linejoin:miter;"/>
   </g>
   <g id="patch_21">
    <path clip-path="url(#p1bcc56ac17)" d="M 242.431104 315 
L 249.490408 315 
L 249.490408 311.931137 
L 242.431104 311.931137 
z
" style="fill:#8dd3c7;opacity:0.33;stroke:#8dd3c7;stroke-linejoin:miter;"/>
   </g>
   <g id="patch_22">
    <path clip-path="url(#p1bcc56ac17)" d="M 249.490408 315 
L 256.549712 315 
L 256.549712 312.109905 
L 249.490408 312.109905 
z
" style="fill:#8dd3c7;opacity:0.33;stroke:#8dd3c7;stroke-linejoin:miter;"/>
   </g>
   <g id="patch_23">
    <path clip-path="url(#p1bcc56ac17)" d="M 256.549712 315 
L 263.609016 315 
L 263.609016 312.988852 
L 256.549712 312.988852 
z
" style="fill:#8dd3c7;opacity:0.33;stroke:#8dd3c7;stroke-linejoin:miter;"/>
   </g>
   <g id="patch_24">
    <path clip-path="url(#p1bcc56ac17)" d="M 263.609016 315 
L 270.668319 315 
L 270.668319 313.942285 
L 263.609016 313.942285 
z
" style="fill:#8dd3c7;opacity:0.33;stroke:#8dd3c7;stroke-linejoin:miter;"/>
   </g>
   <g id="patch_25">
    <path clip-path="url(#p1bcc56ac17)" d="M 270.668319 315 
L 277.727623 315 
L 277.727623 313.62944 
L 270.668319 313.62944 
z
" style="fill:#8dd3c7;opacity:0.33;stroke:#8dd3c7;stroke-linejoin:miter;"/>
   </g>
   <g id="patch_26">
    <path clip-path="url(#p1bcc56ac17)" d="M 277.727623 315 
L 284.786927 315 
L 284.786927 314.359412 
L 277.727623 314.359412 
z
" style="fill:#8dd3c7;opacity:0.33;stroke:#8dd3c7;stroke-linejoin:miter;"/>
   </g>
   <g id="patch_27">
    <path clip-path="url(#p1bcc56ac17)" d="M 284.786927 315 
L 291.846231 315 
L 291.846231 314.344515 
L 284.786927 314.344515 
z
" style="fill:#8dd3c7;opacity:0.33;stroke:#8dd3c7;stroke-linejoin:miter;"/>
   </g>
   <g id="patch_28">
    <path clip-path="url(#p1bcc56ac17)" d="M 291.846231 315 
L 298.905534 315 
L 298.905534 314.448796 
L 291.846231 314.448796 
z
" style="fill:#8dd3c7;opacity:0.33;stroke:#8dd3c7;stroke-linejoin:miter;"/>
   </g>
   <g id="patch_29">
    <path clip-path="url(#p1bcc56ac17)" d="M 298.905534 315 
L 305.964838 315 
L 305.964838 314.553078 
L 298.905534 314.553078 
z
" style="fill:#8dd3c7;opacity:0.33;stroke:#8dd3c7;stroke-linejoin:miter;"/>
   </g>
   <g id="patch_30">
    <path clip-path="url(#p1bcc56ac17)" d="M 305.964838 315 
L 313.024142 315 
L 313.024142 314.627565 
L 305.964838 314.627565 
z
" style="fill:#8dd3c7;opacity:0.33;stroke:#8dd3c7;stroke-linejoin:miter;"/>
   </g>
   <g id="patch_31">
    <path clip-path="url(#p1bcc56ac17)" d="M 313.024142 315 
L 320.083446 315 
L 320.083446 314.836129 
L 313.024142 314.836129 
z
" style="fill:#8dd3c7;opacity:0.33;stroke:#8dd3c7;stroke-linejoin:miter;"/>
   </g>
   <g id="patch_32">
    <path clip-path="url(#p1bcc56ac17)" d="M 320.083446 315 
L 327.142749 315 
L 327.142749 314.851026 
L 320.083446 314.851026 
z
" style="fill:#8dd3c7;opacity:0.33;stroke:#8dd3c7;stroke-linejoin:miter;"/>
   </g>
   <g id="patch_33">
    <path clip-path="url(#p1bcc56ac17)" d="M 327.142749 315 
L 334.202053 315 
L 334.202053 314.880821 
L 327.142749 314.880821 
z
" style="fill:#8dd3c7;opacity:0.33;stroke:#8dd3c7;stroke-linejoin:miter;"/>
   </g>
   <g id="patch_34">
    <path clip-path="url(#p1bcc56ac17)" d="M 334.202053 315 
L 341.261357 315 
L 341.261357 314.806334 
L 334.202053 314.806334 
z
" style="fill:#8dd3c7;opacity:0.33;stroke:#8dd3c7;stroke-linejoin:miter;"/>
   </g>
   <g id="patch_35">
    <path clip-path="url(#p1bcc56ac17)" d="M 341.261357 315 
L 348.320661 315 
L 348.320661 314.94041 
L 341.261357 314.94041 
z
" style="fill:#8dd3c7;opacity:0.33;stroke:#8dd3c7;stroke-linejoin:miter;"/>
   </g>
   <g id="patch_36">
    <path clip-path="url(#p1bcc56ac17)" d="M 348.320661 315 
L 355.379965 315 
L 355.379965 314.970205 
L 348.320661 314.970205 
z
" style="fill:#8dd3c7;opacity:0.33;stroke:#8dd3c7;stroke-linejoin:miter;"/>
   </g>
   <g id="patch_37">
    <path clip-path="url(#p1bcc56ac17)" d="M 355.379965 315 
L 362.439268 315 
L 362.439268 314.970205 
L 355.379965 314.970205 
z
" style="fill:#8dd3c7;opacity:0.33;stroke:#8dd3c7;stroke-linejoin:miter;"/>
   </g>
   <g id="patch_38">
    <path clip-path="url(#p1bcc56ac17)" d="M 362.439268 315 
L 369.498572 315 
L 369.498572 314.970205 
L 362.439268 314.970205 
z
" style="fill:#8dd3c7;opacity:0.33;stroke:#8dd3c7;stroke-linejoin:miter;"/>
   </g>
   <g id="patch_39">
    <path clip-path="url(#p1bcc56ac17)" d="M 369.498572 315 
L 376.557876 315 
L 376.557876 314.970205 
L 369.498572 314.970205 
z
" style="fill:#8dd3c7;opacity:0.33;stroke:#8dd3c7;stroke-linejoin:miter;"/>
   </g>
   <g id="patch_40">
    <path clip-path="url(#p1bcc56ac17)" d="M 376.557876 315 
L 383.61718 315 
L 383.61718 314.970205 
L 376.557876 314.970205 
z
" style="fill:#8dd3c7;opacity:0.33;stroke:#8dd3c7;stroke-linejoin:miter;"/>
   </g>
   <g id="patch_41">
    <path clip-path="url(#p1bcc56ac17)" d="M 383.61718 315 
L 390.676483 315 
L 390.676483 315 
L 383.61718 315 
z
" style="fill:#8dd3c7;opacity:0.33;stroke:#8dd3c7;stroke-linejoin:miter;"/>
   </g>
   <g id="patch_42">
    <path clip-path="url(#p1bcc56ac17)" d="M 390.676483 315 
L 397.735787 315 
L 397.735787 315 
L 390.676483 315 
z
" style="fill:#8dd3c7;opacity:0.33;stroke:#8dd3c7;stroke-linejoin:miter;"/>
   </g>
   <g id="patch_43">
    <path clip-path="url(#p1bcc56ac17)" d="M 397.735787 315 
L 404.795091 315 
L 404.795091 314.970205 
L 397.735787 314.970205 
z
" style="fill:#8dd3c7;opacity:0.33;stroke:#8dd3c7;stroke-linejoin:miter;"/>
   </g>
   <g id="patch_44">
    <path clip-path="url(#p1bcc56ac17)" d="M 404.795091 315 
L 411.854395 315 
L 411.854395 314.985103 
L 404.795091 314.985103 
z
" style="fill:#8dd3c7;opacity:0.33;stroke:#8dd3c7;stroke-linejoin:miter;"/>
   </g>
   <g id="patch_45">
    <path clip-path="url(#p1bcc56ac17)" d="M 411.854395 315 
L 418.913698 315 
L 418.913698 315 
L 411.854395 315 
z
" style="fill:#8dd3c7;opacity:0.33;stroke:#8dd3c7;stroke-linejoin:miter;"/>
   </g>
   <g id="patch_46">
    <path clip-path="url(#p1bcc56ac17)" d="M 418.913698 315 
L 425.973002 315 
L 425.973002 314.985103 
L 418.913698 314.985103 
z
" style="fill:#8dd3c7;opacity:0.33;stroke:#8dd3c7;stroke-linejoin:miter;"/>
   </g>
   <g id="patch_47">
    <path clip-path="url(#p1bcc56ac17)" d="M 425.973002 315 
L 433.032306 315 
L 433.032306 315 
L 425.973002 315 
z
" style="fill:#8dd3c7;opacity:0.33;stroke:#8dd3c7;stroke-linejoin:miter;"/>
   </g>
   <g id="patch_48">
    <path clip-path="url(#p1bcc56ac17)" d="M 433.032306 315 
L 440.09161 315 
L 440.09161 315 
L 433.032306 315 
z
" style="fill:#8dd3c7;opacity:0.33;stroke:#8dd3c7;stroke-linejoin:miter;"/>
   </g>
   <g id="patch_49">
    <path clip-path="url(#p1bcc56ac17)" d="M 440.09161 315 
L 447.150914 315 
L 447.150914 315 
L 440.09161 315 
z
" style="fill:#8dd3c7;opacity:0.33;stroke:#8dd3c7;stroke-linejoin:miter;"/>
   </g>
   <g id="patch_50">
    <path clip-path="url(#p1bcc56ac17)" d="M 447.150914 315 
L 454.210217 315 
L 454.210217 315 
L 447.150914 315 
z
" style="fill:#8dd3c7;opacity:0.33;stroke:#8dd3c7;stroke-linejoin:miter;"/>
   </g>
   <g id="patch_51">
    <path clip-path="url(#p1bcc56ac17)" d="M 454.210217 315 
L 461.269521 315 
L 461.269521 315 
L 454.210217 315 
z
" style="fill:#8dd3c7;opacity:0.33;stroke:#8dd3c7;stroke-linejoin:miter;"/>
   </g>
   <g id="patch_52">
    <path clip-path="url(#p1bcc56ac17)" d="M 461.269521 315 
L 468.328825 315 
L 468.328825 314.985103 
L 461.269521 314.985103 
z
" style="fill:#8dd3c7;opacity:0.33;stroke:#8dd3c7;stroke-linejoin:miter;"/>
   </g>
   <g id="patch_53">
    <path clip-path="url(#p1bcc56ac17)" d="M 115.404938 315 
L 122.264694 315 
L 122.264694 288.959353 
L 115.404938 288.959353 
z
" style="fill:#feffb3;opacity:0.33;stroke:#feffb3;stroke-linejoin:miter;"/>
   </g>
   <g id="patch_54">
    <path clip-path="url(#p1bcc56ac17)" d="M 122.264694 315 
L 129.12445 315 
L 129.12445 249.838792 
L 122.264694 249.838792 
z
" style="fill:#feffb3;opacity:0.33;stroke:#feffb3;stroke-linejoin:miter;"/>
   </g>
   <g id="patch_55">
    <path clip-path="url(#p1bcc56ac17)" d="M 129.12445 315 
L 135.984206 315 
L 135.984206 229.101618 
L 129.12445 229.101618 
z
" style="fill:#feffb3;opacity:0.33;stroke:#feffb3;stroke-linejoin:miter;"/>
   </g>
   <g id="patch_56">
    <path clip-path="url(#p1bcc56ac17)" d="M 135.984206 315 
L 142.843963 315 
L 142.843963 219.969515 
L 135.984206 219.969515 
z
" style="fill:#feffb3;opacity:0.33;stroke:#feffb3;stroke-linejoin:miter;"/>
   </g>
   <g id="patch_57">
    <path clip-path="url(#p1bcc56ac17)" d="M 142.843963 315 
L 149.703719 315 
L 149.703719 220.207873 
L 142.843963 220.207873 
z
" style="fill:#feffb3;opacity:0.33;stroke:#feffb3;stroke-linejoin:miter;"/>
   </g>
   <g id="patch_58">
    <path clip-path="url(#p1bcc56ac17)" d="M 149.703719 315 
L 156.563475 315 
L 156.563475 228.565312 
L 149.703719 228.565312 
z
" style="fill:#feffb3;opacity:0.33;stroke:#feffb3;stroke-linejoin:miter;"/>
   </g>
   <g id="patch_59">
    <path clip-path="url(#p1bcc56ac17)" d="M 156.563475 315 
L 163.423231 315 
L 163.423231 239.783051 
L 156.563475 239.783051 
z
" style="fill:#feffb3;opacity:0.33;stroke:#feffb3;stroke-linejoin:miter;"/>
   </g>
   <g id="patch_60">
    <path clip-path="url(#p1bcc56ac17)" d="M 163.423231 315 
L 170.282988 315 
L 170.282988 249.779203 
L 163.423231 249.779203 
z
" style="fill:#feffb3;opacity:0.33;stroke:#feffb3;stroke-linejoin:miter;"/>
   </g>
   <g id="patch_61">
    <path clip-path="url(#p1bcc56ac17)" d="M 170.282988 315 
L 177.142744 315 
L 177.142744 259.507202 
L 170.282988 259.507202 
z
" style="fill:#feffb3;opacity:0.33;stroke:#feffb3;stroke-linejoin:miter;"/>
   </g>
   <g id="patch_62">
    <path clip-path="url(#p1bcc56ac17)" d="M 177.142744 315 
L 184.0025 315 
L 184.0025 270.15884 
L 177.142744 270.15884 
z
" style="fill:#feffb3;opacity:0.33;stroke:#feffb3;stroke-linejoin:miter;"/>
   </g>
   <g id="patch_63">
    <path clip-path="url(#p1bcc56ac17)" d="M 184.0025 315 
L 190.862256 315 
L 190.862256 278.382202 
L 184.0025 278.382202 
z
" style="fill:#feffb3;opacity:0.33;stroke:#feffb3;stroke-linejoin:miter;"/>
   </g>
   <g id="patch_64">
    <path clip-path="url(#p1bcc56ac17)" d="M 190.862256 315 
L 197.722012 315 
L 197.722012 286.814128 
L 190.862256 286.814128 
z
" style="fill:#feffb3;opacity:0.33;stroke:#feffb3;stroke-linejoin:miter;"/>
   </g>
   <g id="patch_65">
    <path clip-path="url(#p1bcc56ac17)" d="M 197.722012 315 
L 204.581769 315 
L 204.581769 291.477013 
L 197.722012 291.477013 
z
" style="fill:#feffb3;opacity:0.33;stroke:#feffb3;stroke-linejoin:miter;"/>
   </g>
   <g id="patch_66">
    <path clip-path="url(#p1bcc56ac17)" d="M 204.581769 315 
L 211.441525 315 
L 211.441525 296.154795 
L 204.581769 296.154795 
z
" style="fill:#feffb3;opacity:0.33;stroke:#feffb3;stroke-linejoin:miter;"/>
   </g>
   <g id="patch_67">
    <path clip-path="url(#p1bcc56ac17)" d="M 211.441525 315 
L 218.301281 315 
L 218.301281 300.445245 
L 211.441525 300.445245 
z
" style="fill:#feffb3;opacity:0.33;stroke:#feffb3;stroke-linejoin:miter;"/>
   </g>
   <g id="patch_68">
    <path clip-path="url(#p1bcc56ac17)" d="M 218.301281 315 
L 225.161037 315 
L 225.161037 303.573698 
L 218.301281 303.573698 
z
" style="fill:#feffb3;opacity:0.33;stroke:#feffb3;stroke-linejoin:miter;"/>
   </g>
   <g id="patch_69">
    <path clip-path="url(#p1bcc56ac17)" d="M 225.161037 315 
L 232.020793 315 
L 232.020793 306.121152 
L 225.161037 306.121152 
z
" style="fill:#feffb3;opacity:0.33;stroke:#feffb3;stroke-linejoin:miter;"/>
   </g>
   <g id="patch_70">
    <path clip-path="url(#p1bcc56ac17)" d="M 232.020793 315 
L 238.88055 315 
L 238.88055 308.132301 
L 232.020793 308.132301 
z
" style="fill:#feffb3;opacity:0.33;stroke:#feffb3;stroke-linejoin:miter;"/>
   </g>
   <g id="patch_71">
    <path clip-path="url(#p1bcc56ac17)" d="M 238.88055 315 
L 245.740306 315 
L 245.740306 309.383682 
L 238.88055 309.383682 
z
" style="fill:#feffb3;opacity:0.33;stroke:#feffb3;stroke-linejoin:miter;"/>
   </g>
   <g id="patch_72">
    <path clip-path="url(#p1bcc56ac17)" d="M 245.740306 315 
L 252.600062 315 
L 252.600062 310.635063 
L 245.740306 310.635063 
z
" style="fill:#feffb3;opacity:0.33;stroke:#feffb3;stroke-linejoin:miter;"/>
   </g>
   <g id="patch_73">
    <path clip-path="url(#p1bcc56ac17)" d="M 252.600062 315 
L 259.459818 315 
L 259.459818 311.558702 
L 252.600062 311.558702 
z
" style="fill:#feffb3;opacity:0.33;stroke:#feffb3;stroke-linejoin:miter;"/>
   </g>
   <g id="patch_74">
    <path clip-path="url(#p1bcc56ac17)" d="M 259.459818 315 
L 266.319574 315 
L 266.319574 311.707676 
L 259.459818 311.707676 
z
" style="fill:#feffb3;opacity:0.33;stroke:#feffb3;stroke-linejoin:miter;"/>
   </g>
   <g id="patch_75">
    <path clip-path="url(#p1bcc56ac17)" d="M 266.319574 315 
L 273.179331 315 
L 273.179331 313.063339 
L 266.319574 313.063339 
z
" style="fill:#feffb3;opacity:0.33;stroke:#feffb3;stroke-linejoin:miter;"/>
   </g>
   <g id="patch_76">
    <path clip-path="url(#p1bcc56ac17)" d="M 273.179331 315 
L 280.039087 315 
L 280.039087 313.242107 
L 273.179331 313.242107 
z
" style="fill:#feffb3;opacity:0.33;stroke:#feffb3;stroke-linejoin:miter;"/>
   </g>
   <g id="patch_77">
    <path clip-path="url(#p1bcc56ac17)" d="M 280.039087 315 
L 286.898843 315 
L 286.898843 314.016772 
L 280.039087 314.016772 
z
" style="fill:#feffb3;opacity:0.33;stroke:#feffb3;stroke-linejoin:miter;"/>
   </g>
   <g id="patch_78">
    <path clip-path="url(#p1bcc56ac17)" d="M 286.898843 315 
L 293.758599 315 
L 293.758599 314.076361 
L 286.898843 314.076361 
z
" style="fill:#feffb3;opacity:0.33;stroke:#feffb3;stroke-linejoin:miter;"/>
   </g>
   <g id="patch_79">
    <path clip-path="url(#p1bcc56ac17)" d="M 293.758599 315 
L 300.618356 315 
L 300.618356 314.284925 
L 293.758599 314.284925 
z
" style="fill:#feffb3;opacity:0.33;stroke:#feffb3;stroke-linejoin:miter;"/>
   </g>
   <g id="patch_80">
    <path clip-path="url(#p1bcc56ac17)" d="M 300.618356 315 
L 307.478112 315 
L 307.478112 314.404104 
L 300.618356 314.404104 
z
" style="fill:#feffb3;opacity:0.33;stroke:#feffb3;stroke-linejoin:miter;"/>
   </g>
   <g id="patch_81">
    <path clip-path="url(#p1bcc56ac17)" d="M 307.478112 315 
L 314.337868 315 
L 314.337868 314.672257 
L 307.478112 314.672257 
z
" style="fill:#feffb3;opacity:0.33;stroke:#feffb3;stroke-linejoin:miter;"/>
   </g>
   <g id="patch_82">
    <path clip-path="url(#p1bcc56ac17)" d="M 314.337868 315 
L 321.197624 315 
L 321.197624 314.59777 
L 314.337868 314.59777 
z
" style="fill:#feffb3;opacity:0.33;stroke:#feffb3;stroke-linejoin:miter;"/>
   </g>
   <g id="patch_83">
    <path clip-path="url(#p1bcc56ac17)" d="M 321.197624 315 
L 328.05738 315 
L 328.05738 314.731847 
L 321.197624 314.731847 
z
" style="fill:#feffb3;opacity:0.33;stroke:#feffb3;stroke-linejoin:miter;"/>
   </g>
   <g id="patch_84">
    <path clip-path="url(#p1bcc56ac17)" d="M 328.05738 315 
L 334.917137 315 
L 334.917137 314.746744 
L 328.05738 314.746744 
z
" style="fill:#feffb3;opacity:0.33;stroke:#feffb3;stroke-linejoin:miter;"/>
   </g>
   <g id="patch_85">
    <path clip-path="url(#p1bcc56ac17)" d="M 334.917137 315 
L 341.776893 315 
L 341.776893 314.791436 
L 334.917137 314.791436 
z
" style="fill:#feffb3;opacity:0.33;stroke:#feffb3;stroke-linejoin:miter;"/>
   </g>
   <g id="patch_86">
    <path clip-path="url(#p1bcc56ac17)" d="M 341.776893 315 
L 348.636649 315 
L 348.636649 314.776539 
L 341.776893 314.776539 
z
" style="fill:#feffb3;opacity:0.33;stroke:#feffb3;stroke-linejoin:miter;"/>
   </g>
   <g id="patch_87">
    <path clip-path="url(#p1bcc56ac17)" d="M 348.636649 315 
L 355.496405 315 
L 355.496405 314.865923 
L 348.636649 314.865923 
z
" style="fill:#feffb3;opacity:0.33;stroke:#feffb3;stroke-linejoin:miter;"/>
   </g>
   <g id="patch_88">
    <path clip-path="url(#p1bcc56ac17)" d="M 355.496405 315 
L 362.356161 315 
L 362.356161 314.895718 
L 355.496405 314.895718 
z
" style="fill:#feffb3;opacity:0.33;stroke:#feffb3;stroke-linejoin:miter;"/>
   </g>
   <g id="patch_89">
    <path clip-path="url(#p1bcc56ac17)" d="M 362.356161 315 
L 369.215918 315 
L 369.215918 314.94041 
L 362.356161 314.94041 
z
" style="fill:#feffb3;opacity:0.33;stroke:#feffb3;stroke-linejoin:miter;"/>
   </g>
   <g id="patch_90">
    <path clip-path="url(#p1bcc56ac17)" d="M 369.215918 315 
L 376.075674 315 
L 376.075674 314.985103 
L 369.215918 314.985103 
z
" style="fill:#feffb3;opacity:0.33;stroke:#feffb3;stroke-linejoin:miter;"/>
   </g>
   <g id="patch_91">
    <path clip-path="url(#p1bcc56ac17)" d="M 376.075674 315 
L 382.93543 315 
L 382.93543 314.955308 
L 376.075674 314.955308 
z
" style="fill:#feffb3;opacity:0.33;stroke:#feffb3;stroke-linejoin:miter;"/>
   </g>
   <g id="patch_92">
    <path clip-path="url(#p1bcc56ac17)" d="M 382.93543 315 
L 389.795186 315 
L 389.795186 314.955308 
L 382.93543 314.955308 
z
" style="fill:#feffb3;opacity:0.33;stroke:#feffb3;stroke-linejoin:miter;"/>
   </g>
   <g id="patch_93">
    <path clip-path="url(#p1bcc56ac17)" d="M 389.795186 315 
L 396.654943 315 
L 396.654943 314.955308 
L 389.795186 314.955308 
z
" style="fill:#feffb3;opacity:0.33;stroke:#feffb3;stroke-linejoin:miter;"/>
   </g>
   <g id="patch_94">
    <path clip-path="url(#p1bcc56ac17)" d="M 396.654943 315 
L 403.514699 315 
L 403.514699 315 
L 396.654943 315 
z
" style="fill:#feffb3;opacity:0.33;stroke:#feffb3;stroke-linejoin:miter;"/>
   </g>
   <g id="patch_95">
    <path clip-path="url(#p1bcc56ac17)" d="M 403.514699 315 
L 410.374455 315 
L 410.374455 314.985103 
L 403.514699 314.985103 
z
" style="fill:#feffb3;opacity:0.33;stroke:#feffb3;stroke-linejoin:miter;"/>
   </g>
   <g id="patch_96">
    <path clip-path="url(#p1bcc56ac17)" d="M 410.374455 315 
L 417.234211 315 
L 417.234211 315 
L 410.374455 315 
z
" style="fill:#feffb3;opacity:0.33;stroke:#feffb3;stroke-linejoin:miter;"/>
   </g>
   <g id="patch_97">
    <path clip-path="url(#p1bcc56ac17)" d="M 417.234211 315 
L 424.093967 315 
L 424.093967 315 
L 417.234211 315 
z
" style="fill:#feffb3;opacity:0.33;stroke:#feffb3;stroke-linejoin:miter;"/>
   </g>
   <g id="patch_98">
    <path clip-path="url(#p1bcc56ac17)" d="M 424.093967 315 
L 430.953724 315 
L 430.953724 314.970205 
L 424.093967 314.970205 
z
" style="fill:#feffb3;opacity:0.33;stroke:#feffb3;stroke-linejoin:miter;"/>
   </g>
   <g id="patch_99">
    <path clip-path="url(#p1bcc56ac17)" d="M 430.953724 315 
L 437.81348 315 
L 437.81348 315 
L 430.953724 315 
z
" style="fill:#feffb3;opacity:0.33;stroke:#feffb3;stroke-linejoin:miter;"/>
   </g>
   <g id="patch_100">
    <path clip-path="url(#p1bcc56ac17)" d="M 437.81348 315 
L 444.673236 315 
L 444.673236 315 
L 437.81348 315 
z
" style="fill:#feffb3;opacity:0.33;stroke:#feffb3;stroke-linejoin:miter;"/>
   </g>
   <g id="patch_101">
    <path clip-path="url(#p1bcc56ac17)" d="M 444.673236 315 
L 451.532992 315 
L 451.532992 315 
L 444.673236 315 
z
" style="fill:#feffb3;opacity:0.33;stroke:#feffb3;stroke-linejoin:miter;"/>
   </g>
   <g id="patch_102">
    <path clip-path="url(#p1bcc56ac17)" d="M 451.532992 315 
L 458.392748 315 
L 458.392748 314.985103 
L 451.532992 314.985103 
z
" style="fill:#feffb3;opacity:0.33;stroke:#feffb3;stroke-linejoin:miter;"/>
   </g>
   <g id="patch_103">
    <path clip-path="url(#p1bcc56ac17)" d="M 116.190906 315 
L 126.319815 315 
L 126.319815 312.348264 
L 116.190906 312.348264 
z
" style="fill:#bfbbd9;opacity:0.33;stroke:#bfbbd9;stroke-linejoin:miter;"/>
   </g>
   <g id="patch_104">
    <path clip-path="url(#p1bcc56ac17)" d="M 126.319815 315 
L 136.448724 315 
L 136.448724 308.087609 
L 126.319815 308.087609 
z
" style="fill:#bfbbd9;opacity:0.33;stroke:#bfbbd9;stroke-linejoin:miter;"/>
   </g>
   <g id="patch_105">
    <path clip-path="url(#p1bcc56ac17)" d="M 136.448724 315 
L 146.577634 315 
L 146.577634 304.065312 
L 136.448724 304.065312 
z
" style="fill:#bfbbd9;opacity:0.33;stroke:#bfbbd9;stroke-linejoin:miter;"/>
   </g>
   <g id="patch_106">
    <path clip-path="url(#p1bcc56ac17)" d="M 146.577634 315 
L 156.706543 315 
L 156.706543 300.117502 
L 146.577634 300.117502 
z
" style="fill:#bfbbd9;opacity:0.33;stroke:#bfbbd9;stroke-linejoin:miter;"/>
   </g>
   <g id="patch_107">
    <path clip-path="url(#p1bcc56ac17)" d="M 156.706543 315 
L 166.835452 315 
L 166.835452 297.108228 
L 156.706543 297.108228 
z
" style="fill:#bfbbd9;opacity:0.33;stroke:#bfbbd9;stroke-linejoin:miter;"/>
   </g>
   <g id="patch_108">
    <path clip-path="url(#p1bcc56ac17)" d="M 166.835452 315 
L 176.964361 315 
L 176.964361 295.424822 
L 166.835452 295.424822 
z
" style="fill:#bfbbd9;opacity:0.33;stroke:#bfbbd9;stroke-linejoin:miter;"/>
   </g>
   <g id="patch_109">
    <path clip-path="url(#p1bcc56ac17)" d="M 176.964361 315 
L 187.09327 315 
L 187.09327 294.247928 
L 176.964361 294.247928 
z
" style="fill:#bfbbd9;opacity:0.33;stroke:#bfbbd9;stroke-linejoin:miter;"/>
   </g>
   <g id="patch_110">
    <path clip-path="url(#p1bcc56ac17)" d="M 187.09327 315 
L 197.222179 315 
L 197.222179 292.445343 
L 187.09327 292.445343 
z
" style="fill:#bfbbd9;opacity:0.33;stroke:#bfbbd9;stroke-linejoin:miter;"/>
   </g>
   <g id="patch_111">
    <path clip-path="url(#p1bcc56ac17)" d="M 197.222179 315 
L 207.351088 315 
L 207.351088 293.383879 
L 197.222179 293.383879 
z
" style="fill:#bfbbd9;opacity:0.33;stroke:#bfbbd9;stroke-linejoin:miter;"/>
   </g>
   <g id="patch_112">
    <path clip-path="url(#p1bcc56ac17)" d="M 207.351088 315 
L 217.479998 315 
L 217.479998 292.370856 
L 207.351088 292.370856 
z
" style="fill:#bfbbd9;opacity:0.33;stroke:#bfbbd9;stroke-linejoin:miter;"/>
   </g>
   <g id="patch_113">
    <path clip-path="url(#p1bcc56ac17)" d="M 217.479998 315 
L 227.608907 315 
L 227.608907 294.35221 
L 217.479998 294.35221 
z
" style="fill:#bfbbd9;opacity:0.33;stroke:#bfbbd9;stroke-linejoin:miter;"/>
   </g>
   <g id="patch_114">
    <path clip-path="url(#p1bcc56ac17)" d="M 227.608907 315 
L 237.737816 315 
L 237.737816 294.888516 
L 227.608907 294.888516 
z
" style="fill:#bfbbd9;opacity:0.33;stroke:#bfbbd9;stroke-linejoin:miter;"/>
   </g>
   <g id="patch_115">
    <path clip-path="url(#p1bcc56ac17)" d="M 237.737816 315 
L 247.866725 315 
L 247.866725 296.259077 
L 237.737816 296.259077 
z
" style="fill:#bfbbd9;opacity:0.33;stroke:#bfbbd9;stroke-linejoin:miter;"/>
   </g>
   <g id="patch_116">
    <path clip-path="url(#p1bcc56ac17)" d="M 247.866725 315 
L 257.995634 315 
L 257.995634 298.106354 
L 247.866725 298.106354 
z
" style="fill:#bfbbd9;opacity:0.33;stroke:#bfbbd9;stroke-linejoin:miter;"/>
   </g>
   <g id="patch_117">
    <path clip-path="url(#p1bcc56ac17)" d="M 257.995634 315 
L 268.124543 315 
L 268.124543 298.955505 
L 257.995634 298.955505 
z
" style="fill:#bfbbd9;opacity:0.33;stroke:#bfbbd9;stroke-linejoin:miter;"/>
   </g>
   <g id="patch_118">
    <path clip-path="url(#p1bcc56ac17)" d="M 268.124543 315 
L 278.253453 315 
L 278.253453 301.979676 
L 268.124543 301.979676 
z
" style="fill:#bfbbd9;opacity:0.33;stroke:#bfbbd9;stroke-linejoin:miter;"/>
   </g>
   <g id="patch_119">
    <path clip-path="url(#p1bcc56ac17)" d="M 278.253453 315 
L 288.382362 315 
L 288.382362 302.739444 
L 278.253453 302.739444 
z
" style="fill:#bfbbd9;opacity:0.33;stroke:#bfbbd9;stroke-linejoin:miter;"/>
   </g>
   <g id="patch_120">
    <path clip-path="url(#p1bcc56ac17)" d="M 288.382362 315 
L 298.511271 315 
L 298.511271 303.692877 
L 288.382362 303.692877 
z
" style="fill:#bfbbd9;opacity:0.33;stroke:#bfbbd9;stroke-linejoin:miter;"/>
   </g>
   <g id="patch_121">
    <path clip-path="url(#p1bcc56ac17)" d="M 298.511271 315 
L 308.64018 315 
L 308.64018 305.67423 
L 298.511271 305.67423 
z
" style="fill:#bfbbd9;opacity:0.33;stroke:#bfbbd9;stroke-linejoin:miter;"/>
   </g>
   <g id="patch_122">
    <path clip-path="url(#p1bcc56ac17)" d="M 308.64018 315 
L 318.769089 315 
L 318.769089 307.000099 
L 308.64018 307.000099 
z
" style="fill:#bfbbd9;opacity:0.33;stroke:#bfbbd9;stroke-linejoin:miter;"/>
   </g>
   <g id="patch_123">
    <path clip-path="url(#p1bcc56ac17)" d="M 318.769089 315 
L 328.897998 315 
L 328.897998 307.536405 
L 318.769089 307.536405 
z
" style="fill:#bfbbd9;opacity:0.33;stroke:#bfbbd9;stroke-linejoin:miter;"/>
   </g>
   <g id="patch_124">
    <path clip-path="url(#p1bcc56ac17)" d="M 328.897998 315 
L 339.026907 315 
L 339.026907 309.532656 
L 328.897998 309.532656 
z
" style="fill:#bfbbd9;opacity:0.33;stroke:#bfbbd9;stroke-linejoin:miter;"/>
   </g>
   <g id="patch_125">
    <path clip-path="url(#p1bcc56ac17)" d="M 339.026907 315 
L 349.155817 315 
L 349.155817 310.441397 
L 339.026907 310.441397 
z
" style="fill:#bfbbd9;opacity:0.33;stroke:#bfbbd9;stroke-linejoin:miter;"/>
   </g>
   <g id="patch_126">
    <path clip-path="url(#p1bcc56ac17)" d="M 349.155817 315 
L 359.284726 315 
L 359.284726 310.724448 
L 349.155817 310.724448 
z
" style="fill:#bfbbd9;opacity:0.33;stroke:#bfbbd9;stroke-linejoin:miter;"/>
   </g>
   <g id="patch_127">
    <path clip-path="url(#p1bcc56ac17)" d="M 359.284726 315 
L 369.413635 315 
L 369.413635 311.79706 
L 359.284726 311.79706 
z
" style="fill:#bfbbd9;opacity:0.33;stroke:#bfbbd9;stroke-linejoin:miter;"/>
   </g>
   <g id="patch_128">
    <path clip-path="url(#p1bcc56ac17)" d="M 369.413635 315 
L 379.542544 315 
L 379.542544 312.318469 
L 369.413635 312.318469 
z
" style="fill:#bfbbd9;opacity:0.33;stroke:#bfbbd9;stroke-linejoin:miter;"/>
   </g>
   <g id="patch_129">
    <path clip-path="url(#p1bcc56ac17)" d="M 379.542544 315 
L 389.671453 315 
L 389.671453 312.810083 
L 379.542544 312.810083 
z
" style="fill:#bfbbd9;opacity:0.33;stroke:#bfbbd9;stroke-linejoin:miter;"/>
   </g>
   <g id="patch_130">
    <path clip-path="url(#p1bcc56ac17)" d="M 389.671453 315 
L 399.800362 315 
L 399.800362 313.376184 
L 389.671453 313.376184 
z
" style="fill:#bfbbd9;opacity:0.33;stroke:#bfbbd9;stroke-linejoin:miter;"/>
   </g>
   <g id="patch_131">
    <path clip-path="url(#p1bcc56ac17)" d="M 399.800362 315 
L 409.929271 315 
L 409.929271 313.703927 
L 399.800362 313.703927 
z
" style="fill:#bfbbd9;opacity:0.33;stroke:#bfbbd9;stroke-linejoin:miter;"/>
   </g>
   <g id="patch_132">
    <path clip-path="url(#p1bcc56ac17)" d="M 409.929271 315 
L 420.058181 315 
L 420.058181 313.882695 
L 409.929271 313.882695 
z
" style="fill:#bfbbd9;opacity:0.33;stroke:#bfbbd9;stroke-linejoin:miter;"/>
   </g>
   <g id="patch_133">
    <path clip-path="url(#p1bcc56ac17)" d="M 420.058181 315 
L 430.18709 315 
L 430.18709 314.180643 
L 420.058181 314.180643 
z
" style="fill:#bfbbd9;opacity:0.33;stroke:#bfbbd9;stroke-linejoin:miter;"/>
   </g>
   <g id="patch_134">
    <path clip-path="url(#p1bcc56ac17)" d="M 430.18709 315 
L 440.315999 315 
L 440.315999 314.284925 
L 430.18709 314.284925 
z
" style="fill:#bfbbd9;opacity:0.33;stroke:#bfbbd9;stroke-linejoin:miter;"/>
   </g>
   <g id="patch_135">
    <path clip-path="url(#p1bcc56ac17)" d="M 440.315999 315 
L 450.444908 315 
L 450.444908 314.463694 
L 440.315999 314.463694 
z
" style="fill:#bfbbd9;opacity:0.33;stroke:#bfbbd9;stroke-linejoin:miter;"/>
   </g>
   <g id="patch_136">
    <path clip-path="url(#p1bcc56ac17)" d="M 450.444908 315 
L 460.573817 315 
L 460.573817 314.553078 
L 450.444908 314.553078 
z
" style="fill:#bfbbd9;opacity:0.33;stroke:#bfbbd9;stroke-linejoin:miter;"/>
   </g>
   <g id="patch_137">
    <path clip-path="url(#p1bcc56ac17)" d="M 460.573817 315 
L 470.702726 315 
L 470.702726 314.672257 
L 460.573817 314.672257 
z
" style="fill:#bfbbd9;opacity:0.33;stroke:#bfbbd9;stroke-linejoin:miter;"/>
   </g>
   <g id="patch_138">
    <path clip-path="url(#p1bcc56ac17)" d="M 470.702726 315 
L 480.831636 315 
L 480.831636 314.836129 
L 470.702726 314.836129 
z
" style="fill:#bfbbd9;opacity:0.33;stroke:#bfbbd9;stroke-linejoin:miter;"/>
   </g>
   <g id="patch_139">
    <path clip-path="url(#p1bcc56ac17)" d="M 480.831636 315 
L 490.960545 315 
L 490.960545 314.731847 
L 480.831636 314.731847 
z
" style="fill:#bfbbd9;opacity:0.33;stroke:#bfbbd9;stroke-linejoin:miter;"/>
   </g>
   <g id="patch_140">
    <path clip-path="url(#p1bcc56ac17)" d="M 490.960545 315 
L 501.089454 315 
L 501.089454 314.851026 
L 490.960545 314.851026 
z
" style="fill:#bfbbd9;opacity:0.33;stroke:#bfbbd9;stroke-linejoin:miter;"/>
   </g>
   <g id="patch_141">
    <path clip-path="url(#p1bcc56ac17)" d="M 501.089454 315 
L 511.218363 315 
L 511.218363 314.865923 
L 501.089454 314.865923 
z
" style="fill:#bfbbd9;opacity:0.33;stroke:#bfbbd9;stroke-linejoin:miter;"/>
   </g>
   <g id="patch_142">
    <path clip-path="url(#p1bcc56ac17)" d="M 511.218363 315 
L 521.347272 315 
L 521.347272 314.821231 
L 511.218363 314.821231 
z
" style="fill:#bfbbd9;opacity:0.33;stroke:#bfbbd9;stroke-linejoin:miter;"/>
   </g>
   <g id="patch_143">
    <path clip-path="url(#p1bcc56ac17)" d="M 521.347272 315 
L 531.476181 315 
L 531.476181 314.955308 
L 521.347272 314.955308 
z
" style="fill:#bfbbd9;opacity:0.33;stroke:#bfbbd9;stroke-linejoin:miter;"/>
   </g>
   <g id="patch_144">
    <path clip-path="url(#p1bcc56ac17)" d="M 531.476181 315 
L 541.60509 315 
L 541.60509 314.955308 
L 531.476181 314.955308 
z
" style="fill:#bfbbd9;opacity:0.33;stroke:#bfbbd9;stroke-linejoin:miter;"/>
   </g>
   <g id="patch_145">
    <path clip-path="url(#p1bcc56ac17)" d="M 541.60509 315 
L 551.734 315 
L 551.734 314.955308 
L 541.60509 314.955308 
z
" style="fill:#bfbbd9;opacity:0.33;stroke:#bfbbd9;stroke-linejoin:miter;"/>
   </g>
   <g id="patch_146">
    <path clip-path="url(#p1bcc56ac17)" d="M 551.734 315 
L 561.862909 315 
L 561.862909 315 
L 551.734 315 
z
" style="fill:#bfbbd9;opacity:0.33;stroke:#bfbbd9;stroke-linejoin:miter;"/>
   </g>
   <g id="patch_147">
    <path clip-path="url(#p1bcc56ac17)" d="M 561.862909 315 
L 571.991818 315 
L 571.991818 314.970205 
L 561.862909 314.970205 
z
" style="fill:#bfbbd9;opacity:0.33;stroke:#bfbbd9;stroke-linejoin:miter;"/>
   </g>
   <g id="patch_148">
    <path clip-path="url(#p1bcc56ac17)" d="M 571.991818 315 
L 582.120727 315 
L 582.120727 315 
L 571.991818 315 
z
" style="fill:#bfbbd9;opacity:0.33;stroke:#bfbbd9;stroke-linejoin:miter;"/>
   </g>
   <g id="patch_149">
    <path clip-path="url(#p1bcc56ac17)" d="M 582.120727 315 
L 592.249636 315 
L 592.249636 314.985103 
L 582.120727 314.985103 
z
" style="fill:#bfbbd9;opacity:0.33;stroke:#bfbbd9;stroke-linejoin:miter;"/>
   </g>
   <g id="patch_150">
    <path clip-path="url(#p1bcc56ac17)" d="M 592.249636 315 
L 602.378545 315 
L 602.378545 315 
L 592.249636 315 
z
" style="fill:#bfbbd9;opacity:0.33;stroke:#bfbbd9;stroke-linejoin:miter;"/>
   </g>
   <g id="patch_151">
    <path clip-path="url(#p1bcc56ac17)" d="M 602.378545 315 
L 612.507454 315 
L 612.507454 314.970205 
L 602.378545 314.970205 
z
" style="fill:#bfbbd9;opacity:0.33;stroke:#bfbbd9;stroke-linejoin:miter;"/>
   </g>
   <g id="patch_152">
    <path clip-path="url(#p1bcc56ac17)" d="M 612.507454 315 
L 622.636364 315 
L 622.636364 314.970205 
L 612.507454 314.970205 
z
" style="fill:#bfbbd9;opacity:0.33;stroke:#bfbbd9;stroke-linejoin:miter;"/>
   </g>
   <g id="matplotlib.axis_1">
    <g id="xtick_1">
     <g id="line2d_1">
      <defs>
       <path d="M 0 0 
L 0 3.5 
" id="m41fdc0c6ca" style="stroke:#ffffff;stroke-width:0.8;"/>
      </defs>
      <g>
       <use style="fill:#ffffff;stroke:#ffffff;stroke-width:0.8;" x="115.336158" xlink:href="#m41fdc0c6ca" y="315"/>
      </g>
     </g>
     <g id="text_1">
      <!-- $\mathdefault{0}$ -->
      <defs>
       <path d="M 42 31.640625 
C 42 37.75 41.90625 48.125 37.703125 56.109375 
C 34 63.109375 28.09375 65.59375 22.90625 65.59375 
C 18.09375 65.59375 12 63.40625 8.203125 56.203125 
C 4.203125 48.71875 3.796875 39.4375 3.796875 31.640625 
C 3.796875 25.953125 3.90625 17.28125 7 9.671875 
C 11.296875 -0.609375 19 -2 22.90625 -2 
C 27.5 -2 34.5 -0.109375 38.59375 9.375 
C 41.59375 16.28125 42 24.359375 42 31.640625 
z
M 22.90625 -0.40625 
C 16.5 -0.40625 12.703125 5.078125 11.296875 12.6875 
C 10.203125 18.5625 10.203125 27.15625 10.203125 32.75 
C 10.203125 40.4375 10.203125 46.828125 11.5 52.921875 
C 13.40625 61.390625 19 64 22.90625 64 
C 27 64 32.296875 61.296875 34.203125 53.125 
C 35.5 47.4375 35.59375 40.734375 35.59375 32.75 
C 35.59375 26.25 35.59375 18.265625 34.40625 12.375 
C 32.296875 1.484375 26.40625 -0.40625 22.90625 -0.40625 
z
" id="CMR17-48"/>
      </defs>
      <g style="fill:#ffffff;" transform="translate(110.995563 335.145148)scale(0.19 -0.19)">
       <use transform="scale(0.996264)" xlink:href="#CMR17-48"/>
      </g>
     </g>
    </g>
    <g id="xtick_2">
     <g id="line2d_2">
      <g>
       <use style="fill:#ffffff;stroke:#ffffff;stroke-width:0.8;" x="183.549021" xlink:href="#m41fdc0c6ca" y="315"/>
      </g>
     </g>
     <g id="text_2">
      <!-- $\mathdefault{25}$ -->
      <defs>
       <path d="M 41.703125 15.453125 
L 39.90625 15.453125 
C 38.90625 8.375 38.09375 7.171875 37.703125 6.5625 
C 37.203125 5.765625 30 5.765625 28.59375 5.765625 
L 9.40625 5.765625 
C 13 9.671875 20 16.75 28.5 24.953125 
C 34.59375 30.734375 41.703125 37.53125 41.703125 47.421875 
C 41.703125 59.21875 32.296875 66 21.796875 66 
C 10.796875 66 4.09375 56.3125 4.09375 47.34375 
C 4.09375 43.4375 7 42.9375 8.203125 42.9375 
C 9.203125 42.9375 12.203125 43.546875 12.203125 47.03125 
C 12.203125 50.109375 9.59375 51 8.203125 51 
C 7.59375 51 7 50.90625 6.59375 50.703125 
C 8.5 59.21875 14.296875 63.40625 20.40625 63.40625 
C 29.09375 63.40625 34.796875 56.515625 34.796875 47.421875 
C 34.796875 38.734375 29.703125 31.25 24 24.75 
L 4.09375 2.28125 
L 4.09375 0 
L 39.296875 0 
z
" id="CMR17-50"/>
       <path d="M 11.40625 57.6875 
C 12.40625 57.28125 16.5 56 20.703125 56 
C 30 56 35.09375 61.109375 38 64.0625 
C 38 64.953125 38 65.5 37.40625 65.5 
C 37.296875 65.5 37.09375 65.5 36.296875 65.046875 
C 32.796875 63.40625 28.703125 62.078125 23.703125 62.078125 
C 20.703125 62.078125 16.203125 62.484375 11.296875 64.671875 
C 10.203125 65.171875 10 65.171875 9.90625 65.171875 
C 9.40625 65.171875 9.296875 65.0625 9.296875 63.078125 
L 9.296875 34.421875 
C 9.296875 32.640625 9.296875 32.140625 10.296875 32.140625 
C 10.796875 32.140625 11 32.34375 11.5 33.03125 
C 14.703125 37.515625 19.09375 39.40625 24.09375 39.40625 
C 27.59375 39.40625 35.09375 37.21875 35.09375 20.140625 
C 35.09375 16.953125 35.09375 11.171875 32.09375 6.578125 
C 29.59375 2.484375 25.703125 0.390625 21.40625 0.390625 
C 14.796875 0.390625 8.09375 5 6.296875 12.71875 
C 6.703125 12.609375 7.5 12.421875 7.90625 12.421875 
C 9.203125 12.421875 11.703125 13.125 11.703125 16.21875 
C 11.703125 18.90625 9.796875 20 7.90625 20 
C 5.59375 20 4.09375 18.59375 4.09375 15.796875 
C 4.09375 7.09375 11 -2 21.59375 -2 
C 31.90625 -2 41.703125 6.875 41.703125 19.75 
C 41.703125 31.71875 33.90625 41 24.203125 41 
C 19.09375 41 14.796875 39.109375 11.40625 35.53125 
z
" id="CMR17-53"/>
      </defs>
      <g style="fill:#ffffff;" transform="translate(174.86783 335.145148)scale(0.19 -0.19)">
       <use transform="scale(0.996264)" xlink:href="#CMR17-50"/>
       <use transform="translate(45.690477 0)scale(0.996264)" xlink:href="#CMR17-53"/>
      </g>
     </g>
    </g>
    <g id="xtick_3">
     <g id="line2d_3">
      <g>
       <use style="fill:#ffffff;stroke:#ffffff;stroke-width:0.8;" x="251.761883" xlink:href="#m41fdc0c6ca" y="315"/>
      </g>
     </g>
     <g id="text_3">
      <!-- $\mathdefault{50}$ -->
      <g style="fill:#ffffff;" transform="translate(243.080692 335.145148)scale(0.19 -0.19)">
       <use transform="scale(0.996264)" xlink:href="#CMR17-53"/>
       <use transform="translate(45.690477 0)scale(0.996264)" xlink:href="#CMR17-48"/>
      </g>
     </g>
    </g>
    <g id="xtick_4">
     <g id="line2d_4">
      <g>
       <use style="fill:#ffffff;stroke:#ffffff;stroke-width:0.8;" x="319.974745" xlink:href="#m41fdc0c6ca" y="315"/>
      </g>
     </g>
     <g id="text_4">
      <!-- $\mathdefault{75}$ -->
      <defs>
       <path d="M 45.09375 61.578125 
L 45.09375 63.765625 
L 21.59375 63.765625 
C 9.90625 63.765625 9.703125 65.078125 9.296875 67 
L 7.5 67 
L 4.59375 48.34375 
L 6.40625 48.34375 
C 6.703125 50.234375 7.40625 55.3125 8.59375 57.203125 
C 9.203125 58 16.59375 58 18.296875 58 
L 40.296875 58 
L 29.203125 41.578125 
C 21.796875 30.53125 16.703125 15.609375 16.703125 2.578125 
C 16.703125 1.390625 16.703125 -2 20.296875 -2 
C 23.90625 -2 23.90625 1.390625 23.90625 2.671875 
L 23.90625 7.265625 
C 23.90625 23.5625 26.703125 34.3125 31.296875 41.1875 
z
" id="CMR17-55"/>
      </defs>
      <g style="fill:#ffffff;" transform="translate(311.293555 335.145148)scale(0.19 -0.19)">
       <use transform="scale(0.996264)" xlink:href="#CMR17-55"/>
       <use transform="translate(45.690477 0)scale(0.996264)" xlink:href="#CMR17-53"/>
      </g>
     </g>
    </g>
    <g id="xtick_5">
     <g id="line2d_5">
      <g>
       <use style="fill:#ffffff;stroke:#ffffff;stroke-width:0.8;" x="388.187608" xlink:href="#m41fdc0c6ca" y="315"/>
      </g>
     </g>
     <g id="text_5">
      <!-- $\mathdefault{100}$ -->
      <defs>
       <path d="M 26.59375 63.40625 
C 26.59375 65.5 26.5 65.5 25.09375 65.5 
C 21.203125 61.1875 15.296875 59.796875 9.703125 59.796875 
C 9.40625 59.796875 8.90625 59.796875 8.796875 59.5 
C 8.703125 59.296875 8.703125 59.09375 8.703125 57 
C 11.796875 57 17 57.59375 21 59.984375 
L 21 7.203125 
C 21 3.6875 20.796875 2.5 12.203125 2.5 
L 9.203125 2.5 
L 9.203125 0 
C 14 0 19 0 23.796875 0 
C 28.59375 0 33.59375 0 38.40625 0 
L 38.40625 2.5 
L 35.40625 2.5 
C 26.796875 2.5 26.59375 3.59375 26.59375 7.15625 
z
" id="CMR17-49"/>
      </defs>
      <g style="fill:#ffffff;" transform="translate(375.165822 335.145148)scale(0.19 -0.19)">
       <use transform="scale(0.996264)" xlink:href="#CMR17-49"/>
       <use transform="translate(45.690477 0)scale(0.996264)" xlink:href="#CMR17-48"/>
       <use transform="translate(91.380954 0)scale(0.996264)" xlink:href="#CMR17-48"/>
      </g>
     </g>
    </g>
    <g id="xtick_6">
     <g id="line2d_6">
      <g>
       <use style="fill:#ffffff;stroke:#ffffff;stroke-width:0.8;" x="456.40047" xlink:href="#m41fdc0c6ca" y="315"/>
      </g>
     </g>
     <g id="text_6">
      <!-- $\mathdefault{125}$ -->
      <g style="fill:#ffffff;" transform="translate(443.378684 335.145148)scale(0.19 -0.19)">
       <use transform="scale(0.996264)" xlink:href="#CMR17-49"/>
       <use transform="translate(45.690477 0)scale(0.996264)" xlink:href="#CMR17-50"/>
       <use transform="translate(91.380954 0)scale(0.996264)" xlink:href="#CMR17-53"/>
      </g>
     </g>
    </g>
    <g id="xtick_7">
     <g id="line2d_7">
      <g>
       <use style="fill:#ffffff;stroke:#ffffff;stroke-width:0.8;" x="524.613332" xlink:href="#m41fdc0c6ca" y="315"/>
      </g>
     </g>
     <g id="text_7">
      <!-- $\mathdefault{150}$ -->
      <g style="fill:#ffffff;" transform="translate(511.591546 335.145148)scale(0.19 -0.19)">
       <use transform="scale(0.996264)" xlink:href="#CMR17-49"/>
       <use transform="translate(45.690477 0)scale(0.996264)" xlink:href="#CMR17-53"/>
       <use transform="translate(91.380954 0)scale(0.996264)" xlink:href="#CMR17-48"/>
      </g>
     </g>
    </g>
    <g id="xtick_8">
     <g id="line2d_8">
      <g>
       <use style="fill:#ffffff;stroke:#ffffff;stroke-width:0.8;" x="592.826195" xlink:href="#m41fdc0c6ca" y="315"/>
      </g>
     </g>
     <g id="text_8">
      <!-- $\mathdefault{175}$ -->
      <g style="fill:#ffffff;" transform="translate(579.804409 335.145148)scale(0.19 -0.19)">
       <use transform="scale(0.996264)" xlink:href="#CMR17-49"/>
       <use transform="translate(45.690477 0)scale(0.996264)" xlink:href="#CMR17-55"/>
       <use transform="translate(91.380954 0)scale(0.996264)" xlink:href="#CMR17-53"/>
      </g>
     </g>
    </g>
    <g id="text_9">
     <!-- Interval (ms) -->
     <defs>
      <path d="M 17.09375 69 
L 8.703125 69 
L 8.703125 0 
L 17.09375 0 
z
" id="CMSS17-73"/>
      <path d="M 40.90625 29.328125 
C 40.90625 35.671875 39.40625 44 28.09375 44 
C 21.703125 44 17.5 40.71875 14.703125 37.328125 
L 14.703125 43.09375 
L 7.40625 43.09375 
L 7.40625 0 
L 15 0 
L 15 24.359375 
C 15 30.6875 17.40625 37.9375 24.203125 37.9375 
C 33 37.9375 33.296875 32 33.296875 28.578125 
L 33.296875 0 
L 40.90625 0 
z
" id="CMSS17-110"/>
      <path d="M 16.703125 37 
L 29.703125 37 
L 29.703125 42.765625 
L 16.703125 42.765625 
L 16.703125 55 
L 9.59375 55 
L 9.59375 42.765625 
L 1.703125 42.765625 
L 1.703125 37 
L 9.40625 37 
L 9.40625 11.703125 
C 9.40625 6 10.703125 -1 17.296875 -1 
C 22.296875 -1 26.90625 0.390625 31.296875 2.6875 
L 29.703125 8.5625 
C 27.296875 6.46875 24.40625 5.265625 21.296875 5.265625 
C 16.90625 5.265625 16.703125 10.875 16.703125 13.375 
z
" id="CMSS17-116"/>
      <path d="M 39.09375 21.515625 
C 39.09375 24.84375 38.90625 31.296875 35.703125 36.640625 
C 32.203125 42.390625 26.5 44 22.203125 44 
C 11.796875 44 3 34.1875 3 21.484375 
C 3 9.09375 12.09375 -1 23.59375 -1 
C 28.09375 -1 33.59375 0.296875 38.59375 3.875 
C 38.59375 4.28125 38.40625 6.46875 38.296875 6.5625 
C 38.296875 6.765625 38 9.84375 38 10.25 
C 33.203125 6.359375 27.703125 5.078125 23.703125 5.078125 
C 17.296875 5.078125 10.40625 10.421875 10.09375 21.515625 
z
M 10.90625 27 
C 12.203125 32.5625 16.59375 37.828125 22.203125 37.828125 
C 23.703125 37.828125 30.703125 37.828125 32.5 27 
z
" id="CMSS17-101"/>
      <path d="M 14.90625 21.296875 
C 14.90625 30.703125 21.796875 37 30.59375 37 
L 30.59375 43.578125 
C 24.203125 43.578125 18.203125 40.390625 14.59375 35.203125 
L 14.59375 43.09375 
L 7.5 43.09375 
L 7.5 0 
L 14.90625 0 
z
" id="CMSS17-114"/>
      <path d="M 41.796875 43 
L 34 43 
L 27.296875 24.3125 
C 25.203125 18.203125 22.203125 9.796875 21.703125 5.5 
L 21.59375 5.5 
C 21.40625 7.3125 20.59375 9.90625 20.09375 11.703125 
C 19.5 13.90625 18.703125 16.5 18.09375 18.3125 
L 9.296875 43 
L 1.296875 43 
L 17.09375 0 
L 26 0 
z
" id="CMSS17-118"/>
      <path d="M 37.59375 27.984375 
C 37.59375 37.375 30.90625 43.875 21.90625 43.875 
C 17.5 43.875 12.703125 43.078125 7.203125 39.890625 
L 7.796875 33.359375 
C 10.296875 35.125 14.59375 38 21.796875 38 
C 26.90625 38 30 34.0625 30 27.84375 
L 30 24 
C 14 24 4 19.34375 4 11.34375 
C 4 7.203125 6.5 -1 14.796875 -1 
C 16.296875 -1 24.40625 -1 30.203125 3.390625 
L 30.203125 -0.296875 
L 37.59375 -0.296875 
z
M 30 12.75 
C 30 10.953125 30 8.5625 27 6.78125 
C 24.40625 5.078125 21.09375 5.078125 19.703125 5.078125 
C 14.703125 5.078125 11.296875 7.984375 11.296875 11.625 
C 11.296875 18.921875 26.90625 18.921875 30 18.921875 
z
" id="CMSS17-97"/>
      <path d="M 14.796875 69 
L 7.40625 69 
L 7.40625 0 
L 14.796875 0 
z
" id="CMSS17-108"/>
      <path d="M 25.203125 74.5 
C 19.796875 69.015625 7.40625 56.265625 7.40625 24.8125 
C 7.40625 -6.765625 19.796875 -19.421875 25.203125 -25 
L 31.296875 -25 
C 19 -12.25 15 5.578125 15 24.703125 
C 15 43.71875 18.796875 61.65625 31.296875 74.5 
z
" id="CMSS17-40"/>
      <path d="M 67 29.328125 
C 67 36.0625 65.296875 44 54.09375 44 
C 46.59375 44 42.09375 39.3125 40.09375 36.421875 
C 38.296875 41.71875 34.09375 44 28.09375 44 
C 21.296875 44 17 40.125 14.703125 37.328125 
L 14.703125 43.09375 
L 7.40625 43.09375 
L 7.40625 0 
L 15 0 
L 15 24.359375 
C 15 30.296875 17.203125 37.9375 24.296875 37.9375 
C 33.40625 37.9375 33.40625 31.5 33.40625 28.578125 
L 33.40625 0 
L 41 0 
L 41 24.359375 
C 41 30.296875 43.203125 37.9375 50.296875 37.9375 
C 59.40625 37.9375 59.40625 31.5 59.40625 28.578125 
L 59.40625 0 
L 67 0 
z
" id="CMSS17-109"/>
      <path d="M 32.203125 41.046875 
C 26.296875 43.859375 21.703125 43.859375 18.703125 43.859375 
C 11.59375 43.859375 3.09375 41.375 3.09375 31.296875 
C 3.09375 21.234375 14.09375 19.03125 17.09375 18.421875 
C 21.703125 17.53125 26.796875 16.53125 26.796875 11.5625 
C 26.796875 5.265625 19.59375 5.265625 18.296875 5.265625 
C 14.296875 5.265625 8.796875 6.359375 3.796875 9.96875 
L 2.59375 3.28125 
C 8.296875 0 13.796875 -1 18.40625 -1 
C 30.703125 -1 33.796875 6.5 33.796875 12.203125 
C 33.796875 17.09375 31 20.390625 29.09375 21.890625 
C 25.796875 24.5 24.59375 24.796875 16.40625 26.5 
C 15 26.703125 10.09375 27.796875 10.09375 32.28125 
C 10.09375 38 16.40625 38 17.796875 38 
C 24.296875 38 28.296875 35.984375 31 34.5 
z
" id="CMSS17-115"/>
      <path d="M 11.296875 -25 
C 16.703125 -19.515625 29.09375 -6.765625 29.09375 24.703125 
C 29.09375 56.265625 16.703125 68.921875 11.296875 74.5 
L 5.203125 74.5 
C 17.5 61.75 21.5 43.921875 21.5 24.8125 
C 21.5 5.78125 17.703125 -12.15625 5.203125 -25 
z
" id="CMSS17-41"/>
     </defs>
     <g style="fill:#ffffff;" transform="translate(320.957442 357.006711)scale(0.19 -0.19)">
      <use transform="scale(0.996264)" xlink:href="#CMSS17-73"/>
      <use transform="translate(25.783926 0)scale(0.996264)" xlink:href="#CMSS17-110"/>
      <use transform="translate(73.988869 0)scale(0.996264)" xlink:href="#CMSS17-116"/>
      <use transform="translate(107.820435 0)scale(0.996264)" xlink:href="#CMSS17-101"/>
      <use transform="translate(149.459257 0)scale(0.996264)" xlink:href="#CMSS17-114"/>
      <use transform="translate(181.36903 0)scale(0.996264)" xlink:href="#CMSS17-118"/>
      <use transform="translate(224.369172 0)scale(0.996264)" xlink:href="#CMSS17-97"/>
      <use transform="translate(269.291092 0)scale(0.996264)" xlink:href="#CMSS17-108"/>
      <use transform="translate(322.700928 0)scale(0.996264)" xlink:href="#CMSS17-40"/>
      <use transform="translate(359.134842 0)scale(0.996264)" xlink:href="#CMSS17-109"/>
      <use transform="translate(433.364097 0)scale(0.996264)" xlink:href="#CMSS17-115"/>
      <use transform="translate(469.277639 0)scale(0.996264)" xlink:href="#CMSS17-41"/>
     </g>
    </g>
   </g>
   <g id="matplotlib.axis_2">
    <g id="ytick_1">
     <g id="line2d_9">
      <defs>
       <path d="M 0 0 
L -3.5 0 
" id="m9590b71145" style="stroke:#ffffff;stroke-width:0.8;"/>
      </defs>
      <g>
       <use style="fill:#ffffff;stroke:#ffffff;stroke-width:0.8;" x="90" xlink:href="#m9590b71145" y="315"/>
      </g>
     </g>
     <g id="text_10">
      <!-- $\mathdefault{0}$ -->
      <g style="fill:#ffffff;" transform="translate(74.318809 321.572574)scale(0.19 -0.19)">
       <use transform="scale(0.996264)" xlink:href="#CMR17-48"/>
      </g>
     </g>
    </g>
    <g id="ytick_2">
     <g id="line2d_10">
      <g>
       <use style="fill:#ffffff;stroke:#ffffff;stroke-width:0.8;" x="90" xlink:href="#m9590b71145" y="240.513023"/>
      </g>
     </g>
     <g id="text_11">
      <!-- $\mathdefault{5000}$ -->
      <g style="fill:#ffffff;" transform="translate(48.275237 247.085597)scale(0.19 -0.19)">
       <use transform="scale(0.996264)" xlink:href="#CMR17-53"/>
       <use transform="translate(45.690477 0)scale(0.996264)" xlink:href="#CMR17-48"/>
       <use transform="translate(91.380954 0)scale(0.996264)" xlink:href="#CMR17-48"/>
       <use transform="translate(137.071431 0)scale(0.996264)" xlink:href="#CMR17-48"/>
      </g>
     </g>
    </g>
    <g id="ytick_3">
     <g id="line2d_11">
      <g>
       <use style="fill:#ffffff;stroke:#ffffff;stroke-width:0.8;" x="90" xlink:href="#m9590b71145" y="166.026046"/>
      </g>
     </g>
     <g id="text_12">
      <!-- $\mathdefault{10000}$ -->
      <g style="fill:#ffffff;" transform="translate(39.594047 172.59862)scale(0.19 -0.19)">
       <use transform="scale(0.996264)" xlink:href="#CMR17-49"/>
       <use transform="translate(45.690477 0)scale(0.996264)" xlink:href="#CMR17-48"/>
       <use transform="translate(91.380954 0)scale(0.996264)" xlink:href="#CMR17-48"/>
       <use transform="translate(137.071431 0)scale(0.996264)" xlink:href="#CMR17-48"/>
       <use transform="translate(182.761908 0)scale(0.996264)" xlink:href="#CMR17-48"/>
      </g>
     </g>
    </g>
    <g id="ytick_4">
     <g id="line2d_12">
      <g>
       <use style="fill:#ffffff;stroke:#ffffff;stroke-width:0.8;" x="90" xlink:href="#m9590b71145" y="91.539069"/>
      </g>
     </g>
     <g id="text_13">
      <!-- $\mathdefault{15000}$ -->
      <g style="fill:#ffffff;" transform="translate(39.594047 98.111643)scale(0.19 -0.19)">
       <use transform="scale(0.996264)" xlink:href="#CMR17-49"/>
       <use transform="translate(45.690477 0)scale(0.996264)" xlink:href="#CMR17-53"/>
       <use transform="translate(91.380954 0)scale(0.996264)" xlink:href="#CMR17-48"/>
       <use transform="translate(137.071431 0)scale(0.996264)" xlink:href="#CMR17-48"/>
       <use transform="translate(182.761908 0)scale(0.996264)" xlink:href="#CMR17-48"/>
      </g>
     </g>
    </g>
    <g id="text_14">
     <!-- Histogram count -->
     <defs>
      <path d="M 57.40625 69 
L 49 69 
L 49 39.078125 
L 17.203125 39.078125 
L 17.203125 69 
L 8.796875 69 
L 8.796875 0 
L 17.203125 0 
L 17.203125 33 
L 49 33 
L 49 0 
L 57.40625 0 
z
" id="CMSS17-72"/>
      <path d="M 15.296875 65.359375 
L 6.90625 65.359375 
L 6.90625 57 
L 15.296875 57 
z
M 14.796875 42.796875 
L 7.40625 42.796875 
L 7.40625 0 
L 14.796875 0 
z
" id="CMSS17-105"/>
      <path d="M 44.203125 21.1875 
C 44.203125 34 34.703125 44 23.5 44 
C 12 44 2.703125 33.703125 2.703125 21.1875 
C 2.703125 8.5 12.296875 -1 23.40625 -1 
C 34.796875 -1 44.203125 8.796875 44.203125 21.1875 
z
M 23.5 5.265625 
C 16.40625 5.265625 10.296875 11.078125 10.296875 22 
C 10.296875 33.609375 17.40625 37.921875 23.40625 37.921875 
C 29.90625 37.921875 36.59375 33.21875 36.59375 22 
C 36.59375 10.671875 30.09375 5.265625 23.5 5.265625 
z
" id="CMSS17-111"/>
      <path d="M 44.5 43.875 
C 38.796875 43.875 33.90625 42.78125 29.90625 40.890625 
C 26.59375 43.390625 23.203125 43.875 20.90625 43.875 
C 12.203125 43.875 5.59375 36.703125 5.59375 28.34375 
C 5.59375 22.9375 8.59375 18.859375 8.796875 18.671875 
C 7 16.171875 6 13.484375 6 10.5 
C 6 7 7.40625 4.515625 8.5 3.125 
C 3.296875 -0.046875 2.59375 -4.90625 2.59375 -6.796875 
C 2.59375 -14.03125 11.703125 -20 23.40625 -20 
C 35.203125 -20 44.296875 -14.03125 44.296875 -6.6875 
C 44.296875 7 29 7 24.796875 7 
L 16.703125 7 
C 15.203125 7 11.203125 7 11.203125 12.359375 
C 11.203125 14.390625 12.09375 15.6875 12.203125 15.78125 
C 13.703125 14.6875 16.796875 13 20.90625 13 
C 29.203125 13 36.09375 19.96875 36.09375 28.546875 
C 36.09375 33.3125 33.90625 36.796875 33 38 
L 33.296875 38 
C 33.59375 38 37.796875 38 39.296875 38 
C 42.5 38 42.796875 37.953125 45.59375 37.796875 
z
M 20.90625 18.46875 
C 17.5 18.46875 12.703125 20.546875 12.703125 28.484375 
C 12.703125 37.109375 18.203125 38.5 20.796875 38.5 
C 24.203125 38.5 29 36.421875 29 28.484375 
C 29 19.859375 23.5 18.46875 20.90625 18.46875 
z
M 24.703125 -0.15625 
C 27.09375 -0.15625 37.203125 -0.15625 37.203125 -6.90625 
C 37.203125 -11.15625 31 -14.515625 23.5 -14.515625 
C 15.90625 -14.515625 9.703125 -11.25 9.703125 -6.796875 
C 9.703125 -6.296875 9.703125 -0.15625 16.59375 -0.15625 
z
" id="CMSS17-103"/>
      <path d="M 38.5 39.703125 
C 38.5 40.390625 33.90625 42.40625 32.703125 42.796875 
C 29.40625 44 25.203125 44 24.09375 44 
C 11.09375 44 3.296875 32.703125 3.296875 21.296875 
C 3.296875 9.296875 12 -1 23.703125 -1 
C 30.40625 -1 35.203125 1.1875 39.09375 3.78125 
L 38.5 10.375 
C 34.203125 7.078125 29.203125 5.265625 23.796875 5.265625 
C 16 5.265625 10.90625 12.09375 10.90625 21.390625 
C 10.90625 28.609375 14.203125 37.71875 24.203125 37.71875 
C 29.703125 37.71875 32.796875 36.609375 37.40625 33.515625 
z
" id="CMSS17-99"/>
      <path d="M 40.90625 42.796875 
L 33.296875 42.796875 
L 33.296875 15.1875 
C 33.296875 7.78125 27.90625 4.78125 22.203125 4.78125 
C 15.59375 4.78125 15 6.984375 15 11.078125 
L 15 42.796875 
L 7.40625 42.796875 
L 7.40625 10.59375 
C 7.40625 2.796875 10.09375 -1 17 -1 
C 20.40625 -1 28.09375 -0.203125 33.5 4.78125 
L 33.5 0 
L 40.90625 0 
z
" id="CMSS17-117"/>
     </defs>
     <g style="fill:#ffffff;" transform="translate(31.912205 241.105372)rotate(-90)scale(0.19 -0.19)">
      <use transform="scale(0.996264)" xlink:href="#CMSS17-72"/>
      <use transform="translate(66.061519 0)scale(0.996264)" xlink:href="#CMSS17-105"/>
      <use transform="translate(88.242242 0)scale(0.996264)" xlink:href="#CMSS17-115"/>
      <use transform="translate(124.155784 0)scale(0.996264)" xlink:href="#CMSS17-116"/>
      <use transform="translate(157.987351 0)scale(0.996264)" xlink:href="#CMSS17-111"/>
      <use transform="translate(204.830974 0)scale(0.996264)" xlink:href="#CMSS17-103"/>
      <use transform="translate(251.674598 0)scale(0.996264)" xlink:href="#CMSS17-114"/>
      <use transform="translate(283.584371 0)scale(0.996264)" xlink:href="#CMSS17-97"/>
      <use transform="translate(328.506291 0)scale(0.996264)" xlink:href="#CMSS17-109"/>
      <use transform="translate(433.964658 0)scale(0.996264)" xlink:href="#CMSS17-99"/>
      <use transform="translate(475.60348 0)scale(0.996264)" xlink:href="#CMSS17-111"/>
      <use transform="translate(522.447104 0)scale(0.996264)" xlink:href="#CMSS17-117"/>
      <use transform="translate(570.652047 0)scale(0.996264)" xlink:href="#CMSS17-110"/>
      <use transform="translate(618.85699 0)scale(0.996264)" xlink:href="#CMSS17-116"/>
     </g>
    </g>
   </g>
   <g id="patch_153">
    <path d="M 90 315 
L 90 43.2 
" style="fill:none;stroke:#ffffff;stroke-linecap:square;stroke-linejoin:miter;stroke-width:0.8;"/>
   </g>
   <g id="patch_154">
    <path d="M 648 315 
L 648 43.2 
" style="fill:none;stroke:#ffffff;stroke-linecap:square;stroke-linejoin:miter;stroke-width:0.8;"/>
   </g>
   <g id="patch_155">
    <path d="M 90 315 
L 648 315 
" style="fill:none;stroke:#ffffff;stroke-linecap:square;stroke-linejoin:miter;stroke-width:0.8;"/>
   </g>
   <g id="patch_156">
    <path d="M 90 43.2 
L 648 43.2 
" style="fill:none;stroke:#ffffff;stroke-linecap:square;stroke-linejoin:miter;stroke-width:0.8;"/>
   </g>
   <g id="text_15">
    <!-- Interspike interval histogram -->
    <defs>
     <path d="M 15.09375 5.203125 
C 18.40625 2.015625 22.90625 -0.078125 27.703125 -0.078125 
C 37 -0.078125 45 9.421875 45 22.0625 
C 45 33.734375 39 44 30.40625 44 
C 25.40625 44 19.40625 42.21875 14.90625 38.625 
L 14.90625 43.203125 
L 7.5 43.203125 
L 7.5 -19 
L 15.09375 -19 
z
M 15.09375 32.8125 
C 15.90625 34 19.296875 37.734375 24.796875 37.734375 
C 31.796875 37.734375 37.40625 30.625 37.40625 22.0625 
C 37.40625 12.296875 30.59375 6 23.90625 6 
C 21.90625 6 19.796875 6.484375 17.796875 8.171875 
C 15.09375 10.53125 15.09375 12 15.09375 13.390625 
z
" id="CMSS17-112"/>
     <path d="M 26.5 26.375 
L 42 42.796875 
L 32.40625 42.796875 
L 14.90625 24.28125 
L 14.90625 69 
L 7.5 69 
L 7.5 0 
L 14.796875 0 
L 14.796875 13.9375 
L 21.5 21 
L 35.59375 0 
L 44.09375 0 
z
" id="CMSS17-107"/>
     <path d="M 40.90625 29.546875 
C 40.90625 35.8125 39.40625 44.0625 28.09375 44.0625 
C 21.796875 44.0625 17.703125 40.984375 14.796875 37.609375 
L 14.796875 69.5 
L 7.40625 69.5 
L 7.40625 0.5 
L 15 0.5 
L 15 24.578125 
C 15 30.828125 17.40625 38 24.203125 38 
C 33 38 33.296875 32.125 33.296875 28.734375 
L 33.296875 0.5 
L 40.90625 0.5 
z
" id="CMSS17-104"/>
    </defs>
    <g style="fill:#ffffff;" transform="translate(242.743603 37.2)scale(0.228 -0.228)">
     <use transform="scale(0.996264)" xlink:href="#CMSS17-73"/>
     <use transform="translate(25.783926 0)scale(0.996264)" xlink:href="#CMSS17-110"/>
     <use transform="translate(73.988869 0)scale(0.996264)" xlink:href="#CMSS17-116"/>
     <use transform="translate(107.820435 0)scale(0.996264)" xlink:href="#CMSS17-101"/>
     <use transform="translate(149.459257 0)scale(0.996264)" xlink:href="#CMSS17-114"/>
     <use transform="translate(181.36903 0)scale(0.996264)" xlink:href="#CMSS17-115"/>
     <use transform="translate(217.282572 0)scale(0.996264)" xlink:href="#CMSS17-112"/>
     <use transform="translate(265.487515 0)scale(0.996264)" xlink:href="#CMSS17-105"/>
     <use transform="translate(287.668238 0)scale(0.996264)" xlink:href="#CMSS17-107"/>
     <use transform="translate(330.668273 0)scale(0.996264)" xlink:href="#CMSS17-101"/>
     <use transform="translate(403.536208 0)scale(0.996264)" xlink:href="#CMSS17-105"/>
     <use transform="translate(425.716931 0)scale(0.996264)" xlink:href="#CMSS17-110"/>
     <use transform="translate(473.921874 0)scale(0.996264)" xlink:href="#CMSS17-116"/>
     <use transform="translate(507.753441 0)scale(0.996264)" xlink:href="#CMSS17-101"/>
     <use transform="translate(549.392263 0)scale(0.996264)" xlink:href="#CMSS17-114"/>
     <use transform="translate(581.302036 0)scale(0.996264)" xlink:href="#CMSS17-118"/>
     <use transform="translate(624.302177 0)scale(0.996264)" xlink:href="#CMSS17-97"/>
     <use transform="translate(669.224098 0)scale(0.996264)" xlink:href="#CMSS17-108"/>
     <use transform="translate(722.633934 0)scale(0.996264)" xlink:href="#CMSS17-104"/>
     <use transform="translate(770.838877 0)scale(0.996264)" xlink:href="#CMSS17-105"/>
     <use transform="translate(793.0196 0)scale(0.996264)" xlink:href="#CMSS17-115"/>
     <use transform="translate(828.933142 0)scale(0.996264)" xlink:href="#CMSS17-116"/>
     <use transform="translate(862.764709 0)scale(0.996264)" xlink:href="#CMSS17-111"/>
     <use transform="translate(909.608332 0)scale(0.996264)" xlink:href="#CMSS17-103"/>
     <use transform="translate(956.451956 0)scale(0.996264)" xlink:href="#CMSS17-114"/>
     <use transform="translate(988.361728 0)scale(0.996264)" xlink:href="#CMSS17-97"/>
     <use transform="translate(1033.283649 0)scale(0.996264)" xlink:href="#CMSS17-109"/>
    </g>
   </g>
   <g id="legend_1">
    <g id="patch_157">
     <path d="M 476.084983 137.845524 
L 634.7 137.845524 
Q 638.5 137.845524 638.5 134.045524 
L 638.5 56.5 
Q 638.5 52.7 634.7 52.7 
L 476.084983 52.7 
Q 472.284983 52.7 472.284983 56.5 
L 472.284983 134.045524 
Q 472.284983 137.845524 476.084983 137.845524 
z
" style="opacity:0.8;stroke:#cccccc;stroke-linejoin:miter;"/>
    </g>
    <g id="patch_158">
     <path d="M 479.884983 73.6 
L 517.884983 73.6 
L 517.884983 60.3 
L 479.884983 60.3 
z
" style="fill:#8dd3c7;opacity:0.33;stroke:#8dd3c7;stroke-linejoin:miter;"/>
    </g>
    <g id="text_16">
     <!-- $\displaystyle\tau_{\text{ref}} = 1ms$ -->
     <defs>
      <path d="M 28.703125 37.625 
L 45.296875 37.625 
C 46.59375 37.625 49.90625 37.625 49.90625 40.8125 
C 49.90625 43 48 43 46.203125 43 
L 18.703125 43 
C 16.40625 43 13 43 8.40625 38.125 
C 5.796875 35.234375 2.59375 29.953125 2.59375 29.359375 
C 2.59375 28.765625 3.09375 28.5625 3.703125 28.5625 
C 4.40625 28.5625 4.5 28.859375 5 29.453125 
C 10.203125 37.625 15.40625 37.625 17.90625 37.625 
L 26.203125 37.625 
L 15.796875 3.484375 
C 15.296875 1.984375 15.296875 1.78125 15.296875 1.484375 
C 15.296875 0.390625 16 -1 18 -1 
C 21.09375 -1 21.59375 1.6875 21.90625 3.171875 
z
" id="CMMI12-28"/>
      <path d="M 16.796875 37 
L 26.90625 37 
L 26.90625 42.765625 
L 16.59375 42.765625 
L 16.59375 55.609375 
C 16.59375 62.71875 22 63.9375 25.09375 63.9375 
C 26.09375 63.9375 28.90625 63.9375 32.5 62.640625 
L 32.5 69.203125 
C 30.203125 69.703125 27.40625 70 25.203125 70 
C 15.90625 70 9.40625 62.390625 9.40625 52.484375 
L 9.40625 42.765625 
L 2.5 42.765625 
L 2.5 37 
L 9.40625 37 
L 9.40625 0 
L 16.796875 0 
z
" id="CMSS17-102"/>
      <path d="M 64.296875 31.515625 
C 65.796875 31.515625 67.296875 31.515625 67.296875 33.203125 
C 67.296875 35 65.59375 35 63.90625 35 
L 8 35 
C 6.296875 35 4.59375 35 4.59375 33.203125 
C 4.59375 31.515625 6.09375 31.515625 7.59375 31.515625 
z
M 63.90625 14 
C 65.59375 14 67.296875 14 67.296875 15.796875 
C 67.296875 17.484375 65.796875 17.484375 64.296875 17.484375 
L 7.59375 17.484375 
C 6.09375 17.484375 4.59375 17.484375 4.59375 15.796875 
C 4.59375 14 6.296875 14 8 14 
z
" id="CMR17-61"/>
      <path d="M 20.59375 29.234375 
C 20.796875 29.84375 23.296875 34.828125 27 38.015625 
C 29.59375 40.40625 33 42.015625 36.90625 42.015625 
C 40.90625 42.015625 42.296875 39.015625 42.296875 35.03125 
C 42.296875 34.421875 42.296875 32.4375 41.09375 27.734375 
L 38.59375 17.46875 
C 37.796875 14.46875 35.90625 7.078125 35.703125 5.984375 
C 35.296875 4.484375 34.703125 1.890625 34.703125 1.5 
C 34.703125 0.09375 35.796875 -1 37.296875 -1 
C 40.296875 -1 40.796875 1.296875 41.703125 4.890625 
L 47.703125 28.734375 
C 47.90625 29.53125 53.09375 42.015625 64.09375 42.015625 
C 68.09375 42.015625 69.5 39.015625 69.5 35.03125 
C 69.5 29.4375 65.59375 18.5625 63.40625 12.578125 
C 62.5 10.171875 62 8.875 62 7.078125 
C 62 2.59375 65.09375 -1 69.90625 -1 
C 79.203125 -1 82.703125 13.671875 82.703125 14.265625 
C 82.703125 14.765625 82.296875 15.171875 81.703125 15.171875 
C 80.796875 15.171875 80.703125 14.875 80.203125 13.171875 
C 77.90625 5.1875 74.203125 1 70.203125 1 
C 69.203125 1 67.59375 1 67.59375 4.203125 
C 67.59375 6.8125 68.796875 10 69.203125 11.09375 
C 71 15.90625 75.5 27.703125 75.5 33.515625 
C 75.5 39.5 72 44 64.40625 44 
C 57.703125 44 52.296875 40.21875 48.296875 34.328125 
C 48 39.71875 44.703125 44 37.203125 44 
C 28.296875 44 23.59375 37.734375 21.796875 35.234375 
C 21.5 40.90625 17.40625 44 13 44 
C 10.09375 44 7.796875 42.609375 5.90625 38.8125 
C 4.09375 35.21875 2.703125 29.140625 2.703125 28.734375 
C 2.703125 28.34375 3.09375 27.84375 3.796875 27.84375 
C 4.59375 27.84375 4.703125 27.9375 5.296875 30.234375 
C 6.796875 36.125 8.703125 42.015625 12.703125 42.015625 
C 15 42.015625 15.796875 40.40625 15.796875 37.421875 
C 15.796875 35.21875 14.796875 31.328125 14.09375 28.234375 
L 11.296875 17.46875 
C 10.90625 15.5625 9.796875 11.078125 9.296875 9.28125 
C 8.59375 6.6875 7.5 2 7.5 1.5 
C 7.5 0.09375 8.59375 -1 10.09375 -1 
C 11.296875 -1 12.703125 -0.40625 13.5 1.09375 
C 13.703125 1.59375 14.59375 5.09375 15.09375 7.078125 
L 17.296875 16.0625 
z
" id="CMMI12-109"/>
      <path d="M 22.796875 20 
C 24.5 19.703125 27.203125 19.109375 27.796875 19 
C 29.09375 18.625 33.59375 17.03125 33.59375 12.234375 
C 33.59375 9.15625 30.796875 1.09375 19.203125 1.09375 
C 17.09375 1.09375 9.59375 1.09375 7.59375 6.8125 
C 11.59375 6.3125 13.59375 9.421875 13.59375 11.640625 
C 13.59375 13.75 12.203125 14.84375 10.203125 14.84375 
C 8 14.84375 5.09375 13.140625 5.09375 8.625 
C 5.09375 2.703125 11.09375 -1 19.09375 -1 
C 34.296875 -1 38.796875 10.171875 38.796875 15.375 
C 38.796875 16.859375 38.796875 19.65625 35.59375 22.84375 
C 33.09375 25.25 30.703125 25.75 25.296875 26.84375 
C 22.59375 27.4375 18.296875 28.34375 18.296875 32.828125 
C 18.296875 34.828125 20.09375 42.015625 29.59375 42.015625 
C 33.796875 42.015625 37.90625 40.453125 38.90625 37 
C 34.5 37 34.296875 33.203125 34.296875 33.109375 
C 34.296875 31 36.203125 30.40625 37.09375 30.40625 
C 38.5 30.40625 41.296875 31.484375 41.296875 35.640625 
C 41.296875 39.765625 37.5 44 29.703125 44 
C 16.59375 44 13.09375 33.75 13.09375 29.671875 
C 13.09375 22.09375 20.5 20.5 22.796875 20 
z
" id="CMMI12-115"/>
     </defs>
     <g style="fill:#ffffff;" transform="translate(533.084983 73.6)scale(0.19 -0.19)">
      <use transform="scale(0.996264)" xlink:href="#CMMI12-28"/>
      <use transform="translate(42.363841 -14.943915)scale(0.697382)" xlink:href="#CMSS17-114"/>
      <use transform="translate(64.70058 -14.943915)scale(0.697382)" xlink:href="#CMSS17-101"/>
      <use transform="translate(93.847626 -14.943915)scale(0.697382)" xlink:href="#CMSS17-102"/>
      <use transform="translate(142.058346 0)scale(0.996264)" xlink:href="#CMR17-61"/>
      <use transform="translate(241.447143 0)scale(0.996264)" xlink:href="#CMR17-49"/>
      <use transform="translate(287.13762 0)scale(0.996264)" xlink:href="#CMMI12-109"/>
      <use transform="translate(372.464844 0)scale(0.996264)" xlink:href="#CMMI12-115"/>
     </g>
    </g>
    <g id="patch_159">
     <path d="M 479.884983 100.081841 
L 517.884983 100.081841 
L 517.884983 86.781841 
L 479.884983 86.781841 
z
" style="fill:#feffb3;opacity:0.33;stroke:#feffb3;stroke-linejoin:miter;"/>
    </g>
    <g id="text_17">
     <!-- $\displaystyle\tau_{\text{ref}} = 10ms$ -->
     <g style="fill:#ffffff;" transform="translate(533.084983 100.081841)scale(0.19 -0.19)">
      <use transform="scale(0.996264)" xlink:href="#CMMI12-28"/>
      <use transform="translate(42.363841 -14.943915)scale(0.697382)" xlink:href="#CMSS17-114"/>
      <use transform="translate(64.70058 -14.943915)scale(0.697382)" xlink:href="#CMSS17-101"/>
      <use transform="translate(93.847626 -14.943915)scale(0.697382)" xlink:href="#CMSS17-102"/>
      <use transform="translate(142.058346 0)scale(0.996264)" xlink:href="#CMR17-61"/>
      <use transform="translate(241.447143 0)scale(0.996264)" xlink:href="#CMR17-49"/>
      <use transform="translate(287.13762 0)scale(0.996264)" xlink:href="#CMR17-48"/>
      <use transform="translate(332.828097 0)scale(0.996264)" xlink:href="#CMMI12-109"/>
      <use transform="translate(418.155321 0)scale(0.996264)" xlink:href="#CMMI12-115"/>
     </g>
    </g>
    <g id="patch_160">
     <path d="M 479.884983 126.563683 
L 517.884983 126.563683 
L 517.884983 113.263683 
L 479.884983 113.263683 
z
" style="fill:#bfbbd9;opacity:0.33;stroke:#bfbbd9;stroke-linejoin:miter;"/>
    </g>
    <g id="text_18">
     <!-- $\displaystyle\tau_{\text{ref}} = 100ms$ -->
     <g style="fill:#ffffff;" transform="translate(533.084983 126.563683)scale(0.19 -0.19)">
      <use transform="scale(0.996264)" xlink:href="#CMMI12-28"/>
      <use transform="translate(42.363841 -14.943915)scale(0.697382)" xlink:href="#CMSS17-114"/>
      <use transform="translate(64.70058 -14.943915)scale(0.697382)" xlink:href="#CMSS17-101"/>
      <use transform="translate(93.847626 -14.943915)scale(0.697382)" xlink:href="#CMSS17-102"/>
      <use transform="translate(142.058346 0)scale(0.996264)" xlink:href="#CMR17-61"/>
      <use transform="translate(241.447143 0)scale(0.996264)" xlink:href="#CMR17-49"/>
      <use transform="translate(287.13762 0)scale(0.996264)" xlink:href="#CMR17-48"/>
      <use transform="translate(332.828097 0)scale(0.996264)" xlink:href="#CMR17-48"/>
      <use transform="translate(378.518574 0)scale(0.996264)" xlink:href="#CMMI12-109"/>
      <use transform="translate(463.845799 0)scale(0.996264)" xlink:href="#CMMI12-115"/>
     </g>
    </g>
   </g>
  </g>
 </g>
 <defs>
  <clipPath id="p1bcc56ac17">
   <rect height="271.8" width="558" x="90" y="43.2"/>
  </clipPath>
 </defs>
</svg>
