<?xml version="1.0" encoding="utf-8" standalone="no"?>
<!DOCTYPE svg PUBLIC "-//W3C//DTD SVG 1.1//EN"
  "http://www.w3.org/Graphics/SVG/1.1/DTD/svg11.dtd">
<!-- Created with matplotlib (https://matplotlib.org/) -->
<svg height="360pt" version="1.1" viewBox="0 0 720 360" width="720pt" xmlns="http://www.w3.org/2000/svg" xmlns:xlink="http://www.w3.org/1999/xlink">
 <defs>
  <style type="text/css">
*{stroke-linecap:butt;stroke-linejoin:round;}
  </style>
 </defs>
 <g id="figure_1">
  <g id="patch_1">
   <path d="M 0 360 
L 720 360 
L 720 0 
L 0 0 
z
"/>
  </g>
  <g id="axes_1">
   <g id="patch_2">
    <path d="M 90 315 
L 648 315 
L 648 43.2 
L 90 43.2 
z
"/>
   </g>
   <g id="PathCollection_1">
    <defs>
     <path d="M 0 1.5 
C 0.397805 1.5 0.77937 1.341951 1.06066 1.06066 
C 1.341951 0.77937 1.5 0.397805 1.5 0 
C 1.5 -0.397805 1.341951 -0.77937 1.06066 -1.06066 
C 0.77937 -1.341951 0.397805 -1.5 0 -1.5 
C -0.397805 -1.5 -0.77937 -1.341951 -1.06066 -1.06066 
C -1.341951 -0.77937 -1.5 -0.397805 -1.5 0 
C -1.5 0.397805 -1.341951 0.77937 -1.06066 1.06066 
C -0.77937 1.341951 -0.397805 1.5 0 1.5 
z
" id="m14d9d9490c" style="stroke:#8dd3c7;"/>
    </defs>
    <g clip-path="url(#pb7c4d88016)">
     <use style="fill:#8dd3c7;stroke:#8dd3c7;" x="115.363636" xlink:href="#m14d9d9490c" y="297.869872"/>
     <use style="fill:#8dd3c7;stroke:#8dd3c7;" x="120.487603" xlink:href="#m14d9d9490c" y="293.480721"/>
     <use style="fill:#8dd3c7;stroke:#8dd3c7;" x="125.61157" xlink:href="#m14d9d9490c" y="289.492367"/>
     <use style="fill:#8dd3c7;stroke:#8dd3c7;" x="130.735537" xlink:href="#m14d9d9490c" y="286.080382"/>
     <use style="fill:#8dd3c7;stroke:#8dd3c7;" x="135.859504" xlink:href="#m14d9d9490c" y="282.222676"/>
     <use style="fill:#8dd3c7;stroke:#8dd3c7;" x="140.983471" xlink:href="#m14d9d9490c" y="280.028906"/>
     <use style="fill:#8dd3c7;stroke:#8dd3c7;" x="146.107438" xlink:href="#m14d9d9490c" y="276.814646"/>
     <use style="fill:#8dd3c7;stroke:#8dd3c7;" x="151.231405" xlink:href="#m14d9d9490c" y="273.479164"/>
     <use style="fill:#8dd3c7;stroke:#8dd3c7;" x="156.355372" xlink:href="#m14d9d9490c" y="270.807483"/>
     <use style="fill:#8dd3c7;stroke:#8dd3c7;" x="161.479339" xlink:href="#m14d9d9490c" y="268.296891"/>
     <use style="fill:#8dd3c7;stroke:#8dd3c7;" x="166.603306" xlink:href="#m14d9d9490c" y="265.197774"/>
     <use style="fill:#8dd3c7;stroke:#8dd3c7;" x="171.727273" xlink:href="#m14d9d9490c" y="263.585862"/>
     <use style="fill:#8dd3c7;stroke:#8dd3c7;" x="176.85124" xlink:href="#m14d9d9490c" y="261.37309"/>
     <use style="fill:#8dd3c7;stroke:#8dd3c7;" x="181.975207" xlink:href="#m14d9d9490c" y="258.230631"/>
     <use style="fill:#8dd3c7;stroke:#8dd3c7;" x="187.099174" xlink:href="#m14d9d9490c" y="255.679156"/>
     <use style="fill:#8dd3c7;stroke:#8dd3c7;" x="192.22314" xlink:href="#m14d9d9490c" y="253.137913"/>
     <use style="fill:#8dd3c7;stroke:#8dd3c7;" x="197.347107" xlink:href="#m14d9d9490c" y="251.837146"/>
     <use style="fill:#8dd3c7;stroke:#8dd3c7;" x="202.471074" xlink:href="#m14d9d9490c" y="249.605949"/>
     <use style="fill:#8dd3c7;stroke:#8dd3c7;" x="207.595041" xlink:href="#m14d9d9490c" y="247.32083"/>
     <use style="fill:#8dd3c7;stroke:#8dd3c7;" x="212.719008" xlink:href="#m14d9d9490c" y="244.632204"/>
     <use style="fill:#8dd3c7;stroke:#8dd3c7;" x="217.842975" xlink:href="#m14d9d9490c" y="243.504488"/>
     <use style="fill:#8dd3c7;stroke:#8dd3c7;" x="222.966942" xlink:href="#m14d9d9490c" y="241.942051"/>
     <use style="fill:#8dd3c7;stroke:#8dd3c7;" x="228.090909" xlink:href="#m14d9d9490c" y="239.550023"/>
     <use style="fill:#8dd3c7;stroke:#8dd3c7;" x="233.214876" xlink:href="#m14d9d9490c" y="237.554255"/>
     <use style="fill:#8dd3c7;stroke:#8dd3c7;" x="238.338843" xlink:href="#m14d9d9490c" y="235.288601"/>
     <use style="fill:#8dd3c7;stroke:#8dd3c7;" x="243.46281" xlink:href="#m14d9d9490c" y="233.252639"/>
     <use style="fill:#8dd3c7;stroke:#8dd3c7;" x="248.586777" xlink:href="#m14d9d9490c" y="233.142395"/>
     <use style="fill:#8dd3c7;stroke:#8dd3c7;" x="253.710744" xlink:href="#m14d9d9490c" y="230.647166"/>
     <use style="fill:#8dd3c7;stroke:#8dd3c7;" x="258.834711" xlink:href="#m14d9d9490c" y="228.153103"/>
     <use style="fill:#8dd3c7;stroke:#8dd3c7;" x="263.958678" xlink:href="#m14d9d9490c" y="226.399173"/>
     <use style="fill:#8dd3c7;stroke:#8dd3c7;" x="269.082645" xlink:href="#m14d9d9490c" y="225.242291"/>
     <use style="fill:#8dd3c7;stroke:#8dd3c7;" x="274.206612" xlink:href="#m14d9d9490c" y="224.83715"/>
     <use style="fill:#8dd3c7;stroke:#8dd3c7;" x="279.330579" xlink:href="#m14d9d9490c" y="222.530366"/>
     <use style="fill:#8dd3c7;stroke:#8dd3c7;" x="284.454545" xlink:href="#m14d9d9490c" y="221.874067"/>
     <use style="fill:#8dd3c7;stroke:#8dd3c7;" x="289.578512" xlink:href="#m14d9d9490c" y="219.101413"/>
     <use style="fill:#8dd3c7;stroke:#8dd3c7;" x="294.702479" xlink:href="#m14d9d9490c" y="217.639573"/>
     <use style="fill:#8dd3c7;stroke:#8dd3c7;" x="299.826446" xlink:href="#m14d9d9490c" y="215.915778"/>
     <use style="fill:#8dd3c7;stroke:#8dd3c7;" x="304.950413" xlink:href="#m14d9d9490c" y="213.544387"/>
     <use style="fill:#8dd3c7;stroke:#8dd3c7;" x="310.07438" xlink:href="#m14d9d9490c" y="212.046464"/>
     <use style="fill:#8dd3c7;stroke:#8dd3c7;" x="315.198347" xlink:href="#m14d9d9490c" y="211.274713"/>
     <use style="fill:#8dd3c7;stroke:#8dd3c7;" x="320.322314" xlink:href="#m14d9d9490c" y="208.627092"/>
     <use style="fill:#8dd3c7;stroke:#8dd3c7;" x="325.446281" xlink:href="#m14d9d9490c" y="207.985423"/>
     <use style="fill:#8dd3c7;stroke:#8dd3c7;" x="330.570248" xlink:href="#m14d9d9490c" y="206.868514"/>
     <use style="fill:#8dd3c7;stroke:#8dd3c7;" x="335.694215" xlink:href="#m14d9d9490c" y="206.914403"/>
     <use style="fill:#8dd3c7;stroke:#8dd3c7;" x="340.818182" xlink:href="#m14d9d9490c" y="202.295012"/>
     <use style="fill:#8dd3c7;stroke:#8dd3c7;" x="345.942149" xlink:href="#m14d9d9490c" y="202.643016"/>
     <use style="fill:#8dd3c7;stroke:#8dd3c7;" x="351.066116" xlink:href="#m14d9d9490c" y="202.22611"/>
     <use style="fill:#8dd3c7;stroke:#8dd3c7;" x="356.190083" xlink:href="#m14d9d9490c" y="200.380811"/>
     <use style="fill:#8dd3c7;stroke:#8dd3c7;" x="361.31405" xlink:href="#m14d9d9490c" y="198.697562"/>
     <use style="fill:#8dd3c7;stroke:#8dd3c7;" x="366.438017" xlink:href="#m14d9d9490c" y="197.209578"/>
     <use style="fill:#8dd3c7;stroke:#8dd3c7;" x="371.561983" xlink:href="#m14d9d9490c" y="196.0424"/>
     <use style="fill:#8dd3c7;stroke:#8dd3c7;" x="376.68595" xlink:href="#m14d9d9490c" y="195.450966"/>
     <use style="fill:#8dd3c7;stroke:#8dd3c7;" x="381.809917" xlink:href="#m14d9d9490c" y="195.277696"/>
     <use style="fill:#8dd3c7;stroke:#8dd3c7;" x="386.933884" xlink:href="#m14d9d9490c" y="193.085342"/>
     <use style="fill:#8dd3c7;stroke:#8dd3c7;" x="392.057851" xlink:href="#m14d9d9490c" y="189.365837"/>
     <use style="fill:#8dd3c7;stroke:#8dd3c7;" x="397.181818" xlink:href="#m14d9d9490c" y="190.009051"/>
     <use style="fill:#8dd3c7;stroke:#8dd3c7;" x="402.305785" xlink:href="#m14d9d9490c" y="188.427659"/>
     <use style="fill:#8dd3c7;stroke:#8dd3c7;" x="407.429752" xlink:href="#m14d9d9490c" y="188.573275"/>
     <use style="fill:#8dd3c7;stroke:#8dd3c7;" x="412.553719" xlink:href="#m14d9d9490c" y="187.44032"/>
     <use style="fill:#8dd3c7;stroke:#8dd3c7;" x="417.677686" xlink:href="#m14d9d9490c" y="186.693319"/>
     <use style="fill:#8dd3c7;stroke:#8dd3c7;" x="422.801653" xlink:href="#m14d9d9490c" y="183.588306"/>
     <use style="fill:#8dd3c7;stroke:#8dd3c7;" x="427.92562" xlink:href="#m14d9d9490c" y="183.510632"/>
     <use style="fill:#8dd3c7;stroke:#8dd3c7;" x="433.049587" xlink:href="#m14d9d9490c" y="182.163439"/>
     <use style="fill:#8dd3c7;stroke:#8dd3c7;" x="438.173554" xlink:href="#m14d9d9490c" y="180.725015"/>
     <use style="fill:#8dd3c7;stroke:#8dd3c7;" x="443.297521" xlink:href="#m14d9d9490c" y="179.026342"/>
     <use style="fill:#8dd3c7;stroke:#8dd3c7;" x="448.421488" xlink:href="#m14d9d9490c" y="177.107346"/>
     <use style="fill:#8dd3c7;stroke:#8dd3c7;" x="453.545455" xlink:href="#m14d9d9490c" y="179.218073"/>
     <use style="fill:#8dd3c7;stroke:#8dd3c7;" x="458.669421" xlink:href="#m14d9d9490c" y="175.357368"/>
     <use style="fill:#8dd3c7;stroke:#8dd3c7;" x="463.793388" xlink:href="#m14d9d9490c" y="175.764607"/>
     <use style="fill:#8dd3c7;stroke:#8dd3c7;" x="468.917355" xlink:href="#m14d9d9490c" y="175.124948"/>
     <use style="fill:#8dd3c7;stroke:#8dd3c7;" x="474.041322" xlink:href="#m14d9d9490c" y="171.263737"/>
     <use style="fill:#8dd3c7;stroke:#8dd3c7;" x="479.165289" xlink:href="#m14d9d9490c" y="172.915149"/>
     <use style="fill:#8dd3c7;stroke:#8dd3c7;" x="484.289256" xlink:href="#m14d9d9490c" y="171.898126"/>
     <use style="fill:#8dd3c7;stroke:#8dd3c7;" x="489.413223" xlink:href="#m14d9d9490c" y="169.432251"/>
     <use style="fill:#8dd3c7;stroke:#8dd3c7;" x="494.53719" xlink:href="#m14d9d9490c" y="170.599397"/>
     <use style="fill:#8dd3c7;stroke:#8dd3c7;" x="499.661157" xlink:href="#m14d9d9490c" y="165.713286"/>
     <use style="fill:#8dd3c7;stroke:#8dd3c7;" x="504.785124" xlink:href="#m14d9d9490c" y="166.089765"/>
     <use style="fill:#8dd3c7;stroke:#8dd3c7;" x="509.909091" xlink:href="#m14d9d9490c" y="163.669973"/>
     <use style="fill:#8dd3c7;stroke:#8dd3c7;" x="515.033058" xlink:href="#m14d9d9490c" y="163.737119"/>
     <use style="fill:#8dd3c7;stroke:#8dd3c7;" x="520.157025" xlink:href="#m14d9d9490c" y="163.073593"/>
     <use style="fill:#8dd3c7;stroke:#8dd3c7;" x="525.280992" xlink:href="#m14d9d9490c" y="158.955038"/>
     <use style="fill:#8dd3c7;stroke:#8dd3c7;" x="530.404959" xlink:href="#m14d9d9490c" y="158.785569"/>
     <use style="fill:#8dd3c7;stroke:#8dd3c7;" x="535.528926" xlink:href="#m14d9d9490c" y="159.269666"/>
     <use style="fill:#8dd3c7;stroke:#8dd3c7;" x="540.652893" xlink:href="#m14d9d9490c" y="158.476754"/>
     <use style="fill:#8dd3c7;stroke:#8dd3c7;" x="545.77686" xlink:href="#m14d9d9490c" y="158.526837"/>
     <use style="fill:#8dd3c7;stroke:#8dd3c7;" x="550.900826" xlink:href="#m14d9d9490c" y="155.048215"/>
     <use style="fill:#8dd3c7;stroke:#8dd3c7;" x="556.024793" xlink:href="#m14d9d9490c" y="153.700005"/>
     <use style="fill:#8dd3c7;stroke:#8dd3c7;" x="561.14876" xlink:href="#m14d9d9490c" y="156.057435"/>
     <use style="fill:#8dd3c7;stroke:#8dd3c7;" x="566.272727" xlink:href="#m14d9d9490c" y="154.210863"/>
     <use style="fill:#8dd3c7;stroke:#8dd3c7;" x="571.396694" xlink:href="#m14d9d9490c" y="152.831545"/>
     <use style="fill:#8dd3c7;stroke:#8dd3c7;" x="576.520661" xlink:href="#m14d9d9490c" y="152.003852"/>
     <use style="fill:#8dd3c7;stroke:#8dd3c7;" x="581.644628" xlink:href="#m14d9d9490c" y="151.285518"/>
     <use style="fill:#8dd3c7;stroke:#8dd3c7;" x="586.768595" xlink:href="#m14d9d9490c" y="149.605865"/>
     <use style="fill:#8dd3c7;stroke:#8dd3c7;" x="591.892562" xlink:href="#m14d9d9490c" y="152.721232"/>
     <use style="fill:#8dd3c7;stroke:#8dd3c7;" x="597.016529" xlink:href="#m14d9d9490c" y="148.789332"/>
     <use style="fill:#8dd3c7;stroke:#8dd3c7;" x="602.140496" xlink:href="#m14d9d9490c" y="146.732685"/>
     <use style="fill:#8dd3c7;stroke:#8dd3c7;" x="607.264463" xlink:href="#m14d9d9490c" y="149.470916"/>
     <use style="fill:#8dd3c7;stroke:#8dd3c7;" x="612.38843" xlink:href="#m14d9d9490c" y="143.852124"/>
     <use style="fill:#8dd3c7;stroke:#8dd3c7;" x="617.512397" xlink:href="#m14d9d9490c" y="145.752089"/>
     <use style="fill:#8dd3c7;stroke:#8dd3c7;" x="622.636364" xlink:href="#m14d9d9490c" y="143.791488"/>
    </g>
   </g>
   <g id="PathCollection_2">
    <defs>
     <path d="M 0 1.5 
C 0.397805 1.5 0.77937 1.341951 1.06066 1.06066 
C 1.341951 0.77937 1.5 0.397805 1.5 0 
C 1.5 -0.397805 1.341951 -0.77937 1.06066 -1.06066 
C 0.77937 -1.341951 0.397805 -1.5 0 -1.5 
C -0.397805 -1.5 -0.77937 -1.341951 -1.06066 -1.06066 
C -1.341951 -0.77937 -1.5 -0.397805 -1.5 0 
C -1.5 0.397805 -1.341951 0.77937 -1.06066 1.06066 
C -0.77937 1.341951 -0.397805 1.5 0 1.5 
z
" id="m22cfeb060e" style="stroke:#feffb3;"/>
    </defs>
    <g clip-path="url(#pb7c4d88016)">
     <use style="fill:#feffb3;stroke:#feffb3;" x="115.363636" xlink:href="#m22cfeb060e" y="302.645455"/>
     <use style="fill:#feffb3;stroke:#feffb3;" x="120.487603" xlink:href="#m22cfeb060e" y="301.275058"/>
     <use style="fill:#feffb3;stroke:#feffb3;" x="125.61157" xlink:href="#m22cfeb060e" y="299.191151"/>
     <use style="fill:#feffb3;stroke:#feffb3;" x="130.735537" xlink:href="#m22cfeb060e" y="297.199977"/>
     <use style="fill:#feffb3;stroke:#feffb3;" x="135.859504" xlink:href="#m22cfeb060e" y="294.665407"/>
     <use style="fill:#feffb3;stroke:#feffb3;" x="140.983471" xlink:href="#m22cfeb060e" y="294.960843"/>
     <use style="fill:#feffb3;stroke:#feffb3;" x="146.107438" xlink:href="#m22cfeb060e" y="291.319556"/>
     <use style="fill:#feffb3;stroke:#feffb3;" x="151.231405" xlink:href="#m22cfeb060e" y="288.766134"/>
     <use style="fill:#feffb3;stroke:#feffb3;" x="156.355372" xlink:href="#m22cfeb060e" y="285.977864"/>
     <use style="fill:#feffb3;stroke:#feffb3;" x="161.479339" xlink:href="#m22cfeb060e" y="285.17246"/>
     <use style="fill:#feffb3;stroke:#feffb3;" x="166.603306" xlink:href="#m22cfeb060e" y="280.423062"/>
     <use style="fill:#feffb3;stroke:#feffb3;" x="171.727273" xlink:href="#m22cfeb060e" y="279.641739"/>
     <use style="fill:#feffb3;stroke:#feffb3;" x="176.85124" xlink:href="#m22cfeb060e" y="278.412653"/>
     <use style="fill:#feffb3;stroke:#feffb3;" x="181.975207" xlink:href="#m22cfeb060e" y="274.893285"/>
     <use style="fill:#feffb3;stroke:#feffb3;" x="187.099174" xlink:href="#m22cfeb060e" y="272.819715"/>
     <use style="fill:#feffb3;stroke:#feffb3;" x="192.22314" xlink:href="#m22cfeb060e" y="269.579046"/>
     <use style="fill:#feffb3;stroke:#feffb3;" x="197.347107" xlink:href="#m22cfeb060e" y="267.486381"/>
     <use style="fill:#feffb3;stroke:#feffb3;" x="202.471074" xlink:href="#m22cfeb060e" y="263.855152"/>
     <use style="fill:#feffb3;stroke:#feffb3;" x="207.595041" xlink:href="#m22cfeb060e" y="261.664195"/>
     <use style="fill:#feffb3;stroke:#feffb3;" x="212.719008" xlink:href="#m22cfeb060e" y="258.294245"/>
     <use style="fill:#feffb3;stroke:#feffb3;" x="217.842975" xlink:href="#m22cfeb060e" y="258.057882"/>
     <use style="fill:#feffb3;stroke:#feffb3;" x="222.966942" xlink:href="#m22cfeb060e" y="253.910664"/>
     <use style="fill:#feffb3;stroke:#feffb3;" x="228.090909" xlink:href="#m22cfeb060e" y="252.27162"/>
     <use style="fill:#feffb3;stroke:#feffb3;" x="233.214876" xlink:href="#m22cfeb060e" y="248.55895"/>
     <use style="fill:#feffb3;stroke:#feffb3;" x="238.338843" xlink:href="#m22cfeb060e" y="246.784925"/>
     <use style="fill:#feffb3;stroke:#feffb3;" x="243.46281" xlink:href="#m22cfeb060e" y="243.574882"/>
     <use style="fill:#feffb3;stroke:#feffb3;" x="248.586777" xlink:href="#m22cfeb060e" y="242.801034"/>
     <use style="fill:#feffb3;stroke:#feffb3;" x="253.710744" xlink:href="#m22cfeb060e" y="238.383867"/>
     <use style="fill:#feffb3;stroke:#feffb3;" x="258.834711" xlink:href="#m22cfeb060e" y="235.172033"/>
     <use style="fill:#feffb3;stroke:#feffb3;" x="263.958678" xlink:href="#m22cfeb060e" y="232.380054"/>
     <use style="fill:#feffb3;stroke:#feffb3;" x="269.082645" xlink:href="#m22cfeb060e" y="232.688257"/>
     <use style="fill:#feffb3;stroke:#feffb3;" x="274.206612" xlink:href="#m22cfeb060e" y="229.928772"/>
     <use style="fill:#feffb3;stroke:#feffb3;" x="279.330579" xlink:href="#m22cfeb060e" y="224.984291"/>
     <use style="fill:#feffb3;stroke:#feffb3;" x="284.454545" xlink:href="#m22cfeb060e" y="225.807792"/>
     <use style="fill:#feffb3;stroke:#feffb3;" x="289.578512" xlink:href="#m22cfeb060e" y="221.704248"/>
     <use style="fill:#feffb3;stroke:#feffb3;" x="294.702479" xlink:href="#m22cfeb060e" y="220.088326"/>
     <use style="fill:#feffb3;stroke:#feffb3;" x="299.826446" xlink:href="#m22cfeb060e" y="212.630446"/>
     <use style="fill:#feffb3;stroke:#feffb3;" x="304.950413" xlink:href="#m22cfeb060e" y="216.657582"/>
     <use style="fill:#feffb3;stroke:#feffb3;" x="310.07438" xlink:href="#m22cfeb060e" y="210.834251"/>
     <use style="fill:#feffb3;stroke:#feffb3;" x="315.198347" xlink:href="#m22cfeb060e" y="208.670944"/>
     <use style="fill:#feffb3;stroke:#feffb3;" x="320.322314" xlink:href="#m22cfeb060e" y="202.557995"/>
     <use style="fill:#feffb3;stroke:#feffb3;" x="325.446281" xlink:href="#m22cfeb060e" y="203.533535"/>
     <use style="fill:#feffb3;stroke:#feffb3;" x="330.570248" xlink:href="#m22cfeb060e" y="200.861161"/>
     <use style="fill:#feffb3;stroke:#feffb3;" x="335.694215" xlink:href="#m22cfeb060e" y="200.583596"/>
     <use style="fill:#feffb3;stroke:#feffb3;" x="340.818182" xlink:href="#m22cfeb060e" y="191.184723"/>
     <use style="fill:#feffb3;stroke:#feffb3;" x="345.942149" xlink:href="#m22cfeb060e" y="192.912547"/>
     <use style="fill:#feffb3;stroke:#feffb3;" x="351.066116" xlink:href="#m22cfeb060e" y="196.05323"/>
     <use style="fill:#feffb3;stroke:#feffb3;" x="356.190083" xlink:href="#m22cfeb060e" y="187.644086"/>
     <use style="fill:#feffb3;stroke:#feffb3;" x="361.31405" xlink:href="#m22cfeb060e" y="188.249636"/>
     <use style="fill:#feffb3;stroke:#feffb3;" x="366.438017" xlink:href="#m22cfeb060e" y="184.681959"/>
     <use style="fill:#feffb3;stroke:#feffb3;" x="371.561983" xlink:href="#m22cfeb060e" y="177.124247"/>
     <use style="fill:#feffb3;stroke:#feffb3;" x="376.68595" xlink:href="#m22cfeb060e" y="180.569961"/>
     <use style="fill:#feffb3;stroke:#feffb3;" x="381.809917" xlink:href="#m22cfeb060e" y="177.240165"/>
     <use style="fill:#feffb3;stroke:#feffb3;" x="386.933884" xlink:href="#m22cfeb060e" y="171.342588"/>
     <use style="fill:#feffb3;stroke:#feffb3;" x="392.057851" xlink:href="#m22cfeb060e" y="169.069318"/>
     <use style="fill:#feffb3;stroke:#feffb3;" x="397.181818" xlink:href="#m22cfeb060e" y="168.757798"/>
     <use style="fill:#feffb3;stroke:#feffb3;" x="402.305785" xlink:href="#m22cfeb060e" y="163.524973"/>
     <use style="fill:#feffb3;stroke:#feffb3;" x="407.429752" xlink:href="#m22cfeb060e" y="168.266625"/>
     <use style="fill:#feffb3;stroke:#feffb3;" x="412.553719" xlink:href="#m22cfeb060e" y="166.630395"/>
     <use style="fill:#feffb3;stroke:#feffb3;" x="417.677686" xlink:href="#m22cfeb060e" y="158.024742"/>
     <use style="fill:#feffb3;stroke:#feffb3;" x="422.801653" xlink:href="#m22cfeb060e" y="162.58257"/>
     <use style="fill:#feffb3;stroke:#feffb3;" x="427.92562" xlink:href="#m22cfeb060e" y="150.356495"/>
     <use style="fill:#feffb3;stroke:#feffb3;" x="433.049587" xlink:href="#m22cfeb060e" y="147.908462"/>
     <use style="fill:#feffb3;stroke:#feffb3;" x="438.173554" xlink:href="#m22cfeb060e" y="150.446648"/>
     <use style="fill:#feffb3;stroke:#feffb3;" x="443.297521" xlink:href="#m22cfeb060e" y="147.59856"/>
     <use style="fill:#feffb3;stroke:#feffb3;" x="448.421488" xlink:href="#m22cfeb060e" y="142.465645"/>
     <use style="fill:#feffb3;stroke:#feffb3;" x="453.545455" xlink:href="#m22cfeb060e" y="148.651787"/>
     <use style="fill:#feffb3;stroke:#feffb3;" x="458.669421" xlink:href="#m22cfeb060e" y="139.408007"/>
     <use style="fill:#feffb3;stroke:#feffb3;" x="463.793388" xlink:href="#m22cfeb060e" y="144.87046"/>
     <use style="fill:#feffb3;stroke:#feffb3;" x="468.917355" xlink:href="#m22cfeb060e" y="139.771355"/>
     <use style="fill:#feffb3;stroke:#feffb3;" x="474.041322" xlink:href="#m22cfeb060e" y="131.945544"/>
     <use style="fill:#feffb3;stroke:#feffb3;" x="479.165289" xlink:href="#m22cfeb060e" y="135.21865"/>
     <use style="fill:#feffb3;stroke:#feffb3;" x="484.289256" xlink:href="#m22cfeb060e" y="131.814259"/>
     <use style="fill:#feffb3;stroke:#feffb3;" x="489.413223" xlink:href="#m22cfeb060e" y="126.098703"/>
     <use style="fill:#feffb3;stroke:#feffb3;" x="494.53719" xlink:href="#m22cfeb060e" y="135.013622"/>
     <use style="fill:#feffb3;stroke:#feffb3;" x="499.661157" xlink:href="#m22cfeb060e" y="124.041186"/>
     <use style="fill:#feffb3;stroke:#feffb3;" x="504.785124" xlink:href="#m22cfeb060e" y="126.106116"/>
     <use style="fill:#feffb3;stroke:#feffb3;" x="509.909091" xlink:href="#m22cfeb060e" y="115.080632"/>
     <use style="fill:#feffb3;stroke:#feffb3;" x="515.033058" xlink:href="#m22cfeb060e" y="119.524596"/>
     <use style="fill:#feffb3;stroke:#feffb3;" x="520.157025" xlink:href="#m22cfeb060e" y="114.270016"/>
     <use style="fill:#feffb3;stroke:#feffb3;" x="525.280992" xlink:href="#m22cfeb060e" y="104.741353"/>
     <use style="fill:#feffb3;stroke:#feffb3;" x="530.404959" xlink:href="#m22cfeb060e" y="95.911842"/>
     <use style="fill:#feffb3;stroke:#feffb3;" x="535.528926" xlink:href="#m22cfeb060e" y="104.174635"/>
     <use style="fill:#feffb3;stroke:#feffb3;" x="540.652893" xlink:href="#m22cfeb060e" y="100.280646"/>
     <use style="fill:#feffb3;stroke:#feffb3;" x="545.77686" xlink:href="#m22cfeb060e" y="98.265857"/>
     <use style="fill:#feffb3;stroke:#feffb3;" x="550.900826" xlink:href="#m22cfeb060e" y="96.945101"/>
     <use style="fill:#feffb3;stroke:#feffb3;" x="556.024793" xlink:href="#m22cfeb060e" y="92.666119"/>
     <use style="fill:#feffb3;stroke:#feffb3;" x="561.14876" xlink:href="#m22cfeb060e" y="94.519492"/>
     <use style="fill:#feffb3;stroke:#feffb3;" x="566.272727" xlink:href="#m22cfeb060e" y="84.707056"/>
     <use style="fill:#feffb3;stroke:#feffb3;" x="571.396694" xlink:href="#m22cfeb060e" y="97.167609"/>
     <use style="fill:#feffb3;stroke:#feffb3;" x="576.520661" xlink:href="#m22cfeb060e" y="87.297449"/>
     <use style="fill:#feffb3;stroke:#feffb3;" x="581.644628" xlink:href="#m22cfeb060e" y="88.167258"/>
     <use style="fill:#feffb3;stroke:#feffb3;" x="586.768595" xlink:href="#m22cfeb060e" y="80.585877"/>
     <use style="fill:#feffb3;stroke:#feffb3;" x="591.892562" xlink:href="#m22cfeb060e" y="91.190383"/>
     <use style="fill:#feffb3;stroke:#feffb3;" x="597.016529" xlink:href="#m22cfeb060e" y="83.507798"/>
     <use style="fill:#feffb3;stroke:#feffb3;" x="602.140496" xlink:href="#m22cfeb060e" y="79.351438"/>
     <use style="fill:#feffb3;stroke:#feffb3;" x="607.264463" xlink:href="#m22cfeb060e" y="84.156257"/>
     <use style="fill:#feffb3;stroke:#feffb3;" x="612.38843" xlink:href="#m22cfeb060e" y="55.554545"/>
     <use style="fill:#feffb3;stroke:#feffb3;" x="617.512397" xlink:href="#m22cfeb060e" y="78.681333"/>
     <use style="fill:#feffb3;stroke:#feffb3;" x="622.636364" xlink:href="#m22cfeb060e" y="62.422379"/>
    </g>
   </g>
   <g id="matplotlib.axis_1">
    <g id="xtick_1">
     <g id="line2d_1">
      <defs>
       <path d="M 0 0 
L 0 3.5 
" id="mb1a6620fc1" style="stroke:#ffffff;stroke-width:0.8;"/>
      </defs>
      <g>
       <use style="fill:#ffffff;stroke:#ffffff;stroke-width:0.8;" x="110.239669" xlink:href="#mb1a6620fc1" y="315"/>
      </g>
     </g>
     <g id="text_1">
      <!-- $\mathdefault{0}$ -->
      <defs>
       <path d="M 42 31.640625 
C 42 37.75 41.90625 48.125 37.703125 56.109375 
C 34 63.109375 28.09375 65.59375 22.90625 65.59375 
C 18.09375 65.59375 12 63.40625 8.203125 56.203125 
C 4.203125 48.71875 3.796875 39.4375 3.796875 31.640625 
C 3.796875 25.953125 3.90625 17.28125 7 9.671875 
C 11.296875 -0.609375 19 -2 22.90625 -2 
C 27.5 -2 34.5 -0.109375 38.59375 9.375 
C 41.59375 16.28125 42 24.359375 42 31.640625 
z
M 22.90625 -0.40625 
C 16.5 -0.40625 12.703125 5.078125 11.296875 12.6875 
C 10.203125 18.5625 10.203125 27.15625 10.203125 32.75 
C 10.203125 40.4375 10.203125 46.828125 11.5 52.921875 
C 13.40625 61.390625 19 64 22.90625 64 
C 27 64 32.296875 61.296875 34.203125 53.125 
C 35.5 47.4375 35.59375 40.734375 35.59375 32.75 
C 35.59375 26.25 35.59375 18.265625 34.40625 12.375 
C 32.296875 1.484375 26.40625 -0.40625 22.90625 -0.40625 
z
" id="CMR17-48"/>
      </defs>
      <g style="fill:#ffffff;" transform="translate(105.899074 335.145148)scale(0.19 -0.19)">
       <use transform="scale(0.996264)" xlink:href="#CMR17-48"/>
      </g>
     </g>
    </g>
    <g id="xtick_2">
     <g id="line2d_2">
      <g>
       <use style="fill:#ffffff;stroke:#ffffff;stroke-width:0.8;" x="212.719008" xlink:href="#mb1a6620fc1" y="315"/>
      </g>
     </g>
     <g id="text_2">
      <!-- $\mathdefault{20}$ -->
      <defs>
       <path d="M 41.703125 15.453125 
L 39.90625 15.453125 
C 38.90625 8.375 38.09375 7.171875 37.703125 6.5625 
C 37.203125 5.765625 30 5.765625 28.59375 5.765625 
L 9.40625 5.765625 
C 13 9.671875 20 16.75 28.5 24.953125 
C 34.59375 30.734375 41.703125 37.53125 41.703125 47.421875 
C 41.703125 59.21875 32.296875 66 21.796875 66 
C 10.796875 66 4.09375 56.3125 4.09375 47.34375 
C 4.09375 43.4375 7 42.9375 8.203125 42.9375 
C 9.203125 42.9375 12.203125 43.546875 12.203125 47.03125 
C 12.203125 50.109375 9.59375 51 8.203125 51 
C 7.59375 51 7 50.90625 6.59375 50.703125 
C 8.5 59.21875 14.296875 63.40625 20.40625 63.40625 
C 29.09375 63.40625 34.796875 56.515625 34.796875 47.421875 
C 34.796875 38.734375 29.703125 31.25 24 24.75 
L 4.09375 2.28125 
L 4.09375 0 
L 39.296875 0 
z
" id="CMR17-50"/>
      </defs>
      <g style="fill:#ffffff;" transform="translate(204.037818 335.145148)scale(0.19 -0.19)">
       <use transform="scale(0.996264)" xlink:href="#CMR17-50"/>
       <use transform="translate(45.690477 0)scale(0.996264)" xlink:href="#CMR17-48"/>
      </g>
     </g>
    </g>
    <g id="xtick_3">
     <g id="line2d_3">
      <g>
       <use style="fill:#ffffff;stroke:#ffffff;stroke-width:0.8;" x="315.198347" xlink:href="#mb1a6620fc1" y="315"/>
      </g>
     </g>
     <g id="text_3">
      <!-- $\mathdefault{40}$ -->
      <defs>
       <path d="M 33.59375 64.40625 
C 33.59375 66.5 33.5 66.5 31.703125 66.5 
L 2 19.59375 
L 2 17 
L 27.796875 17 
L 27.796875 7.140625 
C 27.796875 3.5 27.59375 2.5 20.59375 2.5 
L 18.703125 2.5 
L 18.703125 0 
C 21.90625 0 27.296875 0 30.703125 0 
C 34.09375 0 39.5 0 42.703125 0 
L 42.703125 2.5 
L 40.796875 2.5 
C 33.796875 2.5 33.59375 3.5 33.59375 7.140625 
L 33.59375 17 
L 43.796875 17 
L 43.796875 19.59375 
L 33.59375 19.59375 
z
M 28.09375 57.859375 
L 28.09375 19.59375 
L 4 19.59375 
z
" id="CMR17-52"/>
      </defs>
      <g style="fill:#ffffff;" transform="translate(306.517156 335.145148)scale(0.19 -0.19)">
       <use transform="scale(0.996264)" xlink:href="#CMR17-52"/>
       <use transform="translate(45.690477 0)scale(0.996264)" xlink:href="#CMR17-48"/>
      </g>
     </g>
    </g>
    <g id="xtick_4">
     <g id="line2d_4">
      <g>
       <use style="fill:#ffffff;stroke:#ffffff;stroke-width:0.8;" x="417.677686" xlink:href="#mb1a6620fc1" y="315"/>
      </g>
     </g>
     <g id="text_4">
      <!-- $\mathdefault{60}$ -->
      <defs>
       <path d="M 10.59375 34 
C 10.59375 57.65625 21.796875 63 28.296875 63 
C 30.40625 63 35.5 62.640625 37.5 59 
C 35.90625 59 32.90625 59 32.90625 55.515625 
C 32.90625 52.828125 35.09375 51.921875 36.5 51.921875 
C 37.40625 51.921875 40.09375 52.3125 40.09375 55.625 
C 40.09375 61.78125 35.09375 65.296875 28.203125 65.296875 
C 16.296875 65.296875 3.796875 52.96875 3.796875 31 
C 3.796875 3.953125 15.09375 -2 23.09375 -2 
C 32.796875 -2 42 6.671875 42 20.046875 
C 42 32.515625 33.90625 41.59375 23.703125 41.59375 
C 17.59375 41.59375 13.09375 37.609375 10.59375 30.625 
z
M 23.09375 0.390625 
C 10.796875 0.390625 10.796875 18.75 10.796875 22.4375 
C 10.796875 29.625 14.203125 40 23.5 40 
C 25.203125 40 30.09375 40 33.40625 33.125 
C 35.203125 29.21875 35.203125 25.140625 35.203125 20.140625 
C 35.203125 14.75 35.203125 10.78125 33.09375 6.78125 
C 30.90625 2.671875 27.703125 0.390625 23.09375 0.390625 
z
" id="CMR17-54"/>
      </defs>
      <g style="fill:#ffffff;" transform="translate(408.996495 335.145148)scale(0.19 -0.19)">
       <use transform="scale(0.996264)" xlink:href="#CMR17-54"/>
       <use transform="translate(45.690477 0)scale(0.996264)" xlink:href="#CMR17-48"/>
      </g>
     </g>
    </g>
    <g id="xtick_5">
     <g id="line2d_5">
      <g>
       <use style="fill:#ffffff;stroke:#ffffff;stroke-width:0.8;" x="520.157025" xlink:href="#mb1a6620fc1" y="315"/>
      </g>
     </g>
     <g id="text_5">
      <!-- $\mathdefault{80}$ -->
      <defs>
       <path d="M 27.203125 35.375 
C 33.5 38.546875 39.90625 43.328125 39.90625 50.984375 
C 39.90625 60.015625 31.09375 65.296875 23 65.296875 
C 13.90625 65.296875 5.90625 58.734375 5.90625 49.6875 
C 5.90625 47.203125 6.5 42.921875 10.40625 39.140625 
C 11.40625 38.15625 15.59375 35.171875 18.296875 33.28125 
C 13.796875 30.984375 3.296875 25.53125 3.296875 14.59375 
C 3.296875 4.359375 13.09375 -2 22.796875 -2 
C 33.5 -2 42.5 5.65625 42.5 15.78125 
C 42.5 24.84375 36.40625 29.015625 32.40625 31.703125 
z
M 14.09375 44.09375 
C 13.296875 44.59375 9.296875 47.671875 9.296875 52.359375 
C 9.296875 58.421875 15.59375 63 22.796875 63 
C 30.703125 63 36.5 57.4375 36.5 50.96875 
C 36.5 41.703125 26.09375 36.421875 25.59375 36.421875 
C 25.5 36.421875 25.40625 36.421875 24.59375 37.03125 
z
M 32.5 23.734375 
C 34 22.640625 38.796875 19.375 38.796875 13.296875 
C 38.796875 5.953125 31.40625 0.390625 23 0.390625 
C 13.90625 0.390625 7 6.84375 7 14.6875 
C 7 22.546875 13.09375 29.09375 20 32.1875 
z
" id="CMR17-56"/>
      </defs>
      <g style="fill:#ffffff;" transform="translate(511.475834 335.145148)scale(0.19 -0.19)">
       <use transform="scale(0.996264)" xlink:href="#CMR17-56"/>
       <use transform="translate(45.690477 0)scale(0.996264)" xlink:href="#CMR17-48"/>
      </g>
     </g>
    </g>
    <g id="xtick_6">
     <g id="line2d_6">
      <g>
       <use style="fill:#ffffff;stroke:#ffffff;stroke-width:0.8;" x="622.636364" xlink:href="#mb1a6620fc1" y="315"/>
      </g>
     </g>
     <g id="text_6">
      <!-- $\mathdefault{100}$ -->
      <defs>
       <path d="M 26.59375 63.40625 
C 26.59375 65.5 26.5 65.5 25.09375 65.5 
C 21.203125 61.1875 15.296875 59.796875 9.703125 59.796875 
C 9.40625 59.796875 8.90625 59.796875 8.796875 59.5 
C 8.703125 59.296875 8.703125 59.09375 8.703125 57 
C 11.796875 57 17 57.59375 21 59.984375 
L 21 7.203125 
C 21 3.6875 20.796875 2.5 12.203125 2.5 
L 9.203125 2.5 
L 9.203125 0 
C 14 0 19 0 23.796875 0 
C 28.59375 0 33.59375 0 38.40625 0 
L 38.40625 2.5 
L 35.40625 2.5 
C 26.796875 2.5 26.59375 3.59375 26.59375 7.15625 
z
" id="CMR17-49"/>
      </defs>
      <g style="fill:#ffffff;" transform="translate(609.614578 335.145148)scale(0.19 -0.19)">
       <use transform="scale(0.996264)" xlink:href="#CMR17-49"/>
       <use transform="translate(45.690477 0)scale(0.996264)" xlink:href="#CMR17-48"/>
       <use transform="translate(91.380954 0)scale(0.996264)" xlink:href="#CMR17-48"/>
      </g>
     </g>
    </g>
    <g id="text_7">
     <!-- $\displaystyle\tau_{\text{ref}}$ (ms) -->
     <defs>
      <path d="M 28.703125 37.625 
L 45.296875 37.625 
C 46.59375 37.625 49.90625 37.625 49.90625 40.8125 
C 49.90625 43 48 43 46.203125 43 
L 18.703125 43 
C 16.40625 43 13 43 8.40625 38.125 
C 5.796875 35.234375 2.59375 29.953125 2.59375 29.359375 
C 2.59375 28.765625 3.09375 28.5625 3.703125 28.5625 
C 4.40625 28.5625 4.5 28.859375 5 29.453125 
C 10.203125 37.625 15.40625 37.625 17.90625 37.625 
L 26.203125 37.625 
L 15.796875 3.484375 
C 15.296875 1.984375 15.296875 1.78125 15.296875 1.484375 
C 15.296875 0.390625 16 -1 18 -1 
C 21.09375 -1 21.59375 1.6875 21.90625 3.171875 
z
" id="CMMI12-28"/>
      <path d="M 14.90625 21.296875 
C 14.90625 30.703125 21.796875 37 30.59375 37 
L 30.59375 43.578125 
C 24.203125 43.578125 18.203125 40.390625 14.59375 35.203125 
L 14.59375 43.09375 
L 7.5 43.09375 
L 7.5 0 
L 14.90625 0 
z
" id="CMSS17-114"/>
      <path d="M 39.09375 21.515625 
C 39.09375 24.84375 38.90625 31.296875 35.703125 36.640625 
C 32.203125 42.390625 26.5 44 22.203125 44 
C 11.796875 44 3 34.1875 3 21.484375 
C 3 9.09375 12.09375 -1 23.59375 -1 
C 28.09375 -1 33.59375 0.296875 38.59375 3.875 
C 38.59375 4.28125 38.40625 6.46875 38.296875 6.5625 
C 38.296875 6.765625 38 9.84375 38 10.25 
C 33.203125 6.359375 27.703125 5.078125 23.703125 5.078125 
C 17.296875 5.078125 10.40625 10.421875 10.09375 21.515625 
z
M 10.90625 27 
C 12.203125 32.5625 16.59375 37.828125 22.203125 37.828125 
C 23.703125 37.828125 30.703125 37.828125 32.5 27 
z
" id="CMSS17-101"/>
      <path d="M 16.796875 37 
L 26.90625 37 
L 26.90625 42.765625 
L 16.59375 42.765625 
L 16.59375 55.609375 
C 16.59375 62.71875 22 63.9375 25.09375 63.9375 
C 26.09375 63.9375 28.90625 63.9375 32.5 62.640625 
L 32.5 69.203125 
C 30.203125 69.703125 27.40625 70 25.203125 70 
C 15.90625 70 9.40625 62.390625 9.40625 52.484375 
L 9.40625 42.765625 
L 2.5 42.765625 
L 2.5 37 
L 9.40625 37 
L 9.40625 0 
L 16.796875 0 
z
" id="CMSS17-102"/>
      <path d="M 25.203125 74.5 
C 19.796875 69.015625 7.40625 56.265625 7.40625 24.8125 
C 7.40625 -6.765625 19.796875 -19.421875 25.203125 -25 
L 31.296875 -25 
C 19 -12.25 15 5.578125 15 24.703125 
C 15 43.71875 18.796875 61.65625 31.296875 74.5 
z
" id="CMSS17-40"/>
      <path d="M 67 29.328125 
C 67 36.0625 65.296875 44 54.09375 44 
C 46.59375 44 42.09375 39.3125 40.09375 36.421875 
C 38.296875 41.71875 34.09375 44 28.09375 44 
C 21.296875 44 17 40.125 14.703125 37.328125 
L 14.703125 43.09375 
L 7.40625 43.09375 
L 7.40625 0 
L 15 0 
L 15 24.359375 
C 15 30.296875 17.203125 37.9375 24.296875 37.9375 
C 33.40625 37.9375 33.40625 31.5 33.40625 28.578125 
L 33.40625 0 
L 41 0 
L 41 24.359375 
C 41 30.296875 43.203125 37.9375 50.296875 37.9375 
C 59.40625 37.9375 59.40625 31.5 59.40625 28.578125 
L 59.40625 0 
L 67 0 
z
" id="CMSS17-109"/>
      <path d="M 32.203125 41.046875 
C 26.296875 43.859375 21.703125 43.859375 18.703125 43.859375 
C 11.59375 43.859375 3.09375 41.375 3.09375 31.296875 
C 3.09375 21.234375 14.09375 19.03125 17.09375 18.421875 
C 21.703125 17.53125 26.796875 16.53125 26.796875 11.5625 
C 26.796875 5.265625 19.59375 5.265625 18.296875 5.265625 
C 14.296875 5.265625 8.796875 6.359375 3.796875 9.96875 
L 2.59375 3.28125 
C 8.296875 0 13.796875 -1 18.40625 -1 
C 30.703125 -1 33.796875 6.5 33.796875 12.203125 
C 33.796875 17.09375 31 20.390625 29.09375 21.890625 
C 25.796875 24.5 24.59375 24.796875 16.40625 26.5 
C 15 26.703125 10.09375 27.796875 10.09375 32.28125 
C 10.09375 38 16.40625 38 17.796875 38 
C 24.296875 38 28.296875 35.984375 31 34.5 
z
" id="CMSS17-115"/>
      <path d="M 11.296875 -25 
C 16.703125 -19.515625 29.09375 -6.765625 29.09375 24.703125 
C 29.09375 56.265625 16.703125 68.921875 11.296875 74.5 
L 5.203125 74.5 
C 17.5 61.75 21.5 43.921875 21.5 24.8125 
C 21.5 5.78125 17.703125 -12.15625 5.203125 -25 
z
" id="CMSS17-41"/>
     </defs>
     <g style="fill:#ffffff;" transform="translate(337.303828 357.006711)scale(0.19 -0.19)">
      <use transform="scale(0.996264)" xlink:href="#CMMI12-28"/>
      <use transform="translate(42.363841 -14.943915)scale(0.697382)" xlink:href="#CMSS17-114"/>
      <use transform="translate(64.70058 -14.943915)scale(0.697382)" xlink:href="#CMSS17-101"/>
      <use transform="translate(93.847626 -14.943915)scale(0.697382)" xlink:href="#CMSS17-102"/>
      <use transform="translate(145.61345 0)scale(0.996264)" xlink:href="#CMSS17-40"/>
      <use transform="translate(182.047364 0)scale(0.996264)" xlink:href="#CMSS17-109"/>
      <use transform="translate(256.276618 0)scale(0.996264)" xlink:href="#CMSS17-115"/>
      <use transform="translate(292.19016 0)scale(0.996264)" xlink:href="#CMSS17-41"/>
     </g>
    </g>
   </g>
   <g id="matplotlib.axis_2">
    <g id="ytick_1">
     <g id="line2d_7">
      <defs>
       <path d="M 0 0 
L -3.5 0 
" id="m3c2b0c37b6" style="stroke:#ffffff;stroke-width:0.8;"/>
      </defs>
      <g>
       <use style="fill:#ffffff;stroke:#ffffff;stroke-width:0.8;" x="90" xlink:href="#m3c2b0c37b6" y="302.410469"/>
      </g>
     </g>
     <g id="text_8">
      <!-- $\mathdefault{0}$ -->
      <g style="fill:#ffffff;" transform="translate(74.318809 308.983043)scale(0.19 -0.19)">
       <use transform="scale(0.996264)" xlink:href="#CMR17-48"/>
      </g>
     </g>
    </g>
    <g id="ytick_2">
     <g id="line2d_8">
      <g>
       <use style="fill:#ffffff;stroke:#ffffff;stroke-width:0.8;" x="90" xlink:href="#m3c2b0c37b6" y="254.573649"/>
      </g>
     </g>
     <g id="text_9">
      <!-- $\mathdefault{1}$ -->
      <g style="fill:#ffffff;" transform="translate(74.318809 261.146223)scale(0.19 -0.19)">
       <use transform="scale(0.996264)" xlink:href="#CMR17-49"/>
      </g>
     </g>
    </g>
    <g id="ytick_3">
     <g id="line2d_9">
      <g>
       <use style="fill:#ffffff;stroke:#ffffff;stroke-width:0.8;" x="90" xlink:href="#m3c2b0c37b6" y="206.736829"/>
      </g>
     </g>
     <g id="text_10">
      <!-- $\mathdefault{2}$ -->
      <g style="fill:#ffffff;" transform="translate(74.318809 213.309403)scale(0.19 -0.19)">
       <use transform="scale(0.996264)" xlink:href="#CMR17-50"/>
      </g>
     </g>
    </g>
    <g id="ytick_4">
     <g id="line2d_10">
      <g>
       <use style="fill:#ffffff;stroke:#ffffff;stroke-width:0.8;" x="90" xlink:href="#m3c2b0c37b6" y="158.900009"/>
      </g>
     </g>
     <g id="text_11">
      <!-- $\mathdefault{3}$ -->
      <defs>
       <path d="M 22.09375 33.703125 
C 31 33.703125 34.90625 25.96875 34.90625 17.03125 
C 34.90625 5 28.5 0.390625 22.703125 0.390625 
C 17.40625 0.390625 8.796875 3.03125 6.09375 10.828125 
C 6.59375 10.625 7.09375 10.625 7.59375 10.625 
C 10 10.625 11.796875 12.21875 11.796875 14.8125 
C 11.796875 17.703125 9.59375 19 7.59375 19 
C 5.90625 19 3.296875 18.203125 3.296875 14.46875 
C 3.296875 5.234375 12.296875 -2 22.90625 -2 
C 34 -2 42.5 6.71875 42.5 16.953125 
C 42.5 26.671875 34.5 33.703125 25 34.796875 
C 32.59375 36.375 39.90625 43.0625 39.90625 52.015625 
C 39.90625 59.6875 32 65.296875 23 65.296875 
C 13.90625 65.296875 5.90625 59.828125 5.90625 52.015625 
C 5.90625 48.59375 8.5 48 9.796875 48 
C 11.90625 48 13.703125 49.296875 13.703125 51.890625 
C 13.703125 54.46875 11.90625 55.765625 9.796875 55.765625 
C 9.40625 55.765625 8.90625 55.765625 8.5 55.578125 
C 11.40625 61.859375 19.296875 63 22.796875 63 
C 26.296875 63 32.90625 61.328125 32.90625 51.875 
C 32.90625 49.109375 32.5 44.1875 29.09375 39.84375 
C 26.09375 36 22.703125 36 19.40625 35.6875 
C 18.90625 35.6875 16.59375 35.453125 16.203125 35.453125 
C 15.5 35.359375 15.09375 35.265625 15.09375 34.5 
C 15.09375 33.796875 15.203125 33.703125 17.203125 33.703125 
z
" id="CMR17-51"/>
      </defs>
      <g style="fill:#ffffff;" transform="translate(74.318809 165.472583)scale(0.19 -0.19)">
       <use transform="scale(0.996264)" xlink:href="#CMR17-51"/>
      </g>
     </g>
    </g>
    <g id="ytick_5">
     <g id="line2d_11">
      <g>
       <use style="fill:#ffffff;stroke:#ffffff;stroke-width:0.8;" x="90" xlink:href="#m3c2b0c37b6" y="111.063189"/>
      </g>
     </g>
     <g id="text_12">
      <!-- $\mathdefault{4}$ -->
      <g style="fill:#ffffff;" transform="translate(74.318809 117.635763)scale(0.19 -0.19)">
       <use transform="scale(0.996264)" xlink:href="#CMR17-52"/>
      </g>
     </g>
    </g>
    <g id="ytick_6">
     <g id="line2d_12">
      <g>
       <use style="fill:#ffffff;stroke:#ffffff;stroke-width:0.8;" x="90" xlink:href="#m3c2b0c37b6" y="63.226369"/>
      </g>
     </g>
     <g id="text_13">
      <!-- $\mathdefault{5}$ -->
      <defs>
       <path d="M 11.40625 57.6875 
C 12.40625 57.28125 16.5 56 20.703125 56 
C 30 56 35.09375 61.109375 38 64.0625 
C 38 64.953125 38 65.5 37.40625 65.5 
C 37.296875 65.5 37.09375 65.5 36.296875 65.046875 
C 32.796875 63.40625 28.703125 62.078125 23.703125 62.078125 
C 20.703125 62.078125 16.203125 62.484375 11.296875 64.671875 
C 10.203125 65.171875 10 65.171875 9.90625 65.171875 
C 9.40625 65.171875 9.296875 65.0625 9.296875 63.078125 
L 9.296875 34.421875 
C 9.296875 32.640625 9.296875 32.140625 10.296875 32.140625 
C 10.796875 32.140625 11 32.34375 11.5 33.03125 
C 14.703125 37.515625 19.09375 39.40625 24.09375 39.40625 
C 27.59375 39.40625 35.09375 37.21875 35.09375 20.140625 
C 35.09375 16.953125 35.09375 11.171875 32.09375 6.578125 
C 29.59375 2.484375 25.703125 0.390625 21.40625 0.390625 
C 14.796875 0.390625 8.09375 5 6.296875 12.71875 
C 6.703125 12.609375 7.5 12.421875 7.90625 12.421875 
C 9.203125 12.421875 11.703125 13.125 11.703125 16.21875 
C 11.703125 18.90625 9.796875 20 7.90625 20 
C 5.59375 20 4.09375 18.59375 4.09375 15.796875 
C 4.09375 7.09375 11 -2 21.59375 -2 
C 31.90625 -2 41.703125 6.875 41.703125 19.75 
C 41.703125 31.71875 33.90625 41 24.203125 41 
C 19.09375 41 14.796875 39.109375 11.40625 35.53125 
z
" id="CMR17-53"/>
      </defs>
      <g style="fill:#ffffff;" transform="translate(74.318809 69.798943)scale(0.19 -0.19)">
       <use transform="scale(0.996264)" xlink:href="#CMR17-53"/>
      </g>
     </g>
    </g>
    <g id="text_14">
     <!-- k -->
     <defs>
      <path d="M 26.5 26.375 
L 42 42.796875 
L 32.40625 42.796875 
L 14.90625 24.28125 
L 14.90625 69 
L 7.5 69 
L 7.5 0 
L 14.796875 0 
L 14.796875 13.9375 
L 21.5 21 
L 35.59375 0 
L 44.09375 0 
z
" id="CMSS17-107"/>
     </defs>
     <g style="fill:#ffffff;" transform="translate(66.636968 183.432234)rotate(-90)scale(0.19 -0.19)">
      <use transform="scale(0.996264)" xlink:href="#CMSS17-107"/>
     </g>
    </g>
   </g>
   <g id="line2d_13">
    <path clip-path="url(#pb7c4d88016)" d="M 115.363636 299.129487 
L 120.487603 295.916344 
L 125.61157 292.769352 
L 130.735537 289.686864 
L 135.859504 286.667275 
L 140.983471 283.709021 
L 146.107438 280.810574 
L 151.231405 277.970446 
L 156.355372 275.187186 
L 161.479339 272.459379 
L 166.603306 269.785645 
L 171.727273 267.164638 
L 176.85124 264.595046 
L 181.975207 262.07559 
L 187.099174 259.605022 
L 192.22314 257.182126 
L 197.347107 254.805715 
L 202.471074 252.474632 
L 207.595041 250.187749 
L 212.719008 247.943967 
L 217.842975 245.742213 
L 222.966942 243.581441 
L 228.090909 241.460631 
L 233.214876 239.378788 
L 238.338843 237.334944 
L 243.46281 235.328152 
L 248.586777 233.35749 
L 253.710744 231.42206 
L 258.834711 229.520984 
L 263.958678 227.653408 
L 269.082645 225.818497 
L 274.206612 224.01544 
L 279.330579 222.243443 
L 284.454545 220.501733 
L 289.578512 218.789558 
L 294.702479 217.106181 
L 299.826446 215.450886 
L 304.950413 213.822974 
L 310.07438 212.221764 
L 315.198347 210.646592 
L 320.322314 209.096809 
L 325.446281 207.571784 
L 330.570248 206.0709 
L 335.694215 204.593557 
L 340.818182 203.139169 
L 345.942149 201.707165 
L 351.066116 200.296987 
L 356.190083 198.908093 
L 361.31405 197.539952 
L 366.438017 196.192049 
L 371.561983 194.86388 
L 376.68595 193.554954 
L 381.809917 192.264792 
L 386.933884 190.992926 
L 392.057851 189.738902 
L 397.181818 188.502276 
L 402.305785 187.282614 
L 407.429752 186.079495 
L 412.553719 184.892506 
L 417.677686 183.721248 
L 422.801653 182.565327 
L 427.92562 181.424362 
L 433.049587 180.297981 
L 438.173554 179.185822 
L 443.297521 178.08753 
L 448.421488 177.00276 
L 453.545455 175.931176 
L 458.669421 174.87245 
L 463.793388 173.826261 
L 468.917355 172.792298 
L 474.041322 171.770256 
L 479.165289 170.759838 
L 484.289256 169.760757 
L 489.413223 168.772728 
L 494.53719 167.795478 
L 499.661157 166.828738 
L 504.785124 165.872246 
L 509.909091 164.925748 
L 515.033058 163.988995 
L 520.157025 163.061744 
L 525.280992 162.143759 
L 530.404959 161.234809 
L 535.528926 160.334669 
L 540.652893 159.443121 
L 545.77686 158.55995 
L 550.900826 157.684948 
L 556.024793 156.817911 
L 561.14876 155.958642 
L 566.272727 155.106947 
L 571.396694 154.262637 
L 576.520661 153.42553 
L 581.644628 152.595445 
L 586.768595 151.772208 
L 591.892562 150.955648 
L 597.016529 150.145599 
L 602.140496 149.3419 
L 607.264463 148.544392 
L 612.38843 147.752921 
L 617.512397 146.967337 
L 622.636364 146.187493 
" style="fill:none;stroke:#ff0000;stroke-linecap:square;stroke-width:1.5;"/>
   </g>
   <g id="line2d_14">
    <path clip-path="url(#pb7c4d88016)" d="M 115.363636 300.018628 
L 120.487603 297.626787 
L 125.61157 295.234946 
L 130.735537 292.843105 
L 135.859504 290.451264 
L 140.983471 288.059423 
L 146.107438 285.667582 
L 151.231405 283.275741 
L 156.355372 280.8839 
L 161.479339 278.492059 
L 166.603306 276.100218 
L 171.727273 273.708377 
L 176.85124 271.316536 
L 181.975207 268.924695 
L 187.099174 266.532854 
L 192.22314 264.141013 
L 197.347107 261.749172 
L 202.471074 259.357331 
L 207.595041 256.96549 
L 212.719008 254.573649 
L 217.842975 252.181808 
L 222.966942 249.789967 
L 228.090909 247.398126 
L 233.214876 245.006285 
L 238.338843 242.614444 
L 243.46281 240.222603 
L 248.586777 237.830762 
L 253.710744 235.438921 
L 258.834711 233.04708 
L 263.958678 230.655239 
L 269.082645 228.263398 
L 274.206612 225.871557 
L 279.330579 223.479716 
L 284.454545 221.087875 
L 289.578512 218.696034 
L 294.702479 216.304193 
L 299.826446 213.912352 
L 304.950413 211.520511 
L 310.07438 209.12867 
L 315.198347 206.736829 
L 320.322314 204.344988 
L 325.446281 201.953147 
L 330.570248 199.561306 
L 335.694215 197.169465 
L 340.818182 194.777624 
L 345.942149 192.385783 
L 351.066116 189.993942 
L 356.190083 187.602101 
L 361.31405 185.21026 
L 366.438017 182.818419 
L 371.561983 180.426578 
L 376.68595 178.034737 
L 381.809917 175.642896 
L 386.933884 173.251055 
L 392.057851 170.859214 
L 397.181818 168.467373 
L 402.305785 166.075532 
L 407.429752 163.683691 
L 412.553719 161.29185 
L 417.677686 158.900009 
L 422.801653 156.508168 
L 427.92562 154.116327 
L 433.049587 151.724486 
L 438.173554 149.332645 
L 443.297521 146.940804 
L 448.421488 144.548963 
L 453.545455 142.157122 
L 458.669421 139.765281 
L 463.793388 137.37344 
L 468.917355 134.981599 
L 474.041322 132.589758 
L 479.165289 130.197917 
L 484.289256 127.806076 
L 489.413223 125.414235 
L 494.53719 123.022394 
L 499.661157 120.630553 
L 504.785124 118.238712 
L 509.909091 115.846871 
L 515.033058 113.45503 
L 520.157025 111.063189 
L 525.280992 108.671348 
L 530.404959 106.279507 
L 535.528926 103.887666 
L 540.652893 101.495825 
L 545.77686 99.103984 
L 550.900826 96.712143 
L 556.024793 94.320302 
L 561.14876 91.928461 
L 566.272727 89.53662 
L 571.396694 87.144779 
L 576.520661 84.752938 
L 581.644628 82.361097 
L 586.768595 79.969256 
L 591.892562 77.577415 
L 597.016529 75.185574 
L 602.140496 72.793733 
L 607.264463 70.401892 
L 612.38843 68.010051 
L 617.512397 65.61821 
L 622.636364 63.226369 
" style="fill:none;stroke:#0000ff;stroke-linecap:square;stroke-width:1.5;"/>
   </g>
   <g id="patch_3">
    <path d="M 90 315 
L 90 43.2 
" style="fill:none;stroke:#ffffff;stroke-linecap:square;stroke-linejoin:miter;stroke-width:0.8;"/>
   </g>
   <g id="patch_4">
    <path d="M 648 315 
L 648 43.2 
" style="fill:none;stroke:#ffffff;stroke-linecap:square;stroke-linejoin:miter;stroke-width:0.8;"/>
   </g>
   <g id="patch_5">
    <path d="M 90 315 
L 648 315 
" style="fill:none;stroke:#ffffff;stroke-linecap:square;stroke-linejoin:miter;stroke-width:0.8;"/>
   </g>
   <g id="patch_6">
    <path d="M 90 43.2 
L 648 43.2 
" style="fill:none;stroke:#ffffff;stroke-linecap:square;stroke-linejoin:miter;stroke-width:0.8;"/>
   </g>
   <g id="legend_1">
    <g id="patch_7">
     <path d="M 103.3 170.326934 
L 227.163682 170.326934 
Q 230.963682 170.326934 230.963682 166.526934 
L 230.963682 56.5 
Q 230.963682 52.7 227.163682 52.7 
L 103.3 52.7 
Q 99.5 52.7 99.5 56.5 
L 99.5 166.526934 
Q 99.5 170.326934 103.3 170.326934 
z
" style="opacity:0.8;stroke:#cccccc;stroke-linejoin:miter;"/>
    </g>
    <g id="line2d_15">
     <path d="M 107.1 66.95 
L 145.1 66.95 
" style="fill:none;stroke:#ff0000;stroke-linecap:square;stroke-width:1.5;"/>
    </g>
    <g id="line2d_16"/>
    <g id="text_15">
     <!-- Mean fit -->
     <defs>
      <path d="M 49.90625 37.046875 
L 45.09375 23.015625 
C 44.296875 20.421875 41.59375 12.359375 41 9.171875 
L 40.90625 9.171875 
C 40.59375 11.171875 40 13.265625 38.40625 18.34375 
C 37.5 21.328125 36.5 24.40625 35.5 27.203125 
L 20.703125 69 
L 9 69 
L 9 0 
L 16.796875 0 
L 16.796875 60.9375 
L 16.90625 60.9375 
C 16.90625 60.84375 17.796875 56.453125 23.90625 39.046875 
L 37.09375 1.5 
L 44.5 1.5 
L 56.40625 34.859375 
C 57.203125 37.15625 59.703125 44.421875 60.796875 47.90625 
C 61.796875 50.890625 64.296875 58.25 64.90625 61.140625 
L 65 61.140625 
L 65 0 
L 72.90625 0 
L 72.90625 69 
L 61.296875 69 
z
" id="CMSS17-77"/>
      <path d="M 37.59375 27.984375 
C 37.59375 37.375 30.90625 43.875 21.90625 43.875 
C 17.5 43.875 12.703125 43.078125 7.203125 39.890625 
L 7.796875 33.359375 
C 10.296875 35.125 14.59375 38 21.796875 38 
C 26.90625 38 30 34.0625 30 27.84375 
L 30 24 
C 14 24 4 19.34375 4 11.34375 
C 4 7.203125 6.5 -1 14.796875 -1 
C 16.296875 -1 24.40625 -1 30.203125 3.390625 
L 30.203125 -0.296875 
L 37.59375 -0.296875 
z
M 30 12.75 
C 30 10.953125 30 8.5625 27 6.78125 
C 24.40625 5.078125 21.09375 5.078125 19.703125 5.078125 
C 14.703125 5.078125 11.296875 7.984375 11.296875 11.625 
C 11.296875 18.921875 26.90625 18.921875 30 18.921875 
z
" id="CMSS17-97"/>
      <path d="M 40.90625 29.328125 
C 40.90625 35.671875 39.40625 44 28.09375 44 
C 21.703125 44 17.5 40.71875 14.703125 37.328125 
L 14.703125 43.09375 
L 7.40625 43.09375 
L 7.40625 0 
L 15 0 
L 15 24.359375 
C 15 30.6875 17.40625 37.9375 24.203125 37.9375 
C 33 37.9375 33.296875 32 33.296875 28.578125 
L 33.296875 0 
L 40.90625 0 
z
" id="CMSS17-110"/>
      <path d="M 43 69 
L 35 69 
L 35 61.03125 
L 43 61.03125 
z
M 42.703125 42.765625 
L 35.296875 42.765625 
L 35.296875 0 
L 42.703125 0 
z
M 16.796875 37 
L 27.703125 37 
L 27.703125 42.765625 
L 16.59375 42.765625 
L 16.59375 55.90625 
C 16.59375 61.234375 19 63.9375 22.203125 63.9375 
C 24.09375 63.9375 26 63.375 27.703125 62.375 
L 27.703125 68.90625 
C 26.90625 69.1875 24.59375 70 22.203125 70 
C 14.703125 70 9.40625 62.390625 9.40625 52.6875 
L 9.40625 42.765625 
L 2.5 42.765625 
L 2.5 37 
L 9.40625 37 
L 9.40625 0 
L 16.796875 0 
z
" id="CMSS17-12"/>
      <path d="M 16.703125 37 
L 29.703125 37 
L 29.703125 42.765625 
L 16.703125 42.765625 
L 16.703125 55 
L 9.59375 55 
L 9.59375 42.765625 
L 1.703125 42.765625 
L 1.703125 37 
L 9.40625 37 
L 9.40625 11.703125 
C 9.40625 6 10.703125 -1 17.296875 -1 
C 22.296875 -1 26.90625 0.390625 31.296875 2.6875 
L 29.703125 8.5625 
C 27.296875 6.46875 24.40625 5.265625 21.296875 5.265625 
C 16.90625 5.265625 16.703125 10.875 16.703125 13.375 
z
" id="CMSS17-116"/>
     </defs>
     <g style="fill:#ffffff;" transform="translate(160.3 73.6)scale(0.19 -0.19)">
      <use transform="scale(0.996264)" xlink:href="#CMSS17-77"/>
      <use transform="translate(81.67603 0)scale(0.996264)" xlink:href="#CMSS17-101"/>
      <use transform="translate(123.314852 0)scale(0.996264)" xlink:href="#CMSS17-97"/>
      <use transform="translate(168.236773 0)scale(0.996264)" xlink:href="#CMSS17-110"/>
      <use transform="translate(247.670829 0)scale(0.996264)" xlink:href="#CMSS17-12"/>
      <use transform="translate(297.797566 0)scale(0.996264)" xlink:href="#CMSS17-116"/>
     </g>
    </g>
    <g id="line2d_17">
     <path d="M 107.1 93.431841 
L 145.1 93.431841 
" style="fill:none;stroke:#0000ff;stroke-linecap:square;stroke-width:1.5;"/>
    </g>
    <g id="line2d_18"/>
    <g id="text_16">
     <!-- Var fit -->
     <defs>
      <path d="M 61.09375 69 
L 53.296875 69 
L 36 21.28125 
C 35.5 19.890625 32.40625 10.75 31.796875 7.5625 
L 31.703125 7.5625 
C 30.90625 11.34375 27.703125 20.1875 26 25.0625 
L 14.40625 57.375 
L 10.09375 69 
L 1.296875 69 
L 26.796875 0 
L 35.59375 0 
z
" id="CMSS17-86"/>
     </defs>
     <g style="fill:#ffffff;" transform="translate(160.3 100.081841)scale(0.19 -0.19)">
      <use transform="scale(0.996264)" xlink:href="#CMSS17-86"/>
      <use transform="translate(59.615401 0)scale(0.996264)" xlink:href="#CMSS17-97"/>
      <use transform="translate(101.934868 0)scale(0.996264)" xlink:href="#CMSS17-114"/>
      <use transform="translate(165.073753 0)scale(0.996264)" xlink:href="#CMSS17-12"/>
      <use transform="translate(215.20049 0)scale(0.996264)" xlink:href="#CMSS17-116"/>
     </g>
    </g>
    <g id="PathCollection_3">
     <g>
      <use style="fill:#8dd3c7;stroke:#8dd3c7;" x="126.1" xlink:href="#m14d9d9490c" y="122.472945"/>
     </g>
    </g>
    <g id="text_17">
     <!-- $\displaystyle\text{r}\langle\tau\rangle - 1$ -->
     <defs>
      <path d="M 32.796875 71.203125 
C 33.296875 72.296875 33.296875 72.5 33.296875 73 
C 33.296875 74.09375 32.40625 75 31.296875 75 
C 30.40625 75 29.703125 74.5 29 72.703125 
L 11.5 26.796875 
C 11.296875 26.203125 11 25.59375 11 25 
C 11 24.703125 11 24.5 11.5 23.296875 
L 29 -22.59375 
C 29.40625 -23.703125 29.90625 -25 31.296875 -25 
C 32.40625 -25 33.296875 -24.09375 33.296875 -23 
C 33.296875 -22.703125 33.296875 -22.5 32.796875 -21.40625 
L 15.09375 25 
z
" id="CMSY10-104"/>
      <path d="M 27.296875 23.296875 
C 27.796875 24.5 27.796875 24.703125 27.796875 25 
C 27.796875 25.296875 27.796875 25.5 27.296875 26.703125 
L 9.796875 72.703125 
C 9.203125 74.40625 8.59375 75 7.5 75 
C 6.40625 75 5.5 74.09375 5.5 73 
C 5.5 72.703125 5.5 72.5 6 71.40625 
L 23.703125 25 
L 6 -21.203125 
C 5.5 -22.296875 5.5 -22.5 5.5 -23 
C 5.5 -24.09375 6.40625 -25 7.5 -25 
C 8.796875 -25 9.203125 -24 9.59375 -23 
z
" id="CMSY10-105"/>
      <path d="M 65.90625 23 
C 67.59375 23 69.40625 23 69.40625 25 
C 69.40625 27 67.59375 27 65.90625 27 
L 11.796875 27 
C 10.09375 27 8.296875 27 8.296875 25 
C 8.296875 23 10.09375 23 11.796875 23 
z
" id="CMSY10-0"/>
     </defs>
     <g style="fill:#ffffff;" transform="translate(160.3 127.460445)scale(0.19 -0.19)">
      <use transform="scale(0.996264)" xlink:href="#CMSS17-114"/>
      <use transform="translate(31.909773 0)scale(0.996264)" xlink:href="#CMSY10-104"/>
      <use transform="translate(70.653506 0)scale(0.996264)" xlink:href="#CMMI12-28"/>
      <use transform="translate(124.144672 0)scale(0.996264)" xlink:href="#CMSY10-105"/>
      <use transform="translate(185.027613 0)scale(0.996264)" xlink:href="#CMSY10-0"/>
      <use transform="translate(284.654287 0)scale(0.996264)" xlink:href="#CMR17-49"/>
     </g>
    </g>
    <g id="PathCollection_4">
     <g>
      <use style="fill:#feffb3;stroke:#feffb3;" x="126.1" xlink:href="#m22cfeb060e" y="153.059869"/>
     </g>
    </g>
    <g id="text_18">
     <!-- $\displaystyle\text{r}^2\sigma_{\tau}^2 - 1$ -->
     <defs>
      <path d="M 50.796875 37.625 
C 52.09375 37.625 55.40625 37.625 55.40625 40.8125 
C 55.40625 43 53.5 43 51.703125 43 
L 29.59375 43 
C 14.59375 43 3.796875 26.34375 3.796875 14.5625 
C 3.796875 6.09375 9.296875 -1 18.296875 -1 
C 30.09375 -1 43 11.671875 43 26.640625 
C 43 30.53125 42.09375 34.3125 39.703125 37.625 
z
M 18.40625 1 
C 13.296875 1 9.59375 4.890625 9.59375 11.78125 
C 9.59375 17.765625 13.203125 37.625 27.90625 37.625 
C 32.203125 37.625 37 35.53125 37 27.828125 
C 37 24.34375 35.40625 15.953125 31.90625 10.1875 
C 28.296875 4.296875 22.90625 1 18.40625 1 
z
" id="CMMI12-27"/>
     </defs>
     <g style="fill:#ffffff;" transform="translate(160.3 158.047369)scale(0.19 -0.19)">
      <use transform="scale(0.996264)" xlink:href="#CMSS17-114"/>
      <use transform="translate(31.909773 41.134974)scale(0.697382)" xlink:href="#CMR17-50"/>
      <use transform="translate(64.391087 0)scale(0.996264)" xlink:href="#CMMI12-27"/>
      <use transform="translate(123.41114 41.134974)scale(0.697382)" xlink:href="#CMR17-50"/>
      <use transform="translate(119.836547 -24.62935)scale(0.697382)" xlink:href="#CMMI12-28"/>
      <use transform="translate(179.917533 0)scale(0.996264)" xlink:href="#CMSY10-0"/>
      <use transform="translate(279.544208 0)scale(0.996264)" xlink:href="#CMR17-49"/>
     </g>
    </g>
   </g>
  </g>
 </g>
 <defs>
  <clipPath id="pb7c4d88016">
   <rect height="271.8" width="558" x="90" y="43.2"/>
  </clipPath>
 </defs>
</svg>
